<svg xmlns="http://www.w3.org/2000/svg" xmlns:xlink="http://www.w3.org/1999/xlink" width="500" zoomAndPan="magnify" viewBox="0 0 375 374.999991" height="500" preserveAspectRatio="xMidYMid meet" version="1.0"><defs><g/><clipPath id="ff11228b91"><path d="M 60 42 L 317 42 L 317 229.472656 L 60 229.472656 Z M 60 42 " clip-rule="nonzero"/></clipPath><clipPath id="bf9c6759f4"><path d="M 86 89 L 270 89 L 270 229.472656 L 86 229.472656 Z M 86 89 " clip-rule="nonzero"/></clipPath><clipPath id="6ac2904681"><path d="M 89.222656 258 L 95 258 L 95 265 L 89.222656 265 Z M 89.222656 258 " clip-rule="nonzero"/></clipPath><clipPath id="c4c135e79a"><path d="M 271.269531 258 L 277 258 L 277 265 L 271.269531 265 Z M 271.269531 258 " clip-rule="nonzero"/></clipPath></defs><rect x="-37.5" width="450" fill="#ffffff" y="-37.499999" height="449.999989" fill-opacity="1"/><rect x="-37.5" width="450" fill="#ffffff" y="-37.499999" height="449.999989" fill-opacity="1"/><rect x="-37.5" width="450" fill="#000000" y="-37.499999" height="449.999989" fill-opacity="1"/><g clip-path="url(#ff11228b91)"><path fill="#ff6100" d="M 142.65625 97.960938 C 153.832031 99.414062 208.824219 104.71875 219.210938 91.257812 C 222.6875 86.769531 232.050781 76.035156 232.050781 76.035156 C 232.050781 76.035156 237.601562 60.8125 241.589844 57.703125 C 245.582031 54.59375 248.699219 53.90625 248.699219 53.90625 C 248.699219 53.90625 258.933594 43.707031 266.734375 42.839844 C 274.535156 41.972656 286.683594 44.394531 288.066406 48.730469 C 289.445312 53.0625 290.316406 55.996094 290.316406 55.996094 C 290.316406 55.996094 302.976562 61.707031 307.480469 62.214844 C 311.980469 62.726562 317.378906 64.636719 316.328125 68.257812 C 315.28125 71.878906 311.648438 82.613281 301.75 85.722656 C 291.851562 88.835938 284.433594 89.089844 283.410156 93.09375 C 282.359375 97.070312 287.886719 110.300781 284.074219 113.921875 C 280.265625 117.542969 274.175781 121.519531 273.664062 126.363281 C 273.152344 131.210938 269.675781 139.675781 265.503906 141.585938 C 261.335938 143.5 260.644531 147.476562 259.953125 150.050781 C 259.265625 152.652344 258.214844 169.757812 249.902344 174.78125 C 241.566406 179.804688 236.550781 186.203125 236.882812 190.691406 C 237.242188 195.179688 232.996094 220.597656 233.867188 222.691406 C 234.734375 224.753906 242.023438 223.914062 242.714844 225.621094 C 243.40625 227.355469 242.714844 229.445312 242.714844 229.445312 L 226.960938 229.445312 C 226.960938 229.445312 222.226562 228.300781 220.769531 222.5625 C 219.3125 216.824219 215.601562 182.074219 205.933594 182.277344 C 196.242188 182.480469 186.46875 182.277344 182.019531 182.277344 C 180.203125 182.277344 179.640625 182.277344 179.5625 182.277344 L 179.613281 182.277344 C 179.742188 182.226562 179.84375 182.203125 179.972656 182.226562 C 180.382812 182.253906 179.539062 182.277344 179.5625 182.277344 C 164.550781 179.832031 153.117188 182.6875 153.117188 182.6875 C 153.117188 182.6875 146.3125 196.863281 137.667969 202.394531 C 124.546875 209.585938 111.910156 207.773438 111.910156 207.773438 L 111.089844 220.929688 C 111.089844 220.929688 117.484375 229.472656 114.597656 229.472656 L 103.085938 229.472656 C 103.085938 229.472656 99.273438 224.984375 98.917969 222.207031 C 98.558594 219.425781 97.867188 202.089844 99.605469 200.710938 C 101.347656 199.335938 104.800781 193.445312 104.800781 193.445312 C 104.800781 193.445312 99.582031 186.867188 96.820312 187.226562 C 94.03125 187.582031 87.789062 190.335938 82.238281 192.070312 C 76.6875 193.800781 68.707031 192.070312 68.707031 192.070312 C 68.707031 192.070312 65.28125 189.265625 63.542969 186.152344 C 61.804688 183.042969 57.992188 179.933594 63.898438 176.464844 C 69.808594 172.996094 72.570312 171.621094 78.121094 170.242188 C 83.671875 168.867188 92.34375 162.621094 94.082031 160.554688 C 95.820312 158.492188 93.722656 157.445312 98.25 153.644531 C 102.753906 149.847656 103.445312 140.515625 103.800781 135.671875 C 104.160156 130.828125 113.523438 112.828125 120.8125 106.25 C 128.101562 99.695312 131.503906 96.507812 142.65625 97.960938 " fill-opacity="1" fill-rule="evenodd"/></g><g clip-path="url(#bf9c6759f4)"><path fill="#ffffff" d="M 225.757812 181.207031 C 225.78125 181.234375 226.910156 181.257812 225.757812 181.257812 Z M 140.914062 180.519531 C 139.609375 174.449219 135.980469 172.5625 130.171875 163.285156 C 124.367188 154.027344 129.585938 143.449219 122.910156 132.304688 C 116.234375 121.164062 112.320312 125.652344 106.792969 127.816406 C 101.269531 129.984375 93.289062 128.097656 88.941406 123.050781 C 84.59375 117.976562 84.875 116.394531 93.597656 111.167969 C 102.320312 105.96875 100.117188 102.195312 102.445312 97.273438 C 104.671875 92.53125 115.492188 88.070312 123.804688 90.058594 C 123.804688 90.058594 128.84375 89.597656 131.785156 91.050781 C 134.726562 92.53125 142.859375 99.210938 141.070312 103.011719 C 150.8125 111.984375 162.324219 122.871094 170.6875 125.929688 C 184.910156 131.132812 221.792969 131.4375 231.691406 129.398438 C 241.566406 127.386719 242.867188 110.734375 242.867188 110.734375 C 242.867188 110.734375 248.164062 110.148438 249.46875 119.992188 C 250.773438 129.832031 245.121094 134.167969 243.660156 136.640625 C 242.203125 139.113281 243.816406 138.527344 249.46875 146.199219 C 255.121094 153.875 253.253906 170.089844 252.230469 177.765625 C 251.617188 182.429688 255.375 186.816406 259.058594 190.105469 L 263.40625 193.648438 C 263.996094 194.109375 264.507812 194.515625 264.867188 194.847656 C 266.121094 195.867188 268.011719 198.902344 269.113281 200.789062 L 269.035156 201.808594 C 269.0625 207.417969 269.0625 218.839844 269.238281 219.910156 C 269.34375 220.496094 267.808594 223.402344 266.453125 225.878906 C 266.246094 226.691406 265.761719 227.457031 265.222656 228.070312 C 264.738281 228.910156 264.40625 229.472656 264.40625 229.472656 L 251.128906 229.472656 C 251.128906 229.472656 251.386719 228.554688 251.796875 227.433594 C 251.566406 226.617188 251.410156 225.851562 251.515625 225.417969 C 251.617188 224.910156 253.101562 223.761719 254.636719 222.691406 C 256.117188 221.109375 258.085938 219.273438 258.085938 219.273438 L 258.085938 207.925781 C 258.085938 207.925781 249.035156 199.742188 240.824219 196.378906 C 232.613281 193.011719 228.1875 181.003906 225.886719 181.207031 C 225.808594 181.207031 225.78125 181.207031 225.78125 181.207031 C 225.757812 181.183594 219.492188 169.757812 215.707031 168.253906 C 205.730469 167.949219 190.253906 172.207031 183.347656 176.183594 C 173.757812 181.691406 155.75 181.691406 155.46875 184.878906 C 155.1875 188.066406 157.644531 208.921875 157.644531 215.703125 C 157.644531 221.390625 153.089844 227.558594 151.582031 229.445312 L 137.078125 229.445312 C 136.925781 228.425781 136.617188 226.257812 136.746094 224.960938 C 136.898438 223.226562 140.097656 222.640625 144.164062 218.867188 C 148.179688 215.117188 142.21875 186.585938 140.914062 180.519531 Z M 140.914062 180.519531 " fill-opacity="1" fill-rule="evenodd"/></g><path fill="#000000" d="M 225.757812 181.207031 C 225.78125 181.234375 226.910156 181.257812 225.757812 181.257812 Z M 140.914062 180.519531 C 139.609375 174.449219 135.980469 172.5625 130.171875 163.285156 C 124.367188 154.027344 129.585938 143.449219 122.910156 132.304688 C 116.234375 121.164062 112.320312 125.652344 106.792969 127.816406 L 106.488281 127.945312 C 109.863281 120.628906 115.824219 110.761719 120.8125 106.25 C 127.359375 100.359375 130.761719 97.171875 139.484375 97.65625 C 140.941406 99.566406 141.785156 101.507812 141.070312 103.011719 C 150.8125 111.984375 162.324219 122.871094 170.6875 125.929688 C 184.910156 131.132812 221.792969 131.4375 231.691406 129.398438 C 241.566406 127.386719 242.867188 110.734375 242.867188 110.734375 C 242.867188 110.734375 248.164062 110.148438 249.46875 119.992188 C 250.773438 129.832031 245.121094 134.167969 243.660156 136.640625 C 242.203125 139.113281 243.816406 138.527344 249.46875 146.199219 C 253.996094 152.320312 253.6875 163.871094 252.894531 172.183594 C 252.027344 173.226562 251.054688 174.121094 249.929688 174.78125 C 241.589844 179.804688 236.578125 186.203125 236.910156 190.691406 C 236.960938 191.355469 236.910156 192.476562 236.78125 193.90625 C 231.078125 189.164062 227.753906 181.054688 225.859375 181.207031 C 225.78125 181.207031 225.757812 181.207031 225.757812 181.207031 C 225.730469 181.183594 219.464844 169.757812 215.679688 168.253906 C 205.703125 167.949219 190.230469 172.207031 183.324219 176.160156 C 178.71875 178.8125 172.195312 180.164062 166.59375 181.234375 C 158.4375 181.308594 153.140625 182.636719 153.140625 182.636719 C 153.140625 182.636719 149.40625 190.410156 143.960938 196.710938 C 142.859375 189.671875 141.476562 183.09375 140.914062 180.519531 Z M 140.914062 180.519531 " fill-opacity="1" fill-rule="evenodd"/><g fill="#ffffff" fill-opacity="1"><g transform="translate(145.972625, 327.445202)"><g><path d="M 6.578125 0 L 1.859375 0 L 1.859375 -15.296875 L 6.78125 -15.296875 C 8.257812 -15.296875 9.523438 -14.988281 10.578125 -14.375 C 11.640625 -13.769531 12.453125 -12.894531 13.015625 -11.75 C 13.578125 -10.613281 13.859375 -9.253906 13.859375 -7.671875 C 13.859375 -6.078125 13.570312 -4.707031 13 -3.5625 C 12.4375 -2.414062 11.613281 -1.535156 10.53125 -0.921875 C 9.445312 -0.304688 8.128906 0 6.578125 0 Z M 3.703125 -1.640625 L 6.453125 -1.640625 C 8.347656 -1.640625 9.753906 -2.175781 10.671875 -3.25 C 11.597656 -4.332031 12.0625 -5.804688 12.0625 -7.671875 C 12.0625 -9.523438 11.609375 -10.984375 10.703125 -12.046875 C 9.796875 -13.117188 8.445312 -13.65625 6.65625 -13.65625 L 3.703125 -13.65625 Z M 3.703125 -1.640625 "/></g></g></g><g fill="#ffffff" fill-opacity="1"><g transform="translate(168.719401, 327.445202)"><g><path d="M 14.75 -7.640625 C 14.75 -6.035156 14.457031 -4.644531 13.875 -3.46875 C 13.300781 -2.289062 12.503906 -1.382812 11.484375 -0.75 C 10.472656 -0.113281 9.3125 0.203125 8 0.203125 C 6.695312 0.203125 5.535156 -0.113281 4.515625 -0.75 C 3.503906 -1.382812 2.707031 -2.289062 2.125 -3.46875 C 1.539062 -4.644531 1.25 -6.035156 1.25 -7.640625 C 1.25 -9.253906 1.539062 -10.648438 2.125 -11.828125 C 2.707031 -13.003906 3.503906 -13.910156 4.515625 -14.546875 C 5.535156 -15.179688 6.695312 -15.5 8 -15.5 C 9.3125 -15.5 10.472656 -15.179688 11.484375 -14.546875 C 12.503906 -13.910156 13.300781 -13.003906 13.875 -11.828125 C 14.457031 -10.648438 14.75 -9.253906 14.75 -7.640625 Z M 12.96875 -7.640625 C 12.96875 -8.972656 12.742188 -10.09375 12.296875 -11 C 11.859375 -11.914062 11.265625 -12.601562 10.515625 -13.0625 C 9.765625 -13.53125 8.925781 -13.765625 8 -13.765625 C 7.070312 -13.765625 6.234375 -13.53125 5.484375 -13.0625 C 4.742188 -12.601562 4.148438 -11.914062 3.703125 -11 C 3.265625 -10.09375 3.046875 -8.972656 3.046875 -7.640625 C 3.046875 -6.316406 3.265625 -5.195312 3.703125 -4.28125 C 4.148438 -3.375 4.742188 -2.6875 5.484375 -2.21875 C 6.234375 -1.757812 7.070312 -1.53125 8 -1.53125 C 8.925781 -1.53125 9.765625 -1.757812 10.515625 -2.21875 C 11.265625 -2.6875 11.859375 -3.375 12.296875 -4.28125 C 12.742188 -5.195312 12.96875 -6.316406 12.96875 -7.640625 Z M 12.96875 -7.640625 "/></g></g></g><g fill="#ffffff" fill-opacity="1"><g transform="translate(192.362067, 327.445202)"><g><path d="M 12.3125 -10.515625 C 11.988281 -11.523438 11.457031 -12.316406 10.71875 -12.890625 C 9.976562 -13.472656 9.054688 -13.765625 7.953125 -13.765625 C 7.046875 -13.765625 6.21875 -13.53125 5.46875 -13.0625 C 4.726562 -12.601562 4.140625 -11.914062 3.703125 -11 C 3.265625 -10.09375 3.046875 -8.972656 3.046875 -7.640625 C 3.046875 -6.316406 3.265625 -5.195312 3.703125 -4.28125 C 4.148438 -3.375 4.75 -2.6875 5.5 -2.21875 C 6.257812 -1.757812 7.113281 -1.53125 8.0625 -1.53125 C 8.925781 -1.53125 9.691406 -1.710938 10.359375 -2.078125 C 11.023438 -2.441406 11.546875 -2.957031 11.921875 -3.625 C 12.296875 -4.289062 12.492188 -5.082031 12.515625 -6 L 8.484375 -6 L 8.484375 -7.640625 L 14.3125 -7.640625 L 14.3125 -6 C 14.3125 -4.738281 14.039062 -3.644531 13.5 -2.71875 C 12.96875 -1.789062 12.234375 -1.070312 11.296875 -0.5625 C 10.359375 -0.0507812 9.28125 0.203125 8.0625 0.203125 C 6.707031 0.203125 5.519531 -0.113281 4.5 -0.75 C 3.476562 -1.382812 2.679688 -2.289062 2.109375 -3.46875 C 1.535156 -4.644531 1.25 -6.035156 1.25 -7.640625 C 1.25 -9.253906 1.535156 -10.648438 2.109375 -11.828125 C 2.679688 -13.003906 3.46875 -13.910156 4.46875 -14.546875 C 5.476562 -15.179688 6.640625 -15.5 7.953125 -15.5 C 9.023438 -15.5 10 -15.289062 10.875 -14.875 C 11.75 -14.457031 12.476562 -13.875 13.0625 -13.125 C 13.644531 -12.375 14.03125 -11.503906 14.21875 -10.515625 Z M 12.3125 -10.515625 "/></g></g></g><g fill="#ffffff" fill-opacity="1"><g transform="translate(215.616511, 327.445202)"><g><path d="M 10.21875 -11.46875 C 10.125 -12.226562 9.757812 -12.816406 9.125 -13.234375 C 8.488281 -13.648438 7.707031 -13.859375 6.78125 -13.859375 C 5.757812 -13.859375 4.941406 -13.617188 4.328125 -13.140625 C 3.710938 -12.660156 3.40625 -12.054688 3.40625 -11.328125 C 3.40625 -10.773438 3.570312 -10.332031 3.90625 -10 C 4.238281 -9.664062 4.632812 -9.40625 5.09375 -9.21875 C 5.5625 -9.03125 5.984375 -8.882812 6.359375 -8.78125 L 7.921875 -8.359375 C 8.316406 -8.253906 8.757812 -8.109375 9.25 -7.921875 C 9.738281 -7.742188 10.207031 -7.492188 10.65625 -7.171875 C 11.113281 -6.859375 11.488281 -6.457031 11.78125 -5.96875 C 12.070312 -5.476562 12.21875 -4.875 12.21875 -4.15625 C 12.21875 -3.320312 12 -2.570312 11.5625 -1.90625 C 11.132812 -1.238281 10.507812 -0.707031 9.6875 -0.3125 C 8.863281 0.0703125 7.863281 0.265625 6.6875 0.265625 C 5.050781 0.265625 3.75 -0.117188 2.78125 -0.890625 C 1.8125 -1.671875 1.28125 -2.6875 1.1875 -3.9375 L 3.109375 -3.9375 C 3.160156 -3.363281 3.351562 -2.890625 3.6875 -2.515625 C 4.03125 -2.140625 4.460938 -1.859375 4.984375 -1.671875 C 5.515625 -1.492188 6.082031 -1.40625 6.6875 -1.40625 C 7.394531 -1.40625 8.03125 -1.519531 8.59375 -1.75 C 9.15625 -1.976562 9.597656 -2.300781 9.921875 -2.71875 C 10.253906 -3.132812 10.421875 -3.625 10.421875 -4.1875 C 10.421875 -4.6875 10.28125 -5.097656 10 -5.421875 C 9.71875 -5.742188 9.34375 -6.003906 8.875 -6.203125 C 8.414062 -6.398438 7.914062 -6.570312 7.375 -6.71875 L 5.5 -7.265625 C 4.300781 -7.609375 3.351562 -8.097656 2.65625 -8.734375 C 1.957031 -9.367188 1.609375 -10.203125 1.609375 -11.234375 C 1.609375 -12.085938 1.84375 -12.832031 2.3125 -13.46875 C 2.78125 -14.113281 3.40625 -14.613281 4.1875 -14.96875 C 4.976562 -15.320312 5.863281 -15.5 6.84375 -15.5 C 7.820312 -15.5 8.695312 -15.320312 9.46875 -14.96875 C 10.238281 -14.625 10.847656 -14.144531 11.296875 -13.53125 C 11.742188 -12.925781 11.984375 -12.238281 12.015625 -11.46875 Z M 10.21875 -11.46875 "/></g></g></g><path stroke-linecap="butt" transform="matrix(0.748464, 0, 0, 0.75, 57.934652, 318.065838)" fill="none" stroke-linejoin="miter" d="M -0.00141376 2.000758 L 99.217377 2.000758 " stroke="#ff6100" stroke-width="4" stroke-opacity="1" stroke-miterlimit="4"/><path stroke-linecap="butt" transform="matrix(0.748464, 0, 0, 0.75, 242.653889, 316.516561)" fill="none" stroke-linejoin="miter" d="M -0.00206505 1.998752 L 99.216725 1.998752 " stroke="#ff6100" stroke-width="4" stroke-opacity="1" stroke-miterlimit="4"/><g fill="#ff6100" fill-opacity="1"><g transform="translate(32.419045, 281.167717)"><g><path d="M 3.976562 0 L 10.277344 0 L 10.277344 -15.386719 L 33.769531 -15.386719 L 33.769531 0 L 40.121094 0 L 40.121094 -36.144531 L 33.769531 -36.144531 L 33.769531 -20.808594 L 10.277344 -20.808594 L 10.277344 -36.144531 L 3.976562 -36.144531 Z M 3.976562 0 "/></g></g></g><g fill="#ff6100" fill-opacity="1"><g transform="translate(76.461893, 281.167717)"><g><path d="M 43.839844 -18.074219 C 43.839844 -30.878906 32.839844 -37.128906 23.390625 -37.128906 C 13.992188 -37.128906 2.996094 -30.878906 2.996094 -18.074219 C 2.996094 -5.265625 13.992188 0.980469 23.390625 0.980469 C 32.839844 0.980469 43.839844 -5.265625 43.839844 -18.074219 Z M 37.386719 -18.074219 C 37.386719 -9.292969 29.847656 -4.957031 23.390625 -4.957031 C 16.988281 -4.957031 9.449219 -9.292969 9.449219 -18.074219 C 9.449219 -26.851562 16.988281 -31.1875 23.390625 -31.1875 C 29.847656 -31.1875 37.386719 -26.851562 37.386719 -18.074219 Z M 37.386719 -18.074219 "/></g></g></g><g fill="#ff6100" fill-opacity="1"><g transform="translate(123.29291, 281.167717)"><g><path d="M 3.460938 -14.304688 C 3.460938 -3.925781 12.339844 1.289062 21.222656 1.289062 C 30.105469 1.289062 38.984375 -3.925781 38.984375 -14.304688 L 38.984375 -36.144531 L 32.6875 -36.144531 L 32.6875 -14.304688 C 32.6875 -8.003906 26.953125 -4.90625 21.222656 -4.90625 C 15.492188 -4.90625 9.757812 -8.003906 9.757812 -14.304688 L 9.757812 -36.144531 L 3.460938 -36.144531 Z M 3.460938 -14.304688 "/></g></g></g><g fill="#ff6100" fill-opacity="1"><g transform="translate(165.735141, 281.167717)"><g><path d="M 37.695312 -31.859375 C 33.875 -35.0625 26.902344 -37.074219 20.34375 -37.074219 C 12.136719 -37.074219 4.542969 -33.925781 4.542969 -26.023438 C 4.542969 -11.722656 31.242188 -18.28125 31.242188 -9.8125 C 31.242188 -6.195312 26.695312 -4.648438 21.429688 -4.648438 C 15.75 -4.648438 9.242188 -6.453125 6.453125 -9.398438 L 2.890625 -4.492188 C 6.558594 -0.929688 13.941406 1.136719 20.964844 1.136719 C 29.691406 1.136719 38.003906 -2.117188 38.003906 -9.863281 C 38.003906 -24.371094 11.257812 -17.917969 11.257812 -25.921875 C 11.257812 -29.691406 15.492188 -31.292969 20.5 -31.292969 C 25.613281 -31.292969 31.5 -29.589844 34.289062 -26.953125 Z M 37.695312 -31.859375 "/></g></g></g><g fill="#ff6100" fill-opacity="1"><g transform="translate(206.680016, 281.167717)"><g><path d="M 10.277344 -5.421875 L 10.277344 -15.386719 L 32.375 -15.386719 L 32.375 -20.808594 L 10.277344 -20.808594 L 10.277344 -30.722656 L 35.886719 -30.722656 L 35.886719 -36.144531 L 3.976562 -36.144531 L 3.976562 0 L 36.199219 0 L 36.199219 -5.421875 Z M 10.277344 -5.421875 "/></g></g></g><g fill="#ff6100" fill-opacity="1"><g transform="translate(245.40468, 281.167717)"><g/></g></g><g fill="#ff6100" fill-opacity="1"><g transform="translate(257.951455, 281.167717)"><g><path d="M 43.839844 -18.074219 C 43.839844 -30.878906 32.839844 -37.128906 23.390625 -37.128906 C 13.992188 -37.128906 2.996094 -30.878906 2.996094 -18.074219 C 2.996094 -5.265625 13.992188 0.980469 23.390625 0.980469 C 32.839844 0.980469 43.839844 -5.265625 43.839844 -18.074219 Z M 37.386719 -18.074219 C 37.386719 -9.292969 29.847656 -4.957031 23.390625 -4.957031 C 16.988281 -4.957031 9.449219 -9.292969 9.449219 -18.074219 C 9.449219 -26.851562 16.988281 -31.1875 23.390625 -31.1875 C 29.847656 -31.1875 37.386719 -26.851562 37.386719 -18.074219 Z M 37.386719 -18.074219 "/></g></g></g><g fill="#ff6100" fill-opacity="1"><g transform="translate(304.782461, 281.167717)"><g><path d="M 3.976562 -36.144531 L 3.976562 0 L 10.277344 0 L 10.277344 -13.527344 L 32.324219 -13.527344 L 32.324219 -18.949219 L 10.277344 -18.949219 L 10.277344 -30.722656 L 35.785156 -30.722656 L 35.785156 -36.144531 Z M 3.976562 -36.144531 "/></g></g></g><path stroke-linecap="butt" transform="matrix(0.75, 0, 0, 0.75, 24.79014, 233.16772)" fill="none" stroke-linejoin="miter" d="M 15.467315 64.000336 L 23.873566 64.000336 L 23.873566 43.474293 L 55.201693 43.474293 L 55.201693 64.000336 L 63.675651 64.000336 L 63.675651 15.807625 L 55.201693 15.807625 L 55.201693 36.250334 L 23.873566 36.250334 L 23.873566 15.807625 L 15.467315 15.807625 Z M 127.342322 39.896168 C 127.342322 22.833667 112.680863 14.495124 100.076696 14.495124 C 87.555861 14.495124 72.894402 22.833667 72.894402 39.896168 C 72.894402 56.974294 87.555861 65.312836 100.076696 65.312836 C 112.680863 65.312836 127.342322 56.974294 127.342322 39.896168 Z M 118.732947 39.896168 C 118.732947 51.60971 108.680863 57.396169 100.076696 57.396169 C 91.555862 57.396169 81.503778 51.60971 81.503778 39.896168 C 81.503778 28.19825 91.555862 22.411792 100.076696 22.411792 C 108.680863 22.411792 118.732947 28.19825 118.732947 39.896168 Z M 135.941281 44.92221 C 135.941281 58.771169 147.795449 65.713878 159.628783 65.713878 C 171.477742 65.713878 183.311076 58.771169 183.311076 44.92221 L 183.311076 15.807625 L 174.92045 15.807625 L 174.92045 44.92221 C 174.92045 53.32846 167.274617 57.458669 159.628783 57.458669 C 151.993366 57.458669 144.347532 53.32846 144.347532 44.92221 L 144.347532 15.807625 L 135.941281 15.807625 Z M 238.18608 21.521167 C 233.092329 17.255541 223.795454 14.562833 215.05587 14.562833 C 204.113161 14.562833 193.977743 18.765958 193.977743 29.307625 C 193.977743 48.370127 229.581912 39.625334 229.581912 50.92221 C 229.581912 55.729502 223.529829 57.797211 216.503787 57.797211 C 208.920453 57.797211 200.248577 55.396169 196.535035 51.479502 L 191.774618 58.015961 C 196.665244 62.755544 206.519411 65.510753 215.878786 65.510753 C 227.514204 65.510753 238.607955 61.177419 238.607955 50.854502 C 238.607955 31.505542 202.936077 40.114918 202.936077 29.443042 C 202.936077 24.417 208.587119 22.281583 215.258995 22.281583 C 222.081912 22.281583 229.930871 24.547208 233.649621 28.062834 Z M 256.217331 56.771169 L 256.217331 43.474293 L 285.686083 43.474293 L 285.686083 36.250334 L 256.217331 36.250334 L 256.217331 23.036792 L 290.373583 23.036792 L 290.373583 15.807625 L 247.816289 15.807625 L 247.816289 64.000336 L 290.779833 64.000336 L 290.779833 56.771169 Z M 369.326713 39.896168 C 369.326713 22.833667 354.670462 14.495124 342.061086 14.495124 C 329.540252 14.495124 314.884001 22.833667 314.884001 39.896168 C 314.884001 56.974294 329.540252 65.312836 342.061086 65.312836 C 354.670462 65.312836 369.326713 56.974294 369.326713 39.896168 Z M 360.722546 39.896168 C 360.722546 51.60971 350.670462 57.396169 342.061086 57.396169 C 333.540253 57.396169 323.488169 51.60971 323.488169 39.896168 C 323.488169 28.19825 333.540253 22.411792 342.061086 22.411792 C 350.670462 22.411792 360.722546 28.19825 360.722546 39.896168 Z M 378.618381 15.807625 L 378.618381 64.000336 L 387.024631 64.000336 L 387.024631 45.963877 L 416.420466 45.963877 L 416.420466 38.734709 L 387.024631 38.734709 L 387.024631 23.036792 L 421.045467 23.036792 L 421.045467 15.807625 Z M 378.618381 15.807625 " stroke="#ffffff" stroke-width="2.151772" stroke-opacity="1" stroke-miterlimit="4"/><g clip-path="url(#6ac2904681)"><path fill="#ffffff" d="M 91.398438 263.933594 C 91.617188 264.03125 91.847656 264.097656 92.089844 264.113281 C 93.296875 264.195312 94.132812 263.050781 94.117188 261.9375 C 94.109375 261.183594 93.949219 260.445312 93.449219 259.855469 C 92.691406 258.96875 91.488281 258.59375 90.550781 259.449219 C 89.222656 260.65625 89.847656 263.210938 91.398438 263.933594 Z M 91.398438 263.933594 " fill-opacity="1" fill-rule="nonzero"/></g><path fill="#ffffff" d="M 94.71875 259.136719 C 95.878906 260.542969 98.082031 260.328125 98.753906 258.59375 C 99.292969 257.152344 99.277344 255.226562 98.285156 253.988281 C 97.542969 253.140625 96.191406 252.890625 95.191406 253.414062 C 93.1875 254.460938 93.425781 257.65625 94.71875 259.136719 Z M 94.71875 259.136719 " fill-opacity="1" fill-rule="nonzero"/><path fill="#ffffff" d="M 100.089844 258.085938 C 100.28125 259.203125 100.921875 260.148438 102.152344 260.378906 C 105.132812 260.945312 106.46875 256.199219 104.640625 254.394531 C 103.773438 253.539062 102.222656 253.21875 101.25 254.121094 C 100.226562 255.070312 99.867188 256.757812 100.089844 258.085938 Z M 100.089844 258.085938 " fill-opacity="1" fill-rule="nonzero"/><path fill="#ffffff" d="M 106.050781 264.101562 C 108.175781 265.390625 110.214844 262.539062 109.386719 260.625 C 108.863281 259.417969 107.554688 258.761719 106.425781 259.632812 C 105.65625 260.226562 105.148438 261.269531 105.109375 262.230469 C 105.070312 263.09375 105.46875 263.746094 106.050781 264.101562 Z M 106.050781 264.101562 " fill-opacity="1" fill-rule="nonzero"/><path fill="#ffffff" d="M 104.980469 264.492188 C 103.429688 262.53125 100.886719 261.25 98.347656 261.695312 C 95.121094 262.316406 92.597656 265.632812 92.210938 268.765625 C 92.050781 270.515625 93.40625 271.90625 95.054688 272.339844 C 97.863281 273.140625 102.554688 272.992188 105.210938 271.773438 C 108.136719 270.171875 106.539062 266.464844 104.980469 264.492188 Z M 104.253906 267.199219 C 104.050781 268.027344 103.394531 268.683594 102.726562 269.183594 C 102 269.722656 101.183594 270.152344 100.511719 270.761719 C 100.144531 271.09375 99.816406 271.496094 99.609375 271.945312 C 98.589844 270.753906 96.941406 270.246094 95.828125 269.136719 C 95.277344 268.59375 94.871094 267.894531 94.746094 267.132812 C 94.542969 265.84375 95.308594 264.347656 96.734375 264.226562 C 97.375 264.171875 98.023438 264.40625 98.515625 264.8125 C 98.914062 265.140625 99.210938 265.570312 99.410156 266.042969 C 99.46875 265.933594 99.527344 265.824219 99.59375 265.71875 C 99.972656 265.121094 100.507812 264.597656 101.175781 264.367188 C 102.011719 264.074219 103.003906 264.296875 103.632812 264.914062 C 104.238281 265.503906 104.453125 266.394531 104.253906 267.199219 Z M 104.253906 267.199219 " fill-opacity="1" fill-rule="nonzero"/><g clip-path="url(#c4c135e79a)"><path fill="#ffffff" d="M 273.449219 263.933594 C 273.664062 264.03125 273.898438 264.097656 274.136719 264.113281 C 275.34375 264.195312 276.183594 263.050781 276.167969 261.9375 C 276.15625 261.183594 275.996094 260.445312 275.496094 259.855469 C 274.742188 258.96875 273.539062 258.59375 272.597656 259.449219 C 271.273438 260.65625 271.894531 263.210938 273.449219 263.933594 Z M 273.449219 263.933594 " fill-opacity="1" fill-rule="nonzero"/></g><path fill="#ffffff" d="M 276.765625 259.136719 C 277.925781 260.542969 280.128906 260.328125 280.800781 258.59375 C 281.34375 257.152344 281.324219 255.226562 280.335938 253.988281 C 279.59375 253.140625 278.242188 252.890625 277.238281 253.414062 C 275.234375 254.460938 275.476562 257.65625 276.765625 259.136719 Z M 276.765625 259.136719 " fill-opacity="1" fill-rule="nonzero"/><path fill="#ffffff" d="M 282.140625 258.085938 C 282.328125 259.203125 282.972656 260.148438 284.199219 260.378906 C 287.183594 260.945312 288.519531 256.199219 286.6875 254.394531 C 285.820312 253.539062 284.269531 253.21875 283.296875 254.121094 C 282.277344 255.070312 281.914062 256.757812 282.140625 258.085938 Z M 282.140625 258.085938 " fill-opacity="1" fill-rule="nonzero"/><path fill="#ffffff" d="M 288.101562 264.101562 C 290.222656 265.390625 292.265625 262.539062 291.433594 260.625 C 290.910156 259.417969 289.605469 258.761719 288.476562 259.632812 C 287.703125 260.226562 287.199219 261.269531 287.15625 262.230469 C 287.117188 263.09375 287.515625 263.746094 288.101562 264.101562 Z M 288.101562 264.101562 " fill-opacity="1" fill-rule="nonzero"/><path fill="#ffffff" d="M 287.027344 264.492188 C 285.480469 262.53125 282.933594 261.25 280.394531 261.695312 C 277.167969 262.316406 274.648438 265.632812 274.257812 268.765625 C 274.101562 270.515625 275.453125 271.90625 277.101562 272.339844 C 279.910156 273.140625 284.601562 272.992188 287.261719 271.773438 C 290.183594 270.171875 288.589844 266.464844 287.027344 264.492188 Z M 286.300781 267.199219 C 286.097656 268.027344 285.441406 268.683594 284.773438 269.183594 C 284.046875 269.722656 283.230469 270.152344 282.558594 270.761719 C 282.191406 271.09375 281.863281 271.496094 281.660156 271.945312 C 280.640625 270.753906 278.992188 270.246094 277.875 269.136719 C 277.324219 268.59375 276.917969 267.894531 276.796875 267.132812 C 276.59375 265.84375 277.355469 264.347656 278.78125 264.226562 C 279.421875 264.171875 280.070312 264.40625 280.566406 264.8125 C 280.960938 265.140625 281.257812 265.570312 281.457031 266.042969 C 281.515625 265.933594 281.578125 265.824219 281.644531 265.71875 C 282.019531 265.121094 282.554688 264.597656 283.226562 264.367188 C 284.058594 264.074219 285.050781 264.296875 285.679688 264.914062 C 286.285156 265.503906 286.503906 266.394531 286.300781 267.199219 Z M 286.300781 267.199219 " fill-opacity="1" fill-rule="nonzero"/></svg>