<?xml version="1.0" standalone="no"?>
<!DOCTYPE svg PUBLIC "-//W3C//DTD SVG 20010904//EN"
 "http://www.w3.org/TR/2001/REC-SVG-20010904/DTD/svg10.dtd">
<svg version="1.0" xmlns="http://www.w3.org/2000/svg"
 width="512.000000pt" height="512.000000pt" viewBox="0 0 512.000000 512.000000"
 preserveAspectRatio="xMidYMid meet">
 <defs>
  <linearGradient id="MainGradient">
    <stop offset="0%" stop-color="rgb(239,101,249)" />
    <stop offset="33%" stop-color="rgb(138,56,239)" />
    <stop offset="66%" stop-color="rgb(21,18,226)" />
  </linearGradient>
</defs>
<g transform="translate(0.000000,512.000000) scale(0.100000,-0.100000)"
fill="url(#MainGradient)" stroke="none">
<path d="M1130 5114 c-245 -30 -333 -69 -366 -163 -13 -36 -27 -53 -55 -69
-52 -30 -86 -91 -100 -182 -21 -133 1 -272 51 -325 15 -16 21 -47 29 -156 23
-279 102 -461 241 -552 54 -35 56 -39 37 -111 l-13 -49 -259 -72 c-211 -60
-263 -78 -281 -98 -23 -26 -23 -37 -40 -534 l-7 -193 59 0 c108 0 100 -14 108
193 3 100 9 237 13 304 l6 121 181 51 c100 28 186 51 193 51 19 0 55 -303 69
-572 l7 -138 57 0 c47 0 60 4 80 25 22 23 23 28 16 132 -11 177 -36 425 -50
509 -13 72 -12 87 7 185 l21 107 132 0 132 -1 20 -103 c21 -102 21 -103 2
-196 -16 -81 -35 -226 -55 -436 -3 -30 -2 -52 2 -50 5 2 42 16 84 33 l75 29
17 151 c22 197 46 325 61 325 16 0 368 -98 374 -104 2 -3 7 -33 9 -68 l5 -64
-103 -29 c-121 -34 -149 -55 -149 -112 l0 -39 128 33 c97 25 149 32 222 33 52
0 116 7 142 14 49 15 58 13 58 -14 0 -13 18 -21 82 -34 45 -9 84 -14 86 -11 3
2 0 28 -6 58 -9 44 -7 69 11 156 l22 103 130 0 129 1 20 -94 c10 -52 20 -95
21 -97 2 -2 32 3 68 9 56 10 79 10 152 -5 106 -20 268 -74 385 -127 48 -21 90
-39 94 -39 3 0 6 20 6 45 0 66 -24 85 -148 120 l-102 28 0 56 c0 31 4 62 8 69
8 11 345 112 376 112 21 0 76 -360 76 -494 0 -50 -3 -47 124 -120 l49 -29 -7
109 c-10 158 -34 364 -56 479 l-20 99 22 102 21 102 131 -2 130 -1 22 -108
c15 -78 19 -119 13 -146 -5 -21 -15 -94 -23 -162 -13 -109 -20 -199 -41 -506
l-5 -73 80 0 79 0 5 43 c3 23 8 96 11 162 10 204 47 530 61 544 3 4 375 -96
380 -102 3 -3 24 -525 24 -583 l0 -51 63 -6 c34 -3 71 -9 81 -13 18 -7 19 0
11 222 -15 479 -18 522 -42 545 -14 15 -99 43 -279 94 l-259 72 -12 44 c-20
75 -17 84 37 124 133 98 227 331 230 570 1 45 4 52 33 70 49 31 59 75 46 198
-13 121 -49 250 -91 328 -62 118 -190 214 -338 255 -50 14 -101 18 -220 18
-307 0 -464 -52 -500 -167 -11 -33 -22 -50 -41 -58 -63 -25 -105 -99 -115
-197 -5 -51 -2 -65 30 -133 67 -144 102 -326 93 -488 -4 -85 -2 -104 20 -161
13 -35 37 -86 54 -111 34 -54 116 -133 154 -151 19 -9 25 -17 21 -32 -3 -12
-8 -40 -12 -64 -6 -41 -8 -43 -58 -57 -28 -8 -148 -41 -266 -74 -152 -43 -220
-66 -231 -81 -11 -13 -19 -50 -24 -110 -6 -77 -10 -90 -24 -86 -9 3 -44 12
-78 21 l-61 17 -12 65 c-12 61 -11 66 6 76 44 24 134 122 163 177 60 113 101
278 101 412 0 53 2 57 34 76 51 30 60 70 46 198 -13 120 -49 256 -88 329 -42
79 -139 170 -224 210 -99 47 -189 65 -335 65 -296 0 -471 -59 -505 -171 -7
-26 -21 -45 -38 -54 -41 -21 -88 -80 -102 -127 -17 -59 -17 -272 0 -321 8 -21
24 -50 36 -65 20 -23 24 -46 34 -162 23 -280 97 -449 238 -546 43 -30 54 -42
50 -59 -3 -11 -8 -39 -12 -61 l-6 -41 -76 -21 c-42 -12 -77 -20 -79 -18 -1 1
-6 42 -9 91 -6 75 -11 93 -29 109 -14 12 -105 43 -231 78 -115 32 -232 65
-260 73 l-50 15 -12 62 c-12 63 -12 63 16 83 101 74 166 168 209 304 24 76 25
89 15 145 -21 111 -23 160 -13 258 11 103 37 183 77 235 31 40 30 55 -5 152
-68 186 -188 297 -376 347 -59 15 -282 27 -355 18z m285 -169 c181 -38 280
-141 320 -332 17 -80 19 -106 6 -101 -6 2 -50 38 -100 81 -109 94 -143 111
-188 92 -34 -15 -53 -41 -53 -75 0 -19 -4 -21 -27 -15 -55 13 -116 48 -171
100 -69 63 -90 75 -134 75 -46 0 -68 -18 -131 -107 -30 -43 -78 -100 -108
-128 l-54 -50 -9 52 c-10 61 0 174 19 199 12 17 17 17 63 5 43 -11 55 -10 80
3 50 26 57 77 17 124 -14 17 -25 32 -25 36 0 10 103 36 180 45 118 13 239 12
315 -4z m2698 0 c83 -17 177 -66 219 -114 45 -51 86 -146 104 -240 9 -46 14
-84 12 -86 -2 -2 -48 35 -103 82 -112 96 -151 118 -189 104 -30 -12 -56 -48
-56 -78 0 -15 -6 -23 -17 -23 -37 0 -126 51 -181 103 -68 65 -90 77 -135 77
-45 0 -74 -24 -140 -118 -30 -43 -77 -98 -103 -121 -61 -54 -68 -44 -62 90 5
126 14 139 87 120 55 -14 79 -7 105 31 22 31 20 49 -9 92 -14 20 -25 39 -25
41 0 9 106 35 175 44 109 13 244 12 318 -4z m-1330 -330 c169 -44 264 -149
303 -336 23 -110 19 -112 -66 -38 -106 92 -159 129 -187 129 -33 0 -83 -51
-83 -85 0 -23 -3 -25 -22 -20 -64 19 -130 57 -184 108 -69 64 -101 79 -145 70
-35 -7 -57 -28 -139 -139 -59 -81 -125 -142 -138 -129 -10 9 -9 184 1 218 l8
29 73 -7 c71 -7 73 -6 94 20 29 36 28 67 -4 104 -14 17 -23 35 -20 39 26 43
387 69 509 37z m-1649 -74 c134 -104 300 -143 388 -93 26 15 28 14 93 -43 l66
-59 -6 -90 c-16 -218 -63 -354 -152 -437 -67 -63 -127 -82 -263 -82 -132 0
-191 18 -258 78 -89 80 -137 210 -151 408 l-8 112 31 25 c68 55 123 111 161
164 22 31 42 56 44 56 2 0 27 -18 55 -39z m2710 -10 c104 -79 246 -122 328
-100 24 6 49 16 56 21 13 11 12 12 96 -57 l49 -40 -6 -120 c-12 -242 -82 -396
-209 -461 -96 -49 -287 -52 -391 -6 -119 53 -192 191 -217 412 -18 156 -17
159 51 209 33 24 86 77 117 117 31 41 58 74 59 74 1 0 31 -22 67 -49z m-1388
-293 c34 -38 136 -98 202 -118 81 -25 157 -26 203 -2 l36 18 34 -30 c19 -17
47 -40 63 -52 28 -20 28 -22 27 -115 -4 -251 -83 -429 -219 -496 -54 -26 -64
-28 -192 -28 -127 0 -138 2 -192 28 -132 65 -196 195 -219 452 l-11 119 23 15
c43 28 164 149 189 190 14 22 28 41 31 41 3 0 14 -10 25 -22z"/>
<path d="M2850 2906 c-72 -26 -214 -88 -279 -121 l-68 -34 -74 19 c-41 11
-121 27 -179 36 -155 24 -237 16 -475 -49 -311 -86 -383 -118 -526 -232 l-76
-62 -426 -5 c-378 -5 -430 -8 -453 -23 -55 -36 -54 -25 -54 -792 0 -680 1
-709 19 -739 33 -55 55 -57 458 -52 327 4 364 3 359 -11 -2 -9 -12 -36 -21
-61 -45 -121 48 -286 191 -340 30 -11 66 -20 80 -20 25 0 41 -14 98 -85 60
-74 191 -114 270 -81 37 15 39 15 57 -7 10 -12 18 -25 19 -29 1 -19 101 -81
161 -99 62 -19 72 -19 124 -6 l56 14 37 -37 c42 -42 125 -77 206 -86 87 -10
119 1 186 63 l60 55 78 -7 c42 -5 93 -7 112 -6 37 3 114 33 140 55 8 7 42 16
76 19 74 6 131 34 175 85 32 37 37 39 104 44 86 6 156 36 204 86 28 29 51 42
101 56 123 33 191 90 230 193 17 46 36 71 93 125 l72 67 400 -6 c278 -4 408
-2 427 6 16 6 37 25 48 43 19 32 20 51 20 746 0 640 -2 717 -16 741 -33 56
-26 55 -460 52 l-400 -3 -95 60 c-326 205 -653 361 -877 418 -107 27 -132 29
-182 10z m245 -198 c191 -62 470 -204 745 -377 l105 -66 228 -3 227 -3 0 -326
0 -325 43 6 c23 3 59 2 80 -3 l37 -9 0 328 0 328 76 4 c42 2 78 1 80 -1 2 -2
4 -289 4 -638 l0 -633 -80 0 -80 0 0 78 0 77 -77 0 -78 0 -5 -75 -5 -75 -226
4 c-244 4 -248 3 -306 -52 -30 -28 -33 -29 -33 -10 0 60 -21 491 -25 509 -6
27 -110 141 -343 377 -164 165 -190 187 -218 187 -41 0 -72 -26 -80 -67 -7
-37 -25 -15 304 -356 118 -123 182 -197 182 -211 0 -11 7 -162 15 -334 14
-328 13 -346 -27 -389 -20 -21 -75 -49 -82 -42 -2 2 -14 141 -25 308 -12 167
-27 313 -33 325 -16 29 -212 229 -390 397 -157 149 -173 157 -222 118 -20 -15
-26 -29 -26 -57 0 -35 14 -51 246 -283 l246 -246 22 -314 c18 -244 20 -318 11
-334 -16 -27 -73 -55 -112 -55 -29 0 -33 3 -33 28 0 80 -22 361 -35 436 -10
64 -21 97 -40 121 -14 19 -113 124 -221 234 -208 213 -231 229 -280 196 -53
-35 -51 -101 5 -147 20 -16 21 -19 6 -14 -112 40 -223 23 -298 -47 l-27 -26
-45 33 c-68 52 -122 69 -207 64 -117 -6 -126 -13 -335 -237 l-50 -55 -39 38
c-54 53 -89 68 -164 74 -73 5 -89 -3 -205 -102 l-60 -51 -262 3 -263 2 0 328
0 327 -80 0 -80 1 0 -333 0 -333 -80 0 -80 0 0 640 0 640 80 0 80 0 0 -72 0
-73 80 0 80 0 0 73 c0 39 1 73 3 73 1 1 120 4 263 8 l262 6 58 56 c127 119
202 156 484 234 231 64 322 75 435 53 l70 -14 -82 -48 c-45 -26 -89 -56 -97
-65 -22 -24 -192 -506 -222 -626 -32 -134 -32 -179 5 -237 34 -53 93 -86 177
-97 212 -29 442 146 628 477 l56 99 123 -30 c138 -34 169 -32 192 13 20 39 19
54 -7 85 -19 21 -51 33 -178 65 -85 22 -165 40 -176 40 -37 0 -71 -37 -112
-123 -107 -220 -268 -404 -399 -456 -39 -16 -125 -16 -153 -1 -25 13 -25 24
-1 125 16 66 183 550 193 560 4 5 464 258 518 285 67 35 151 59 185 53 17 -3
84 -23 150 -45z m-908 -1538 c66 -40 74 -26 -219 -395 -282 -356 -309 -383
-368 -370 -35 8 -93 71 -87 94 2 9 62 99 133 200 125 179 344 437 402 473 36
24 99 23 139 -2z m430 1 c75 -35 89 -88 43 -168 -29 -49 -551 -693 -575 -709
-75 -49 -169 -23 -211 58 -14 28 -13 30 301 422 355 443 350 438 442 397z
m427 -245 c13 -70 25 -220 31 -371 6 -170 4 -179 -42 -203 -41 -22 -43 -16
-43 96 0 99 3 111 30 166 72 142 9 323 -134 382 l-42 17 1 75 0 75 97 -103
c66 -70 98 -112 102 -134z m-1496 68 c28 -19 55 -71 46 -87 -4 -7 -57 -83
-117 -169 -118 -169 -125 -175 -185 -144 -70 36 -103 107 -74 161 23 43 261
255 287 255 11 0 31 -7 43 -16z m1282 -149 c57 -30 77 -112 41 -170 -22 -37
-302 -355 -395 -449 -68 -68 -68 -68 -112 -62 -51 7 -103 31 -110 51 -3 7 102
147 248 329 270 336 266 333 328 301z m-16 -562 c-10 -7 -31 -13 -46 -13 l-29
0 43 50 43 50 3 -37 c3 -27 -2 -41 -14 -50z"/>
<path d="M602 1983 c-15 -6 -42 -56 -42 -78 0 -26 55 -75 85 -75 38 0 75 41
75 84 0 55 -63 92 -118 69z"/>
<path d="M4445 1451 c-36 -15 -50 -42 -46 -93 2 -30 38 -58 76 -58 45 0 75 29
75 74 0 58 -54 98 -105 77z"/>
</g>
</svg>
