<?xml version="1.0" standalone="no"?>
<!DOCTYPE svg PUBLIC "-//W3C//DTD SVG 20010904//EN"
 "http://www.w3.org/TR/2001/REC-SVG-20010904/DTD/svg10.dtd">
<svg version="1.0" xmlns="http://www.w3.org/2000/svg"
 width="512.000000pt" height="512.000000pt" viewBox="0 0 512.000000 512.000000"
 preserveAspectRatio="xMidYMid meet">
<defs>
  <linearGradient id="GradientDiff" gradientTransform="rotate(0)">
    <stop offset="0%" stop-color="#AD48F2" />
    <stop offset="70%" stop-color="#6B2AEA" />
  </linearGradient>
</defs>
<g transform="translate(0.000000,512.000000) scale(0.100000,-0.100000)"
fill="url(#GradientDiff)" stroke="none">
<path d="M1555 5106 c-111 -35 -190 -104 -239 -206 l-31 -65 0 -570 0 -570 33
-67 c41 -83 119 -158 200 -189 54 -22 73 -23 352 -27 l295 -4 140 -186 c77
-103 155 -197 174 -209 43 -29 113 -31 158 -4 17 11 106 105 198 209 l166 190
272 4 c255 4 276 5 329 27 81 31 159 106 200 189 l33 67 0 570 0 570 -31 65
c-40 84 -100 144 -182 183 l-67 32 -980 2 c-772 1 -988 -1 -1020 -11z"/>
<path d="M301 4899 c-109 -21 -212 -102 -263 -207 l-33 -67 0 -570 0 -570 28
-61 c61 -132 184 -213 336 -222 l86 -5 130 -174 c149 -200 186 -238 242 -248
78 -13 105 8 294 222 l173 196 -25 16 c-13 9 -53 43 -88 76 -111 104 -189 249
-211 391 -13 81 -9 1176 4 1212 l8 22 -318 -1 c-176 -1 -339 -5 -363 -10z"/>
<path d="M4147 4873 c4 -21 8 -301 8 -623 0 -658 3 -628 -78 -785 -30 -58 -63
-102 -122 -161 -44 -44 -91 -87 -104 -95 l-25 -16 173 -196 c189 -214 216
-235 293 -222 57 10 91 45 238 244 l132 178 88 5 c66 4 102 12 146 32 77 35
155 113 191 190 l28 61 0 570 0 570 -33 67 c-40 83 -119 158 -200 190 -55 22
-70 23 -400 26 l-343 3 8 -38z"/>
<path d="M2465 2659 c-362 -55 -605 -405 -530 -764 49 -233 245 -435 475 -489
36 -9 103 -16 150 -16 179 0 318 58 446 185 161 159 223 363 178 583 -66 327
-389 552 -719 501z"/>
<path d="M764 2335 c-82 -18 -137 -47 -201 -107 -90 -86 -133 -185 -133 -308
0 -124 43 -222 135 -309 168 -159 422 -155 588 10 168 168 168 430 0 598 -65
64 -139 104 -227 120 -72 13 -84 13 -162 -4z"/>
<path d="M4180 2336 c-84 -18 -149 -54 -213 -117 -168 -167 -168 -430 0 -598
166 -165 420 -169 588 -10 92 87 135 185 135 309 0 123 -43 222 -133 308 -65
61 -119 89 -206 108 -78 16 -98 16 -171 0z"/>
<path d="M442 1260 c-106 -28 -187 -75 -268 -155 -125 -124 -179 -271 -172
-469 3 -116 14 -140 78 -183 l33 -23 478 0 479 0 0 75 c0 220 98 444 267 612
l82 82 -55 26 c-103 49 -161 55 -519 54 -292 0 -338 -2 -403 -19z"/>
<path d="M3874 1265 c-34 -7 -87 -25 -117 -40 l-56 -26 82 -82 c169 -168 267
-392 267 -612 l0 -75 479 0 478 0 33 22 c64 44 75 68 78 184 7 197 -47 343
-172 469 -82 82 -161 127 -272 155 -70 18 -110 20 -408 19 -236 0 -349 -4
-392 -14z"/>
<path d="M1886 1060 c-73 -13 -144 -38 -206 -73 -79 -44 -179 -149 -222 -232
-60 -116 -68 -164 -68 -417 0 -217 1 -226 23 -258 12 -18 35 -43 50 -54 28
-21 28 -21 1097 -21 1069 0 1069 0 1097 21 15 11 38 36 51 54 21 32 22 41 22
258 0 253 -8 301 -68 417 -48 92 -156 201 -243 244 -137 67 -107 65 -829 67
-360 1 -677 -2 -704 -6z"/>
</g>
</svg>
