<?xml version="1.0" standalone="no"?>
<!DOCTYPE svg PUBLIC "-//W3C//DTD SVG 20010904//EN"
 "http://www.w3.org/TR/2001/REC-SVG-20010904/DTD/svg10.dtd">
<svg version="1.0" xmlns="http://www.w3.org/2000/svg"
 width="512.000000pt" height="512.000000pt" viewBox="0 0 512.000000 512.000000"
 preserveAspectRatio="xMidYMid meet">
<defs>
  <linearGradient id="MainGradient">
    <stop offset="0%" stop-color="rgb(239,101,249)" />
    <stop offset="33%" stop-color="rgb(138,56,239)" />
    <stop offset="66%" stop-color="rgb(21,18,226)" />
  </linearGradient>
</defs>
<g transform="translate(0.000000,512.000000) scale(0.100000,-0.100000)"
fill="url(#MainGradient)">
<path d="M3370 4980 c-17 -32 -8 -121 13 -134 12 -8 22 -8 35 0 21 14 30 118
11 140 -17 20 -47 17 -59 -6z"/>
<path d="M458 4821 c-41 -28 -94 -68 -119 -89 -41 -37 -44 -43 -44 -91 0 -44
4 -55 33 -83 l32 -33 286 -3 285 -3 35 35 c26 26 34 42 34 69 0 70 -88 136
-180 137 -45 0 -110 30 -110 49 0 21 -86 61 -133 61 -38 0 -58 -8 -119 -49z
m196 -71 c52 -48 101 -70 158 -70 52 0 111 -32 106 -58 -3 -15 -26 -17 -262
-20 -187 -2 -262 1 -273 9 -28 24 -8 52 80 115 108 78 130 81 191 24z"/>
<path d="M3062 4858 c-22 -22 -13 -45 33 -87 39 -36 48 -40 66 -31 36 20 34
39 -12 86 -44 45 -66 53 -87 32z"/>
<path d="M3657 4832 c-41 -42 -47 -76 -17 -92 17 -9 27 -4 65 31 46 42 55 65
33 87 -20 20 -43 13 -81 -26z"/>
<path d="M1563 4830 c-13 -5 -63 -39 -113 -76 -119 -87 -139 -126 -104 -200
29 -62 42 -64 344 -64 294 0 315 3 338 55 23 50 15 85 -28 126 -43 41 -91 59
-158 59 -37 0 -49 6 -90 44 -68 63 -127 81 -189 56z m135 -114 c55 -52 87 -66
145 -66 52 0 112 -30 112 -56 0 -18 -13 -19 -261 -22 -220 -2 -263 0 -273 12
-21 26 -4 49 86 114 108 77 126 78 191 18z"/>
<path d="M4267 4825 c-15 -8 -66 -42 -114 -76 -60 -44 -90 -72 -100 -97 -21
-50 -10 -94 33 -131 l35 -31 285 0 286 0 29 29 c23 23 29 38 29 72 0 36 -6 47
-40 80 -43 41 -91 59 -158 59 -37 0 -49 6 -90 44 -71 67 -134 83 -195 51z
m141 -109 c55 -52 87 -66 145 -66 52 0 112 -30 112 -56 0 -18 -13 -19 -261
-22 -220 -2 -263 0 -273 12 -21 26 -3 49 87 114 107 77 125 78 190 18z"/>
<path d="M3310 4739 c-96 -43 -144 -117 -144 -219 0 -102 48 -176 144 -219
152 -69 330 49 330 219 0 170 -178 288 -330 219z m178 -86 c47 -34 72 -81 72
-133 0 -120 -132 -197 -235 -138 -43 25 -85 93 -85 138 0 45 42 113 85 138 49
28 122 26 163 -5z"/>
<path d="M2930 4540 c-8 -14 -8 -26 0 -40 10 -18 19 -21 72 -18 45 2 64 8 72
21 21 33 -4 52 -72 55 -53 3 -62 0 -72 -18z"/>
<path d="M3730 4540 c-8 -14 -8 -26 0 -40 10 -18 19 -21 72 -18 45 2 64 8 72
21 21 33 -4 52 -72 55 -53 3 -62 0 -72 -18z"/>
<path d="M2480 4498 c-22 -8 -76 -52 -141 -115 l-106 -103 -289 0 c-212 0
-293 -3 -302 -12 -8 -8 -12 -50 -12 -124 l0 -111 -49 -6 c-83 -10 -119 -37
-287 -215 l-159 -170 -137 -1 c-125 -1 -138 -3 -148 -20 -5 -11 -10 -80 -10
-154 l0 -135 -308 -326 -307 -326 -83 0 c-110 0 -109 1 -94 -208 28 -364 107
-663 261 -977 203 -414 496 -747 876 -994 134 -88 353 -196 495 -246 130 -45
309 -89 455 -112 154 -24 506 -24 665 1 577 89 1091 345 1514 756 353 343 610
789 711 1238 46 205 70 503 43 530 -9 9 -96 12 -330 12 l-318 0 -68 71 c-37
39 -68 75 -70 79 -2 4 36 9 83 12 74 4 91 8 127 34 51 36 88 102 88 160 0 24
-15 81 -36 135 -40 104 -63 213 -64 304 -1 73 -24 128 -75 178 -113 110 -303
76 -377 -68 -15 -28 -23 -71 -29 -150 -5 -69 -17 -139 -32 -185 l-24 -75 -12
30 c-24 59 -41 141 -50 246 -10 117 -23 150 -77 203 -72 70 -188 83 -279 32
l-44 -24 -109 111 c-60 62 -232 240 -381 397 -150 157 -290 296 -312 309 -46
27 -144 37 -199 19z m143 -82 c27 -11 284 -272 764 -776 l42 -45 -14 -40 c-8
-22 -14 -68 -15 -103 0 -69 -23 -193 -45 -244 l-13 -33 -12 30 c-25 66 -41
145 -46 235 -7 111 -26 162 -79 213 -113 110 -303 76 -377 -68 -15 -28 -23
-71 -29 -150 -8 -109 -25 -175 -80 -318 -20 -52 -21 -65 -12 -110 l11 -52 -64
69 -64 68 0 582 c0 439 -3 585 -12 594 -8 8 -50 12 -122 12 l-110 0 59 61 c86
87 142 107 218 75z m-113 -976 l0 -760 -275 0 -275 0 0 120 0 120 223 0 c160
0 226 3 235 12 16 16 16 200 0 216 -9 9 -78 12 -248 12 l-236 0 -39 40 -39 40
275 0 c201 0 278 3 287 12 16 16 16 200 0 216 -17 17 -599 17 -616 0 -7 -7
-12 -42 -12 -87 l0 -75 -40 39 -40 39 0 408 0 408 400 0 400 0 0 -760z m-880
217 l0 -293 -75 -74 -75 -74 0 201 c0 153 -3 203 -13 211 -7 6 -60 13 -118 14
l-104 3 128 135 c127 135 174 169 230 170 l27 0 0 -293z m1498 -44 c54 -40 68
-74 76 -180 8 -119 26 -201 66 -295 34 -80 37 -118 13 -159 -24 -40 -70 -59
-142 -59 l-61 0 0 173 0 173 40 39 c43 42 48 70 18 89 -13 8 -23 8 -38 -2 -19
-12 -20 -10 -20 66 0 80 -9 102 -42 102 -32 0 -38 -34 -38 -231 0 -150 -3
-190 -12 -181 -18 18 -46 14 -58 -8 -13 -24 -4 -43 39 -84 27 -26 31 -37 31
-83 l0 -53 -64 0 c-80 0 -124 26 -145 87 -15 40 -14 44 21 130 43 104 68 217
68 305 1 96 38 162 110 191 29 12 111 0 138 -20z m600 0 c54 -40 68 -74 76
-180 8 -119 27 -204 66 -293 34 -78 37 -119 13 -161 -24 -40 -70 -59 -142 -59
l-61 0 0 173 0 173 40 39 c43 42 48 70 18 89 -13 8 -23 8 -38 -2 -19 -12 -20
-10 -20 66 0 80 -9 102 -42 102 -32 0 -38 -34 -38 -231 0 -150 -3 -190 -12
-181 -18 18 -46 14 -58 -8 -13 -24 -4 -43 39 -84 27 -26 31 -37 31 -83 l0 -53
-64 0 c-80 0 -124 26 -145 87 -15 40 -14 44 21 130 43 104 68 218 68 305 0
124 71 203 173 195 27 -2 60 -13 75 -24z m600 0 c54 -40 68 -74 76 -180 8
-119 26 -201 66 -295 34 -80 37 -118 13 -159 -24 -40 -70 -59 -142 -59 l-61 0
0 173 0 173 40 39 c43 42 48 70 18 89 -13 8 -23 8 -38 -2 -19 -12 -20 -10 -20
66 0 80 -9 102 -42 102 -32 0 -38 -34 -38 -231 0 -150 -3 -190 -12 -181 -18
18 -46 14 -58 -8 -13 -24 -4 -43 39 -84 27 -26 31 -37 31 -83 l0 -53 -64 0
c-80 0 -124 26 -145 87 -15 40 -14 44 21 130 43 104 68 217 68 305 1 96 38
162 110 191 29 12 111 0 138 -20z m-2928 -93 l0 -40 -240 0 -240 0 0 40 0 40
240 0 240 0 0 -40z m0 -160 l0 -40 -240 0 -240 0 0 40 0 40 240 0 240 0 0 -40z
m950 0 l0 -40 -240 0 -240 0 0 40 0 40 240 0 240 0 0 -40z m-515 -210 l150
-150 -305 0 -305 0 150 150 c82 83 152 150 155 150 3 0 73 -67 155 -150z
m-435 50 l0 -40 -240 0 -240 0 0 40 0 40 240 0 240 0 0 -40z m-563 -517 c-2
-2 -115 -2 -251 -1 l-246 3 247 263 248 263 3 -262 c1 -144 1 -264 -1 -266z
m468 357 l-39 -40 -173 0 -173 0 0 40 0 40 212 0 212 0 -39 -40z m1045 0 l0
-40 -128 0 -128 0 -39 40 -39 40 167 0 167 0 0 -40z m503 -346 c7 -12 -16 -14
-128 -14 l-135 0 0 148 0 147 128 -134 c70 -74 131 -140 135 -147z m-1453 186
l0 -40 -240 0 -240 0 0 40 0 40 240 0 240 0 0 -40z m480 -80 l0 -120 -40 0
-40 0 0 88 c0 55 -4 92 -12 100 -8 8 -47 12 -110 12 -117 0 -118 -1 -118 -119
l0 -81 -40 0 -40 0 0 120 0 120 200 0 200 0 0 -120z m1552 56 c21 -9 66 -16
103 -16 l65 0 0 -80 0 -80 -260 0 -260 0 0 80 0 80 63 0 c81 0 124 13 167 49
l35 29 25 -23 c14 -13 42 -31 62 -39z m600 0 c21 -9 56 -16 80 -16 64 0 88
-28 88 -102 l0 -58 -260 0 -260 0 0 80 0 80 63 0 c81 0 124 13 167 49 l35 29
25 -23 c14 -13 42 -31 62 -39z m-1109 -14 l77 -4 0 -80 c0 -59 -3 -79 -12 -76
-7 2 -51 43 -98 92 -47 49 -76 85 -65 81 11 -5 55 -10 98 -13z m-1203 -102 l0
-60 -40 0 -40 0 0 60 0 60 40 0 40 0 0 -60z m-320 -20 l0 -40 -240 0 -240 0 0
40 0 40 240 0 240 0 0 -40z m2895 -30 c3 -5 1 -10 -4 -10 -6 0 -11 5 -11 10 0
6 2 10 4 10 3 0 8 -4 11 -10z m-2315 -94 c0 -2 -7 -23 -15 -46 -23 -65 -18
-112 22 -212 l37 -92 -29 -20 c-71 -51 -114 -99 -140 -157 -26 -60 -27 -66
-21 -178 6 -106 5 -119 -13 -148 -17 -26 -27 -33 -53 -33 -104 0 -182 -50
-287 -185 -83 -106 -99 -120 -154 -136 -94 -27 -187 67 -187 189 0 129 -195
357 -421 494 -96 58 -158 47 -246 -44 -63 -65 -93 -140 -104 -259 -4 -55 -11
-116 -15 -137 l-7 -37 -20 45 c-109 251 -181 560 -202 868 l-7 92 931 0 c512
0 931 -2 931 -4z m113 -23 c-18 -63 -7 -102 52 -190 35 -52 59 -101 62 -123 5
-34 0 -43 -45 -93 -68 -74 -73 -104 -34 -193 56 -129 65 -208 37 -319 -24 -93
-21 -91 -66 -50 -47 42 -132 85 -170 85 -36 0 -39 7 -22 48 12 29 14 58 9 139
-9 130 3 174 62 228 144 131 140 120 87 252 -40 99 -41 116 -18 190 12 39 22
53 35 53 15 0 17 -5 11 -27z m452 0 c7 -30 32 -67 83 -128 55 -65 93 -157 93
-222 0 -87 -36 -137 -133 -185 -118 -58 -175 -125 -199 -237 -8 -39 -7 -89 6
-213 9 -90 21 -178 26 -196 15 -45 49 -83 123 -136 71 -51 119 -115 141 -190
18 -60 19 -162 2 -196 -16 -31 -156 -140 -180 -140 -58 0 -88 68 -62 142 19
55 19 118 0 145 -9 12 -42 41 -75 64 -99 69 -148 157 -169 305 -10 68 -9 78
20 170 53 172 50 297 -12 433 -16 35 -29 67 -29 71 0 5 20 29 44 53 86 89 87
164 4 290 -68 103 -71 110 -57 158 l12 39 177 0 178 0 7 -27z m746 5 c2 -66
59 -142 134 -181 60 -30 157 -34 225 -8 l54 21 40 -26 c77 -51 159 -36 198 37
23 43 23 83 -2 137 l-19 42 183 0 183 0 27 -61 c32 -75 28 -97 -29 -144 -65
-53 -109 -148 -109 -234 0 -71 23 -129 64 -166 52 -47 63 -108 30 -162 -43
-72 -125 -85 -291 -49 -129 28 -166 25 -227 -21 -70 -53 -82 -115 -62 -311 12
-112 30 -170 65 -202 31 -29 33 -77 4 -114 -11 -15 -47 -45 -80 -67 -32 -22
-67 -51 -76 -65 -21 -33 -21 -105 0 -138 32 -48 62 -59 155 -60 l87 -1 3 -92
3 -91 -86 -52 c-282 -171 -628 -295 -965 -347 -158 -24 -522 -24 -665 1 -533
91 -949 306 -1315 683 -154 157 -283 329 -378 503 l-41 75 19 80 c11 44 23
128 29 186 10 113 30 169 80 222 28 31 72 57 95 57 34 0 197 -123 284 -214
117 -123 141 -165 154 -263 16 -133 77 -213 182 -240 113 -29 188 12 309 173
91 121 148 151 268 140 190 -17 276 -88 299 -246 25 -170 87 -282 199 -361 67
-47 70 -55 46 -134 -39 -126 39 -243 152 -232 31 3 60 18 112 56 134 99 157
143 149 282 -9 142 -75 257 -196 337 -31 20 -64 51 -73 67 -21 36 -54 337 -44
388 19 86 67 140 170 191 39 18 82 47 97 62 43 46 69 116 69 187 0 99 -34 176
-130 295 -28 35 -51 68 -51 73 0 5 134 9 335 9 l335 0 1 -22z m564 -28 c29
-58 31 -77 8 -102 -21 -24 -36 -23 -81 6 -55 37 -81 40 -140 17 -65 -26 -124
-26 -177 -2 -51 23 -83 58 -91 99 l-6 32 231 0 231 0 25 -50z m1141 -53 c-34
-533 -279 -1067 -679 -1483 -108 -113 -257 -245 -344 -305 l-43 -30 0 63 c0
69 -21 117 -60 138 -12 7 -54 11 -93 10 -95 -3 -95 -3 -106 18 -16 29 -2 60
38 84 51 31 120 97 137 129 22 44 18 111 -11 150 -45 63 -52 84 -64 181 -16
139 -14 188 9 225 31 51 69 56 197 26 165 -38 270 -20 340 60 71 81 69 185 -7
271 -52 61 -65 102 -51 167 13 60 38 99 98 152 69 62 74 108 27 230 -6 16 17
17 306 17 l313 0 -7 -103z"/>
<path d="M1802 4108 c-8 -8 -12 -47 -12 -108 0 -61 4 -100 12 -108 17 -17 599
-17 616 0 16 16 16 200 0 216 -17 17 -599 17 -616 0z m548 -108 l0 -40 -240 0
-240 0 0 40 0 40 240 0 240 0 0 -40z"/>
<path d="M1802 3788 c-8 -8 -12 -47 -12 -108 0 -61 4 -100 12 -108 17 -17 599
-17 616 0 16 16 16 200 0 216 -17 17 -599 17 -616 0z m548 -108 l0 -40 -240 0
-240 0 0 40 0 40 240 0 240 0 0 -40z"/>
<path d="M608 2453 c-9 -10 -25 -34 -37 -53 -11 -19 -21 -30 -21 -23 0 18 -38
35 -60 28 -28 -9 -25 -51 5 -87 14 -16 28 -42 31 -56 9 -36 32 -72 47 -72 28
1 39 21 47 84 5 45 17 80 34 106 29 44 32 60 14 78 -17 17 -42 15 -60 -5z"/>
<path d="M1320 2358 c-16 -22 -30 -46 -30 -51 0 -6 -9 -1 -20 11 -22 23 -29
26 -54 16 -23 -9 -20 -57 4 -79 11 -10 27 -42 36 -71 10 -37 22 -55 36 -60 29
-9 43 12 56 85 6 36 23 81 37 102 28 43 31 59 13 77 -22 22 -48 12 -78 -30z"/>
<path d="M1703 2058 c-11 -13 -27 -36 -35 -51 l-14 -28 -19 21 c-23 26 -51 26
-65 -1 -10 -17 -7 -27 15 -59 14 -21 34 -60 44 -86 29 -82 74 -71 84 21 3 35
17 77 38 114 28 50 31 62 20 75 -19 22 -44 20 -68 -6z"/>
<path d="M2483 2358 c-15 -24 -28 -44 -29 -46 -1 -2 -13 4 -27 12 -53 35 -83
-14 -42 -68 14 -18 31 -53 38 -76 26 -90 78 -80 88 17 4 40 15 77 33 107 34
58 32 90 -6 94 -22 3 -32 -4 -55 -40z"/>
<path d="M3430 2154 c-25 -7 -92 -29 -150 -48 -58 -19 -152 -50 -210 -68 -122
-38 -127 -46 -86 -127 14 -28 26 -54 26 -58 0 -4 -16 -24 -34 -44 -31 -32 -44
-38 -128 -54 -51 -10 -101 -22 -110 -27 -31 -16 -22 -54 21 -84 53 -39 106
-113 120 -171 17 -67 25 -78 52 -78 19 0 38 20 89 91 40 56 81 102 106 118 23
14 44 26 47 26 2 0 19 -22 37 -50 52 -81 63 -75 168 93 57 91 113 167 153 208
75 75 122 163 123 228 1 39 -2 46 -24 52 -42 12 -152 8 -200 -7z m135 -86 c-4
-13 -23 -47 -43 -77 -32 -47 -64 -72 -246 -193 l-209 -138 -24 35 -24 36 29
37 c50 62 194 196 262 242 72 49 154 79 218 79 40 1 43 -1 37 -21z m-458 -124
c-14 -14 -31 -23 -37 -19 -17 10 -12 25 13 35 41 17 51 11 24 -16z m194 -241
c-5 -10 -16 -26 -23 -36 -12 -16 -16 -17 -26 -4 -10 12 -7 18 20 36 40 25 41
25 29 4z m-326 -50 c30 -46 30 -45 3 -88 -26 -40 -34 -43 -43 -15 -3 11 -22
42 -41 69 -19 28 -34 53 -34 55 0 4 34 11 72 15 10 0 28 -15 43 -36z"/>
<path d="M1763 1130 c-64 -37 -99 -87 -115 -163 -11 -52 -10 -59 8 -84 12 -16
30 -29 42 -31 37 -6 46 -28 23 -58 -25 -32 -28 -90 -5 -123 16 -22 16 -25 0
-51 -28 -48 -21 -94 20 -140 37 -41 61 -49 82 -28 19 19 14 40 -15 70 -26 27
-26 30 -13 61 17 41 17 83 0 124 -12 28 -12 34 3 51 9 10 20 33 23 50 5 25 12
32 30 32 29 0 30 -14 4 -47 -24 -31 -26 -90 -4 -122 16 -22 16 -25 0 -51 -27
-47 -21 -91 20 -138 36 -43 60 -52 82 -30 18 18 15 36 -14 74 -26 33 -26 35
-10 68 20 42 20 63 1 100 -19 37 -19 43 5 73 11 14 20 36 20 49 0 20 5 24 30
24 35 0 38 -12 10 -47 -24 -31 -26 -90 -4 -122 16 -22 16 -25 0 -51 -27 -47
-21 -91 20 -138 36 -43 60 -52 82 -30 18 18 15 36 -14 74 -26 33 -26 35 -10
68 20 42 20 63 1 100 -19 37 -19 43 5 73 12 15 20 41 20 63 0 21 7 43 15 50 8
7 15 28 15 48 0 180 -199 292 -357 202z m208 -74 c37 -26 69 -78 69 -115 0
-21 -3 -21 -157 -19 l-158 3 3 30 c10 102 153 162 243 101z"/>
<path d="M4727 2270 c-14 -16 -29 -39 -32 -50 -6 -20 -6 -20 -32 0 -19 15 -30
17 -44 9 -26 -13 -24 -41 6 -85 14 -20 30 -54 36 -76 20 -77 70 -61 81 26 5
35 20 81 40 116 27 49 30 61 19 74 -20 24 -47 19 -74 -14z"/>
<path d="M4325 1498 c-16 -24 -30 -44 -31 -46 -1 -2 -13 4 -27 12 -23 15 -26
15 -48 -3 -24 -19 -24 -20 -6 -48 10 -15 27 -48 38 -73 30 -68 35 -75 53 -78
28 -6 46 18 46 62 1 48 21 110 45 136 9 10 15 30 13 47 -2 22 -9 29 -29 31
-21 2 -31 -5 -54 -40z"/>
<path d="M3095 4269 c-46 -42 -55 -65 -33 -87 21 -21 43 -13 87 32 46 47 48
66 12 86 -18 9 -27 5 -66 -31z"/>
<path d="M4364 4258 c-172 -116 -200 -176 -125 -261 l29 -32 278 -3 c198 -2
286 0 306 9 52 21 73 92 43 148 -19 38 -105 81 -161 81 -53 0 -89 16 -109 46
-22 34 -87 64 -139 64 -37 0 -57 -9 -122 -52z m200 -68 c52 -48 101 -70 158
-70 52 0 111 -32 106 -58 -3 -15 -26 -17 -265 -20 -255 -2 -262 -2 -273 18
-16 29 -4 43 90 110 102 73 124 76 184 20z"/>
<path d="M3627 4293 c-17 -16 -4 -52 31 -86 40 -39 60 -45 80 -25 20 20 13 43
-26 81 -35 34 -69 46 -85 30z"/>
<path d="M3370 4180 c-17 -32 -8 -121 13 -134 12 -8 22 -8 35 0 21 14 30 118
11 140 -17 20 -47 17 -59 -6z"/>
</g>
</svg>
