<?xml version="1.0" encoding="UTF-8"?>
<svg version="1.1" xmlns="http://www.w3.org/2000/svg" width="500" height="500" viewBox="0 0 500 500">
<defs>
  <linearGradient id="MainGradient">
    <stop offset="0%" stop-color="rgb(239,101,249)" />
    <stop offset="33%" stop-color="rgb(138,56,239)" />
    <stop offset="66%" stop-color="rgb(21,18,226)" />
  </linearGradient>
</defs>
<g fill="url(#MainGradient)" stroke="none">
<path  d="M0 0 C0.77746582 0.18272461 1.55493164 0.36544922 2.35595703 0.55371094 C28.25405643 6.89419035 51.41570276 20.10017445 71 38 C71.5062793 38.46100098 72.01255859 38.92200195 72.53417969 39.39697266 C95.33755085 60.45018142 110.84609933 88.92354075 118 119 C118.16226074 119.65871094 118.32452148 120.31742187 118.49169922 120.99609375 C127.26779954 158.1654598 118.66184082 199.89015279 99.2890625 232.46484375 C92.0445444 243.8928614 83.48025245 254.36773184 74 264 C73.19820313 264.82628906 72.39640625 265.65257812 71.5703125 266.50390625 C43.82284229 293.43018965 3.7344196 307.21769135 -34.375 307.25 C-35.44646774 307.25101212 -35.44646774 307.25101212 -36.5395813 307.25204468 C-47.6051865 307.23545038 -58.23281819 306.71363692 -69 304 C-69.70044434 303.82839355 -70.40088867 303.65678711 -71.12255859 303.47998047 C-107.96815892 294.2043389 -140.7427888 271.4117802 -162 240 C-162.43586426 239.36046387 -162.87172852 238.72092773 -163.32080078 238.06201172 C-174.15904057 221.98063689 -181.25996733 204.77560385 -186 186 C-186.26901123 184.95102539 -186.26901123 184.95102539 -186.54345703 183.88085938 C-191.50973789 163.46337898 -191.19264453 138.3284508 -186 118 C-185.80664062 117.22366211 -185.61328125 116.44732422 -185.4140625 115.64746094 C-181.02467986 98.5302234 -174.43521311 81.37340656 -164 67 C-163.57299805 66.39687988 -163.14599609 65.79375977 -162.70605469 65.17236328 C-151.81749139 49.87864504 -138.99198744 35.09690188 -123 25 C-122.34950684 24.58057129 -121.69901367 24.16114258 -121.02880859 23.72900391 C-84.96166314 0.54587582 -42.5419502 -10.20105055 0 0 Z M-136.88671875 56.94921875 C-138.65798809 58.91867208 -140.33386397 60.94077127 -142 63 C-142.78117187 63.93199219 -143.56234375 64.86398438 -144.3671875 65.82421875 C-150.5394193 73.35976638 -155.07419155 81.2105636 -159.11376953 90.05957031 C-159.94024372 91.86916174 -160.7952287 93.66565632 -161.65234375 95.4609375 C-176.90346438 128.7572772 -176.37710408 167.22799505 -164.15234375 201.3671875 C-158.780801 215.73780837 -148.68079034 240.65960483 -134 248 C-133.52433594 247.14728516 -133.52433594 247.14728516 -133.0390625 246.27734375 C-127.08532937 236.42572456 -119.35454826 231.95302333 -108.46875 228.7265625 C-99.6515334 226.87971308 -90.85204493 226.86965024 -81.875 226.9375 C-80.15410156 226.94426758 -80.15410156 226.94426758 -78.3984375 226.95117188 C-75.59893532 226.96283647 -72.79946041 226.98076707 -70 227 C-70 222.05 -70 217.1 -70 212 C-72.47113281 211.97421875 -74.94226563 211.9484375 -77.48828125 211.921875 C-79.91783377 211.88331253 -82.34718412 211.83819866 -84.77661133 211.79248047 C-86.44740932 211.76449175 -88.11833428 211.74316888 -89.78930664 211.72900391 C-102.77138733 211.61243329 -114.89337097 210.83878886 -124.7734375 201.28515625 C-132.38965532 193.17083135 -134.60204986 184.87090175 -136 174 C-136.78503906 173.97421875 -137.57007813 173.9484375 -138.37890625 173.921875 C-145.00135964 173.56434377 -149.77847654 173.24248781 -155 169 C-159.18412519 163.12504452 -159.57973018 157.42251786 -159.49609375 150.40234375 C-159.49754898 149.40924698 -159.49900421 148.41615021 -159.50050354 147.39295959 C-159.49885161 145.3045049 -159.48737009 143.21603714 -159.46655273 141.12768555 C-159.43755299 137.94331861 -159.44596861 134.76061475 -159.45898438 131.57617188 C-159.45274725 129.53905447 -159.44435651 127.50194227 -159.43359375 125.46484375 C-159.43652939 124.51987534 -159.43946503 123.57490692 -159.44248962 122.6013031 C-159.36274659 116.97709228 -158.70212841 112.96652254 -156 108 C-151.49618476 103.72137552 -147.88104158 102.89427195 -141.8125 102.4375 C-140.72582031 102.35371094 -139.63914063 102.26992187 -138.51953125 102.18359375 C-137.68808594 102.12300781 -136.85664063 102.06242187 -136 102 C-135.79246094 101.03320312 -135.58492187 100.06640625 -135.37109375 99.0703125 C-132.93449735 88.47718579 -129.67195743 79.95063435 -120.375 73.5 C-113.52508467 69.24662297 -106.99800841 67.886287 -98.9750824 67.85282898 C-97.79081161 67.84567368 -96.60654083 67.83851837 -95.38638306 67.83114624 C-94.10057343 67.82845734 -92.81476379 67.82576843 -91.48999023 67.82299805 C-90.11119926 67.81672588 -88.73240995 67.81007842 -87.35362244 67.80308533 C-82.83862466 67.78212742 -78.32362687 67.77168883 -73.80859375 67.76171875 C-72.24809312 67.75766772 -70.68759265 67.7535507 -69.12709236 67.74936867 C-61.79134302 67.73033301 -54.45560363 67.71610011 -47.11983436 67.7077567 C-38.6816203 67.69799829 -30.24366952 67.6717086 -21.80554813 67.63125581 C-15.26429931 67.60098445 -8.72312549 67.58627733 -2.18180805 67.58297569 C1.71594042 67.58063726 5.61340713 67.5718361 9.51107979 67.54651451 C13.18430748 67.52303545 16.85707184 67.51907889 20.53035545 67.52927589 C22.49950542 67.52999822 24.46863291 67.51104646 26.43768311 67.49121094 C37.02099458 67.55224748 47.97377033 69.18992782 56.29296875 76.265625 C63.62100089 83.71103981 65.78143879 92.09477672 68 102 C68.78503906 102.02578125 69.57007813 102.0515625 70.37890625 102.078125 C77.00135964 102.43565623 81.77847654 102.75751219 87 107 C91.16616351 112.86050659 91.59157722 118.5603405 91.53125 125.5625 C91.5350769 126.5532251 91.53890381 127.5439502 91.54284668 128.56469727 C91.54555562 130.64893618 91.5382662 132.7332097 91.52148438 134.81738281 C91.50006067 137.99101212 91.52132141 141.16237784 91.546875 144.3359375 C91.54423154 146.36979662 91.5391062 148.40365434 91.53125 150.4375 C91.53934692 151.37730713 91.54744385 152.31711426 91.55578613 153.28540039 C91.47123609 159.28386124 90.52745663 164.03795692 87 169 C81.22558995 173.69170816 75.26457765 173.76142602 68 174 C67.84144531 174.97839844 67.68289063 175.95679688 67.51953125 176.96484375 C65.57257994 188.21006697 62.53978554 197.84516085 53 205 C44.95943056 209.45928133 37.99672766 211.10989338 28.85546875 211.31640625 C28.08568192 211.33718735 27.31589508 211.35796844 26.52278137 211.37937927 C24.07777333 211.44446049 21.63266317 211.50356591 19.1875 211.5625 C17.52407823 211.60572468 15.86066656 211.64934021 14.19726562 211.69335938 C10.13161329 211.80083048 6.06587711 211.90021085 2 212 C2 216.95 2 221.9 2 227 C4.17078125 227.03738281 6.3415625 227.07476562 8.578125 227.11328125 C10.72307383 227.15973252 12.86786418 227.21087915 15.01269531 227.26245117 C16.48264618 227.29533418 17.95271223 227.32347494 19.42285156 227.34643555 C33.73998523 227.57593939 48.57575987 228.83687009 59.39453125 239.3203125 C61.33702307 241.49730333 63.18068017 243.72015059 65 246 C65.66 246.66 66.32 247.32 67 248 C91.68330234 222.1242676 106.37603361 187.02721972 106 151 C104.97269571 120.6914477 95.81122122 89.43057895 76 66 C75.09354413 64.89730462 74.18731228 63.79442506 73.28125 62.69140625 C49.54423434 34.08945051 17.42638527 17.10655933 -19.55859375 13.20068359 C-63.97963761 9.54927379 -105.93165191 24.96872527 -136.88671875 56.94921875 Z M-115.25 89.375 C-115.96929687 90.22191406 -115.96929687 90.22191406 -116.703125 91.0859375 C-119.95965598 95.89226335 -120.29347232 100.40173451 -120.2746582 106.07568359 C-120.27976913 106.87471603 -120.28488007 107.67374847 -120.29014587 108.49699402 C-120.3040132 111.13088532 -120.30308712 113.76451409 -120.30078125 116.3984375 C-120.30467004 118.23540341 -120.30900509 120.07236842 -120.31376648 121.90933228 C-120.32122275 125.75761836 -120.32094191 129.6058127 -120.31567383 133.45410156 C-120.30988307 138.37573827 -120.32680354 143.29699818 -120.3500185 148.21857262 C-120.36478051 152.01221905 -120.36562413 155.80577528 -120.36250877 159.59944534 C-120.36302085 161.41345592 -120.36823712 163.22747169 -120.37832069 165.04145432 C-120.39071436 167.5830579 -120.38387592 170.12393461 -120.37231445 172.66552734 C-120.37995819 173.40861649 -120.38760193 174.15170563 -120.39547729 174.91731262 C-120.3314809 181.31093366 -118.81481025 185.78189858 -114.75 190.75 C-107.40850125 196.75668079 -100.44540793 196.4312692 -91.28125 196.38818359 C-89.89257394 196.39225343 -88.50390111 196.39759762 -87.11523438 196.40411377 C-83.35901895 196.41774431 -79.60305182 196.41250649 -75.84683228 196.40297651 C-71.90764722 196.39535773 -67.9684828 196.40243167 -64.02929688 196.40713501 C-57.41532594 196.41258612 -50.80145564 196.40541792 -44.1875 196.39111328 C-36.55128666 196.37478796 -28.91531366 196.38007693 -21.27910614 196.3965925 C-14.71158548 196.41022579 -8.14413699 196.41211803 -1.57660675 196.40427649 C2.34097734 196.39961008 6.25844863 196.39894659 10.17602539 196.40888596 C13.8598958 196.41758026 17.54345768 196.41148914 21.22729492 196.39420319 C23.21662985 196.38837298 25.20599101 196.39723283 27.1953125 196.40658569 C34.64798173 196.35379763 40.36091766 196.17604498 46.1796875 191.09765625 C47.01886719 190.09025391 47.01886719 190.09025391 47.875 189.0625 C48.44992187 188.39347656 49.02484375 187.72445312 49.6171875 187.03515625 C52.54434763 182.7271042 52.1645142 178.01105078 52.19287109 172.96191406 C52.20104858 172.15488037 52.20922607 171.34784668 52.21765137 170.51635742 C52.24243342 167.84945404 52.2590031 165.18260364 52.2734375 162.515625 C52.28142302 161.14600239 52.28142302 161.14600239 52.28956985 159.74871063 C52.31627045 154.91549012 52.33565505 150.08229516 52.35009766 145.24902344 C52.36343392 141.25660273 52.39128515 137.26469348 52.43212891 133.27246094 C52.4815244 128.44375083 52.50622697 123.61550438 52.51332474 118.78655243 C52.52002378 116.95099575 52.53521067 115.11544886 52.55921555 113.28003693 C52.59097576 110.7047024 52.59088811 108.13114448 52.58349609 105.55566406 C52.59990143 104.80524841 52.61630676 104.05483276 52.63320923 103.28167725 C52.5574277 96.79529227 49.99230478 92.02882996 45.45100975 87.4321022 C41.0677077 83.62287441 37.8796774 82.87559183 32.21281433 82.85955811 C31.00572311 82.85384796 29.7986319 82.84813782 28.55496216 82.84225464 C27.2152711 82.8410093 25.87557992 82.8398842 24.53588867 82.83886719 C23.12647878 82.83423838 21.71707014 82.82921363 20.30766296 82.82382202 C16.47698188 82.81070177 12.64631832 82.80425376 8.81561828 82.79981136 C6.42200659 82.79687995 4.0283997 82.792775 1.63479042 82.78830719 C-5.85526533 82.77463305 -13.34531014 82.76496607 -20.83537751 82.7611053 C-29.47966376 82.75662504 -38.12379184 82.73907835 -46.76802999 82.7101047 C-53.45093478 82.6884831 -60.13379509 82.67840076 -66.81673449 82.67706418 C-70.80758569 82.67601646 -74.7982882 82.67011587 -78.78910255 82.65224457 C-82.54428944 82.6357556 -86.29921599 82.63361226 -90.05442619 82.64238358 C-91.43065209 82.64315352 -92.80689202 82.63881675 -94.18308258 82.62892532 C-96.06596682 82.61618856 -97.94895585 82.62388062 -99.8318634 82.63250732 C-101.41058086 82.63030748 -101.41058086 82.63030748 -103.0211916 82.6280632 C-108.10845323 83.26326344 -112.00627327 85.43618897 -115.25 89.375 Z M-144 117 C-144 130.53 -144 144.06 -144 158 C-141.36 158 -138.72 158 -136 158 C-136 144.47 -136 130.94 -136 117 C-138.64 117 -141.28 117 -144 117 Z M68 117 C68 130.53 68 144.06 68 158 C70.64 158 73.28 158 76 158 C76 144.47 76 130.94 76 117 C73.36 117 70.72 117 68 117 Z M-54 212 C-54 216.95 -54 221.9 -54 227 C-40.8 227 -27.6 227 -14 227 C-14 222.05 -14 217.1 -14 212 C-27.2 212 -40.4 212 -54 212 Z M-118.4375 251.5625 C-121.12673748 255.38527311 -121.12673748 255.38527311 -121.953125 259.82421875 C-120.44974648 263.25611152 -117.49394406 264.7984372 -114.4375 266.75 C-113.76348145 267.18610596 -113.08946289 267.62221191 -112.39501953 268.0715332 C-80.89333745 288.05807831 -42.11328285 296.40733131 -5.35498047 288.54785156 C16.20708642 283.53175389 36.83575559 275.27618799 54 261 C53.66203342 255.59253471 50.84633573 251.61278214 47 248 C36.36890581 241.77430887 25.12740783 241.84959675 13.1472168 241.85473633 C12.00596344 241.85137772 10.86471008 241.8480191 9.68887329 241.84455872 C5.94231049 241.83511419 2.19579269 241.83310895 -1.55078125 241.83203125 C-4.17335528 241.82881439 -6.79592914 241.82544999 -9.41850281 241.82194519 C-14.90652761 241.81557123 -20.39454036 241.81406056 -25.88256836 241.81469727 C-32.19458382 241.81529744 -38.50651367 241.80474981 -44.81850749 241.7889536 C-50.927787 241.77421861 -57.03702592 241.77071145 -63.14632225 241.77130699 C-65.72850074 241.77013262 -68.31067998 241.76574158 -70.89284706 241.75797462 C-74.51497999 241.74809842 -78.13689625 241.75108269 -81.7590332 241.75708008 C-82.80932205 241.75146057 -83.8596109 241.74584106 -84.94172668 241.74005127 C-97.07293044 241.79069726 -109.62192773 242.2948471 -118.4375 251.5625 Z " transform="translate(284,98)"/>
<path d="M0 0 C0.63808594 0.17789062 1.27617187 0.35578125 1.93359375 0.5390625 C16.94199538 4.63226295 31.48436936 4.16003945 46.40625 0 C56.94059251 -2.69861243 56.94059251 -2.69861243 60.703125 -0.53515625 C62.4760273 2.49355184 62.71752529 4.57869357 62.83203125 8.02734375 C61.82814694 11.21982057 59.97457563 12.22974499 57.203125 14.02734375 C54.63079786 15.12502837 52.01170926 15.9348487 49.328125 16.71484375 C48.30525391 17.03291992 48.30525391 17.03291992 47.26171875 17.35742188 C28.88284712 22.90609074 6.80081663 21.3929995 -10.87890625 14.08984375 C-12.96929334 12.93182891 -14.32461606 11.91310751 -15.796875 10.02734375 C-16.28424055 5.64105376 -16.52456802 3.27048599 -14.296875 -0.53515625 C-9.87773409 -3.07616227 -4.72536077 -1.21050909 0 0 Z " transform="translate(226.796875,259.97265625)"/>
<path d="M0 0 C5.03701447 4.07299256 5.03701447 4.07299256 5.49609375 7.8359375 C5.67510301 13.3758031 5.0611481 16.55123585 1.2578125 20.8828125 C-2.93964936 23.42938978 -6.95164077 23.69645822 -11.7421875 22.8828125 C-15.0905331 21.16970545 -17.19295422 18.76636169 -19.1796875 15.5703125 C-20.23522748 10.52717703 -19.66508132 6.45515011 -17.0546875 2.0078125 C-12.22005628 -2.43482159 -5.78224307 -3.70789578 0 0 Z " transform="translate(220.7421875,207.1171875)"/>
<path d="M0 0 C3.53520788 3.74316129 4.14451055 6.0208353 4.0625 11.1875 C3.35565992 15.73886054 1.34211484 18.03288516 -1.875 21.25 C-5.34682303 22.98591152 -9.07908964 22.71571673 -12.875 22.25 C-16.97822512 20.16108539 -19.15319939 18.48469879 -20.875 14.25 C-21.5229805 10.49853395 -21.69429119 6.85134187 -19.9296875 3.40234375 C-14.54273951 -3.49227207 -7.29136553 -4.4382225 0 0 Z " transform="translate(294.875,207.75)"/>
</g>
</svg>
