<?xml version="1.0" encoding="UTF-8"?>
<svg version="1.1" xmlns="http://www.w3.org/2000/svg" width="500" height="500" viewBox="0 0 500 500">
<!-- different gradient due to use case -->
<defs>
  <linearGradient id="GradientDiff" gradientTransform="rotate(0)">
    <stop offset="0%" stop-color="#AD48F2" />
    <stop offset="70%" stop-color="#6B2AEA" />
  </linearGradient>
</defs>
<g fill="url(#GradientDiff)">
  <path d="M0 0 C0.61311035 0.27215332 1.2262207 0.54430664 1.85791016 0.82470703 C10.30902231 4.64299404 17.7645456 9.21977764 25 15 C25.5141748 15.40734375 26.02834961 15.8146875 26.55810547 16.234375 C51.59034356 36.20602546 69.1440598 63.49019316 73.65234375 95.6171875 C77.78270938 135.80703737 65.4629161 164.67854843 43.51171875 197.70019531 C41.22816435 201.17420734 39.03189165 204.69624698 36.875 208.25 C36.19179688 209.36890625 35.50859375 210.4878125 34.8046875 211.640625 C30.73754533 219.2114957 29.05560439 226.73780338 27.5 235.125 C27.28569336 236.25413818 27.07138672 237.38327637 26.85058594 238.54663086 C25.25691756 247.13333051 23.96507031 255.74106869 22.90039062 264.40869141 C22.74086914 265.69332275 22.74086914 265.69332275 22.578125 267.00390625 C22.48950195 267.75486572 22.40087891 268.5058252 22.30957031 269.27954102 C22 271 22 271 21 272 C19.14203019 272.09868875 17.28026657 272.12632166 15.41967773 272.12698364 C14.20811005 272.12980347 12.99654236 272.13262329 11.7482605 272.13552856 C10.39337143 272.13358397 9.03848252 272.13153578 7.68359375 272.12939453 C6.26636714 272.13074854 4.84914087 272.13252847 3.43191528 272.13470459 C-0.42748241 272.13927899 -4.28685349 272.13748934 -8.14625168 272.1343255 C-12.1763593 272.13180193 -16.20646456 272.13413943 -20.23657227 272.13571167 C-27.0057008 272.13753338 -33.77481843 272.13512703 -40.54394531 272.13037109 C-48.38116485 272.12492847 -56.21835837 272.12669113 -64.05557728 272.1321975 C-70.77233256 272.1367286 -77.48907998 272.13737919 -84.2058363 272.13475883 C-88.22276931 272.13319604 -92.23969008 272.13300234 -96.25662231 272.13629532 C-100.03221994 272.139174 -103.80778387 272.13719841 -107.58337784 272.13140106 C-108.97298247 272.13007344 -110.36258992 272.13046761 -111.75219345 272.13266373 C-113.64135388 272.13537513 -115.53052047 272.1313805 -117.41967773 272.12698364 C-118.47936264 272.12660662 -119.53904755 272.12622959 -120.63084412 272.12584114 C-123 272 -123 272 -124 271 C-124.48160108 268.19256692 -124.90932332 265.39413628 -125.3046875 262.57421875 C-125.56110667 260.80923153 -125.81762031 259.04425804 -126.07421875 257.27929688 C-126.47326165 254.49988266 -126.87035521 251.72020826 -127.26513672 248.94018555 C-129.85100995 228.78342798 -129.85100995 228.78342798 -137.5625 210.1875 C-137.99941162 209.42397217 -138.43632324 208.66044434 -138.88647461 207.8737793 C-142.51683153 201.616045 -146.49600261 195.61861918 -150.55859375 189.63671875 C-170.67426621 159.89043852 -181.16645286 128.00774888 -174.87255859 91.68457031 C-167.60329093 56.11580824 -147.14534649 27.76110707 -117.13574219 7.75732422 C-83.15821998 -14.07196738 -36.55336819 -16.39002719 0 0 Z M-124 42 C-124.71542969 42.64324219 -125.43085938 43.28648437 -126.16796875 43.94921875 C-142.25313063 58.75013616 -152.82068254 83.14556044 -154.17700195 104.82983398 C-154.63720194 124.2754169 -154.63720194 124.2754169 -150 143 C-149.54882812 144.21558594 -149.09765625 145.43117187 -148.6328125 146.68359375 C-142.74443764 161.62121093 -133.7231022 175.21966248 -125.11254883 188.6965332 C-122.71726826 192.44922745 -120.35345303 196.22097865 -118 200 C-117.38253906 200.9796875 -116.76507813 201.959375 -116.12890625 202.96875 C-108.32938563 216.74452669 -106.35174983 234.71362608 -104 250 C-69.02 250 -34.04 250 2 250 C3.65 241.09 5.3 232.18 7 223 C10.7275998 208.30260651 17.30453554 197.28214142 25.41015625 184.703125 C43.71233678 156.29541528 57.59360996 129.44498199 50.87255859 94.50512695 C46.81031383 76.60374311 38.80412593 61.0432591 27 47 C26.33226562 46.14792969 25.66453125 45.29585937 24.9765625 44.41796875 C12.25617362 28.85686061 -8.83334917 18.72943332 -28 14 C-28.88945312 13.77570313 -29.77890625 13.55140625 -30.6953125 13.3203125 C-64.84424663 6.21811252 -99.61396201 17.90298172 -124 42 Z " transform="translate(301,93)"/>
  <path d="M0 0 C41.58 0 83.16 0 126 0 C126 7.26 126 14.52 126 22 C125 23 125 23 123.05053711 23.11352539 C122.2178833 23.10828857 121.38522949 23.10305176 120.52734375 23.09765625 C119.62822266 23.09443359 118.72910156 23.09121094 117.80273438 23.08789062 C116.85720703 23.07951172 115.91167969 23.07113281 114.9375 23.0625 C113.5134082 23.05573242 113.5134082 23.05573242 112.06054688 23.04882812 C109.70696935 23.0370011 107.35351523 23.02052025 105 23 C104.86271484 24.08172485 104.86271484 24.08172485 104.72265625 25.18530273 C103.13748365 36.87929019 98.19186387 46.52835262 89 54 C86.43834678 55.9377258 83.86213998 57.54411377 81 59 C80.38253906 59.3196875 79.76507813 59.639375 79.12890625 59.96875 C69.99826113 63.81323216 57.24617071 63.48349662 47.9375 60.4375 C37.52908588 55.89477714 28.52394469 47.36443736 23.77734375 37.015625 C21.9850012 32.36814382 21 28.01639376 21 23 C20.39937744 23.00523682 19.79875488 23.01047363 19.17993164 23.01586914 C16.47413162 23.03658014 13.76834823 23.04964125 11.0625 23.0625 C10.11697266 23.07087891 9.17144531 23.07925781 8.19726562 23.08789062 C6.84858398 23.09272461 6.84858398 23.09272461 5.47265625 23.09765625 C4.22367554 23.10551147 4.22367554 23.10551147 2.94946289 23.11352539 C1 23 1 23 0 22 C0 14.74 0 7.48 0 0 Z M43 23 C45.45509086 30.24251803 47.84922232 35.42461116 55 39 C60.19505169 40.97053685 65.55625459 40.48940522 70.6875 38.75 C77.71400825 35.03788244 80.33016206 31.3532408 83 24 C83 23.67 83 23.34 83 23 C78.26797113 22.83162621 73.53576294 22.67115157 68.80322266 22.51782227 C67.19507741 22.46462703 65.58700062 22.40931702 63.97900391 22.35180664 C61.66063186 22.26926398 59.34211583 22.19446291 57.0234375 22.12109375 C55.95432632 22.08054115 55.95432632 22.08054115 54.86361694 22.03916931 C50.77454797 21.91836843 47.00907011 22.18557194 43 23 Z " transform="translate(187,428)"/>
  <path d="M0 0 C41.58 0 83.16 0 126 0 C126 7.26 126 14.52 126 22 C84.42 22 42.84 22 0 22 C0 14.74 0 7.48 0 0 Z " transform="translate(187,383)"/>
  <path d="M0 0 C22.48208545 -1.02191297 41.38385931 7.54921349 58.3203125 21.9765625 C73.34295857 35.95233428 81.66755426 54.8263904 84 75 C84 77.97 84 80.94 84 84 C76.74 84 69.48 84 62 84 C61.608125 81.463125 61.21625 78.92625 60.8125 76.3125 C58.24891105 61.32613838 52.66008438 48.23812287 41 38 C40.08541016 37.18982422 40.08541016 37.18982422 39.15234375 36.36328125 C27.37389278 26.50871519 14.98165501 23.4981655 0 22 C0 14.74 0 7.48 0 0 Z " transform="translate(250,125)"/>
  <path d="M0 0 C1.40897804 0.00333092 1.40897804 0.00333092 2.84642029 0.00672913 C3.90744461 0.00680466 4.96846893 0.00688019 6.06164551 0.00695801 C7.21579453 0.01211929 8.36994354 0.01728058 9.55906677 0.02259827 C10.73404221 0.02401321 11.90901764 0.02542816 13.11959839 0.02688599 C16.88981116 0.0325046 20.65996556 0.04506026 24.43016052 0.05775452 C26.97898779 0.06276712 29.52781599 0.06733044 32.0766449 0.07142639 C38.34033943 0.08248008 44.60399006 0.09975718 50.86766052 0.12025452 C50.86766052 7.38025452 50.86766052 14.64025452 50.86766052 22.12025452 C33.04766052 22.12025452 15.22766052 22.12025452 -3.13233948 22.12025452 C-3.13233948 0.17665009 -3.13233948 0.17665009 0 0 Z " transform="translate(54.13233947753906,196.87974548339844)"/>
  <path d="M0 0 C1.03777588 -0.00315216 2.07555176 -0.00630432 3.14477539 -0.009552 C4.83848267 -0.00651566 4.83848267 -0.00651566 6.56640625 -0.00341797 C7.71681396 -0.00437469 8.86722168 -0.00533142 10.05249023 -0.00631714 C12.49039769 -0.00699916 14.92830695 -0.00514337 17.36621094 -0.00097656 C21.11267143 0.00437136 24.85901202 -0.00092086 28.60546875 -0.00732422 C30.96744818 -0.00666344 33.32942754 -0.00538229 35.69140625 -0.00341797 C36.82054443 -0.0054422 37.94968262 -0.00746643 39.11303711 -0.009552 C40.15081299 -0.00639984 41.18858887 -0.00324768 42.2578125 0 C43.1763501 0.00079559 44.0948877 0.00159119 45.04125977 0.00241089 C47.12890625 0.12939453 47.12890625 0.12939453 48.12890625 1.12939453 C48.12890625 8.05939453 48.12890625 14.98939453 48.12890625 22.12939453 C30.30890625 22.12939453 12.48890625 22.12939453 -5.87109375 22.12939453 C-5.87109375 0.00508526 -5.87109375 0.00508526 0 0 Z " transform="translate(400.87109375,196.87060546875)"/>
  <path d="M0 0 C5.1367532 4.44362384 7.96290878 9.83591731 11.1875 15.75 C12.32947669 17.80928881 13.47271952 19.86787596 14.6171875 21.92578125 C15.18276367 22.94623535 15.74833984 23.96668945 16.33105469 25.01806641 C18.76221139 29.36185633 21.27649364 33.65430186 23.8125 37.9375 C24.23877686 38.6584082 24.66505371 39.37931641 25.10424805 40.12207031 C26.06774166 41.74908865 27.0335632 43.37472817 28 45 C24.60063328 48.88999697 20.77568943 50.9401018 16.25 53.25 C15.55261719 53.61351562 14.85523438 53.97703125 14.13671875 54.3515625 C12.42794346 55.24106197 10.71443502 56.12145867 9 57 C3.8123415 49.5626294 -0.66672788 41.75890701 -5.125 33.875 C-5.83432834 32.62612762 -6.54396212 31.37742868 -7.25390625 30.12890625 C-8.59524469 27.7699845 -9.93217798 25.40875886 -11.26660156 23.04589844 C-12.64778599 20.6189045 -14.06120841 18.21786322 -15.4921875 15.8203125 C-17 13 -17 13 -17 10 C-15.43945312 8.74145508 -15.43945312 8.74145508 -13.28125 7.51953125 C-12.51425781 7.07802734 -11.74726563 6.63652344 -10.95703125 6.18164062 C-10.14621094 5.72982422 -9.33539063 5.27800781 -8.5 4.8125 C-7.68917969 4.34908203 -6.87835938 3.88566406 -6.04296875 3.40820312 C-4.03412709 2.26198171 -2.01991195 1.12656228 0 0 Z " transform="translate(159,31)"/>
  <path d="M0 0 C3.30240994 0.66000852 5.83637713 1.88810012 8.75390625 3.5546875 C9.68259521 4.08231689 10.61128418 4.60994629 11.56811523 5.15356445 C12.55626221 5.72163818 13.54440918 6.28971191 14.5625 6.875 C15.57578369 7.4527417 16.58906738 8.0304834 17.63305664 8.62573242 C27.11395205 14.03989482 36.5649828 19.50633188 46 25 C45.42334609 29.7871428 43.35917004 33.25128824 40.9375 37.3125 C40.56044922 37.95767578 40.18339844 38.60285156 39.79492188 39.26757812 C38.86962507 40.84878152 37.93567319 42.4249146 37 44 C32.84572802 44 31.74439319 43.56703688 28.28125 41.578125 C27.35771729 41.0524292 26.43418457 40.5267334 25.48266602 39.98510742 C24.49838623 39.41252197 23.51410645 38.83993652 22.5 38.25 C21.48929443 37.67032471 20.47858887 37.09064941 19.43725586 36.4934082 C9.54549186 30.79609177 -0.24912191 24.93468381 -10 19 C-8.40376856 14.60616294 -6.21975667 10.71004193 -3.875 6.6875 C-3.50246094 6.04232422 -3.12992187 5.39714844 -2.74609375 4.73242188 C-1.83367787 3.15324055 -0.91724491 1.57638136 0 0 Z " transform="translate(83,100)"/>
  <path d="M0 0 C2.42169243 1.24096677 4.83705119 2.49223371 7.25 3.75 C8.27287109 4.27207031 8.27287109 4.27207031 9.31640625 4.8046875 C9.98027344 5.15273438 10.64414062 5.50078125 11.328125 5.859375 C11.9355957 6.17358398 12.54306641 6.48779297 13.16894531 6.81152344 C15.42559891 8.27624206 17.15333413 10.05351435 19 12 C14.99018172 18.9071892 10.96540014 25.80546004 6.92919922 32.69726562 C5.11175675 35.80867562 3.30716069 38.92722931 1.50390625 42.046875 C0.44075831 43.86496601 -0.62301107 45.68269382 -1.6875 47.5 C-2.17959961 48.35948242 -2.67169922 49.21896484 -3.17871094 50.10449219 C-3.63922852 50.88469727 -4.09974609 51.66490234 -4.57421875 52.46875 C-4.97213623 53.15388672 -5.37005371 53.83902344 -5.7800293 54.54492188 C-6.18261963 55.02509766 -6.58520996 55.50527344 -7 56 C-10.15540097 56 -11.0933799 55.59902263 -13.7578125 54.1015625 C-14.46550781 53.70453125 -15.17320312 53.3075 -15.90234375 52.8984375 C-16.63582031 52.47820312 -17.36929687 52.05796875 -18.125 51.625 C-19.23681641 51.00625 -19.23681641 51.00625 -20.37109375 50.375 C-25.87096421 47.25807159 -25.87096421 47.25807159 -27 45 C-25.91113281 42.671875 -25.91113281 42.671875 -24.203125 39.75 C-23.57873535 38.67419678 -22.9543457 37.59839355 -22.31103516 36.48999023 C-21.62435131 35.32646659 -20.93733304 34.16314026 -20.25 33 C-19.56120452 31.82197747 -18.87289258 30.64367208 -18.18505859 29.46508789 C-2.27604987 2.27604987 -2.27604987 2.27604987 0 0 Z" transform="translate(340,31)"/>
  <path d="M0 0 C2.89654589 2.14826184 4.41290274 5.13456707 6.13549805 8.22705078 C6.50739258 8.85224609 6.87928711 9.47744141 7.26245117 10.12158203 C9.85024918 14.68034723 9.85024918 14.68034723 9.74169922 17.35595703 C8.38359369 20.30675979 6.45006905 21.10380695 3.63549805 22.67236328 C2.55139648 23.28587646 1.46729492 23.89938965 0.3503418 24.53149414 C-0.82530151 25.18026306 -2.00108543 25.82877722 -3.17700195 26.47705078 C-4.36394826 27.14311798 -5.55014467 27.81052323 -6.7355957 28.47924805 C-8.51843441 29.48451914 -10.30181832 30.48866682 -12.08813477 31.48774719 C-17.88518413 34.73121686 -23.59033942 38.12135651 -29.2746582 41.55761719 C-33.96131911 44.35205078 -33.96131911 44.35205078 -36.17700195 44.35205078 C-38.1947934 41.78501818 -39.76565078 38.909004 -41.42700195 36.10205078 C-42.1540332 34.93609375 -42.1540332 34.93609375 -42.89575195 33.74658203 C-43.3443457 32.99248047 -43.79293945 32.23837891 -44.25512695 31.46142578 C-44.67181641 30.77016602 -45.08850586 30.07890625 -45.51782227 29.36669922 C-46.17700195 27.35205078 -46.17700195 27.35205078 -45.50268555 25.22558594 C-43.28902501 22.09710878 -39.88014493 20.7053043 -36.55200195 18.97705078 C-30.87702604 15.9543175 -25.2860466 12.84989623 -19.78637695 9.51611328 C-18.71081543 8.86819824 -17.63525391 8.2202832 -16.52709961 7.55273438 C-14.39453777 6.2628654 -12.26902478 4.96126237 -10.15112305 3.64746094 C-9.17224121 3.06013184 -8.19335938 2.47280273 -7.18481445 1.86767578 C-6.3148584 1.33432617 -5.44490234 0.80097656 -4.54858398 0.25146484 C-2.17700195 -0.64794922 -2.17700195 -0.64794922 0 0 Z " transform="translate(119.177001953125,272.64794921875)"/>
  <path d="M0 0 C1.99033574 2.59392441 3.54251945 5.49025182 5.1875 8.3125 C5.66380859 9.09818359 6.14011719 9.88386719 6.63085938 10.69335938 C7.07623047 11.45068359 7.52160156 12.20800781 7.98046875 12.98828125 C8.59764771 14.03302612 8.59764771 14.03302612 9.22729492 15.09887695 C10 17 10 17 9 20 C6.55419922 21.66650391 6.55419922 21.66650391 3.3046875 23.4765625 C2.72449356 23.80361679 2.14429962 24.13067108 1.54652405 24.46763611 C-0.33933603 25.52863562 -2.23192477 26.57693738 -4.125 27.625 C-6.69076253 29.06031705 -9.25353603 30.50093283 -11.81640625 31.94140625 C-12.44415451 32.29301315 -13.07190277 32.64462006 -13.71867371 33.00688171 C-19.7337556 36.3860137 -25.58971121 39.98995637 -31.41015625 43.69140625 C-32.26480469 44.12324219 -33.11945313 44.55507812 -34 45 C-38.50397033 43.49867656 -39.56711767 40.19135647 -41.8125 36.1875 C-42.24498047 35.46240234 -42.67746094 34.73730469 -43.12304688 33.99023438 C-43.52201172 33.28576172 -43.92097656 32.58128906 -44.33203125 31.85546875 C-44.70046143 31.21246826 -45.0688916 30.56946777 -45.44848633 29.90698242 C-46 28 -46 28 -45.46850586 25.98461914 C-43.43524554 23.23675993 -41.15409467 22.05318337 -38.171875 20.390625 C-37.58641907 20.06012146 -37.00096313 19.72961792 -36.39776611 19.38909912 C-34.52073067 18.33244695 -32.63576031 17.29098609 -30.75 16.25 C-29.52808019 15.56611384 -28.30672025 14.88122632 -27.0859375 14.1953125 C-24.64079717 12.8225192 -22.19167064 11.45721581 -19.74023438 10.09570312 C-17.15435805 8.65463533 -14.58538235 7.18772999 -12.02539062 5.70117188 C-11.38418274 5.3297406 -10.74297485 4.95830933 -10.08233643 4.57562256 C-8.85395756 3.86230982 -7.6275834 3.14553062 -6.40350342 2.42486572 C-2.22115073 0 -2.22115073 0 0 0 Z " transform="translate(417,100)"/>
  <path d="M0 0 C4.09654209 1.25306434 7.62260557 2.76496628 11.30859375 4.94140625 C12.29666016 5.52100098 13.28472656 6.1005957 14.30273438 6.69775391 C15.85444336 7.62080322 15.85444336 7.62080322 17.4375 8.5625 C18.49904297 9.19075684 19.56058594 9.81901367 20.65429688 10.46630859 C22.78087629 11.72553542 24.90638478 12.98657275 27.03076172 14.24951172 C29.64269965 15.78935672 32.26891211 17.29637441 34.91015625 18.78515625 C35.96408569 19.38831665 35.96408569 19.38831665 37.03930664 20.00366211 C38.31472587 20.73308566 39.59624774 21.45197457 40.88452148 22.15844727 C42.5625 23.1328125 42.5625 23.1328125 45 25 C45 28.88179262 44.85153352 29.75569228 43.03125 32.890625 C42.62519531 33.59960938 42.21914063 34.30859375 41.80078125 35.0390625 C41.37152344 35.76867187 40.94226563 36.49828125 40.5 37.25 C40.07074219 37.99507813 39.64148438 38.74015625 39.19921875 39.5078125 C38.14046836 41.34297984 37.071238 43.1720939 36 45 C32.05052737 43.53125568 28.4990938 41.67763105 24.84375 39.5859375 C24.26016724 39.25260406 23.67658447 38.91927063 23.07531738 38.57583618 C21.8406645 37.8696537 20.60691586 37.16188822 19.37402344 36.45263672 C17.53547032 35.39539682 15.69380243 34.34376815 13.8515625 33.29296875 C5.80028896 28.6863373 -2.12904821 23.90864169 -10 19 C-9.09716724 14.82952823 -7.13751919 11.46347246 -5 7.8125 C-4.44699219 6.85053711 -4.44699219 6.85053711 -3.8828125 5.86914062 C-1.15472274 1.15472274 -1.15472274 1.15472274 0 0 Z " transform="translate(381,272)"/>
  <path d="M0 0 C7.26 0 14.52 0 22 0 C22 17.49 22 34.98 22 53 C14.74 53 7.48 53 0 53 C0 35.51 0 18.02 0 0 Z " transform="translate(239,10)"/>
  <path d="M0 0 C-1.59092052 4.13639336 -4.60474918 7.23213248 -8 10 C-8.66 10 -9.32 10 -10 10 C-8.50006099 6.10015857 -4.53875449 0 0 0 Z " transform="translate(167,115)"/>
</g>
</svg>
