<?xml version="1.0" standalone="no"?>
<!DOCTYPE svg PUBLIC "-//W3C//DTD SVG 20010904//EN"
 "http://www.w3.org/TR/2001/REC-SVG-20010904/DTD/svg10.dtd">
<svg version="1.0" xmlns="http://www.w3.org/2000/svg"
 width="512.000000pt" height="512.000000pt" viewBox="0 0 512.000000 512.000000"
 preserveAspectRatio="xMidYMid meet">
<defs>
  <linearGradient id="MainGradient">
    <stop offset="0%" stop-color="rgb(239,101,249)" />
    <stop offset="33%" stop-color="rgb(138,56,239)" />
    <stop offset="66%" stop-color="rgb(21,18,226)" />
  </linearGradient>
</defs>
<g transform="translate(0.000000,512.000000) scale(0.100000,-0.100000)"
fill="url(#MainGradient)" stroke="none">
<path d="M980 4981 c-91 -28 -181 -104 -226 -193 -22 -42 -28 -71 -32 -139 -6
-110 12 -167 81 -257 102 -136 114 -207 59 -374 -64 -196 -63 -360 3 -567 45
-144 55 -196 55 -301 0 -105 -10 -157 -55 -301 -67 -209 -67 -369 0 -578 45
-144 55 -196 55 -301 0 -105 -10 -157 -55 -301 -66 -205 -67 -369 -5 -563 50
-155 39 -228 -55 -354 -72 -97 -89 -150 -83 -261 4 -68 10 -97 32 -139 38 -74
86 -124 156 -161 138 -74 290 -58 415 44 62 50 104 68 175 73 56 4 82 -1 177
-32 217 -70 374 -68 600 6 l128 42 155 0 155 0 128 -42 c226 -74 379 -76 599
-6 162 51 222 41 360 -63 90 -69 147 -87 257 -81 102 5 167 34 236 103 69 69
98 134 103 236 6 110 -12 167 -81 257 -104 138 -114 198 -63 361 68 213 68
372 1 580 -49 154 -59 216 -52 344 4 95 11 132 46 240 76 236 75 382 -1 615
-42 127 -42 127 -42 282 0 155 0 155 42 282 75 230 77 377 6 600 -51 162 -41
223 63 360 69 90 87 147 81 257 -5 102 -34 167 -103 236 -69 69 -134 98 -236
103 -109 5 -168 -12 -253 -78 -141 -108 -199 -118 -364 -66 -220 70 -373 68
-599 -6 l-128 -42 -155 0 -155 0 -128 42 c-226 74 -379 76 -599 6 -166 -52
-219 -43 -361 64 -35 27 -86 57 -112 66 -51 17 -179 21 -225 7z m217 -80 c23
-11 71 -42 106 -69 127 -97 227 -111 398 -54 190 62 344 62 536 1 137 -44 216
-59 319 -59 112 0 179 12 315 55 203 65 354 66 548 3 171 -57 271 -43 398 54
90 69 135 88 214 88 94 0 154 -24 215 -85 60 -60 86 -125 85 -215 0 -73 -22
-126 -89 -213 -97 -127 -111 -227 -55 -398 64 -194 64 -341 2 -536 -44 -138
-59 -217 -59 -323 0 -106 15 -185 59 -322 62 -196 62 -343 -4 -547 -76 -239
-75 -387 4 -633 62 -194 61 -345 -1 -536 -57 -172 -43 -272 54 -399 69 -90 88
-135 88 -214 0 -93 -24 -154 -84 -215 -61 -60 -122 -84 -215 -84 -79 0 -124
19 -214 88 -127 97 -227 111 -398 54 -193 -63 -344 -62 -548 3 -146 46 -196
55 -311 55 -115 0 -165 -9 -311 -55 -207 -66 -357 -66 -558 1 -174 57 -273 45
-402 -50 -84 -62 -139 -82 -222 -79 -112 3 -226 86 -261 190 -22 65 -20 167 4
221 11 24 40 69 65 101 90 115 106 227 55 386 -61 192 -60 343 5 544 43 136
55 203 55 317 0 108 -9 161 -55 305 -66 206 -66 352 0 558 46 144 55 197 55
305 0 114 -12 181 -55 317 -67 207 -66 349 1 562 31 96 35 121 30 175 -7 77
-33 140 -92 214 -24 31 -53 76 -64 100 -25 54 -26 156 -4 222 22 63 104 147
164 169 64 22 175 21 227 -2z"/>
<path d="M1336 4480 c-15 -5 -37 -17 -48 -27 -51 -46 -48 50 -48 -1773 0
-1887 -5 -1747 65 -1790 32 -20 47 -20 1255 -20 1208 0 1223 0 1255 20 70 43
65 -96 65 1787 0 1597 -1 1700 -18 1732 -9 19 -30 44 -45 55 -28 21 -32 21
-1240 23 -667 1 -1225 -2 -1241 -7z m2449 -85 l25 -24 0 -1131 0 -1132 -39 31
c-44 35 -137 81 -164 81 -10 0 -27 4 -37 10 -17 9 -95 134 -122 195 -10 23
-14 169 -18 620 -6 583 -6 591 -29 660 -45 135 -98 223 -196 320 -102 102
-183 154 -298 190 -289 92 -594 15 -795 -200 -70 -74 -133 -175 -163 -261 -46
-129 -48 -171 -49 -874 l0 -666 -31 -18 c-17 -10 -60 -46 -96 -79 -85 -80
-363 -394 -363 -410 0 -17 20 -37 37 -37 7 0 85 82 174 183 148 166 227 247
243 247 3 0 6 -15 6 -33 0 -51 27 -146 63 -217 43 -87 141 -185 233 -233 101
-52 174 -67 338 -67 127 0 138 -1 132 -18 -3 -9 -21 -62 -40 -117 -37 -106
-66 -248 -66 -324 0 -25 -3 -70 -6 -98 l-7 -53 -583 0 c-571 0 -584 0 -604 20
-20 20 -20 33 -20 1715 l0 1696 25 24 24 25 1201 0 1201 0 24 -25z m-1150
-516 c127 -23 239 -109 298 -229 l32 -65 0 -320 0 -320 -32 -66 c-127 -258
-461 -315 -660 -113 -61 63 -98 137 -112 225 -14 83 -14 465 -1 548 27 166
148 295 315 337 64 16 88 16 160 3z m255 -1978 c-44 -45 -110 -128 -146 -182
l-66 -99 -150 0 c-178 0 -261 16 -345 66 -75 46 -117 85 -165 159 -52 79 -80
174 -76 256 l3 64 72 36 c40 20 132 54 205 75 146 43 179 60 221 121 24 33 31
55 35 112 l5 71 51 -6 c69 -8 182 17 256 57 32 17 85 58 117 93 l58 61 2 -400
3 -400 -80 -84z m727 243 c68 -23 126 -66 162 -120 l31 -47 0 -499 c0 -485 -1
-499 -20 -518 -19 -19 -33 -20 -434 -20 l-414 0 14 63 c8 34 21 85 29 114 19
65 19 99 0 107 -40 15 -56 -20 -109 -256 l-6 -28 -135 0 -135 0 0 101 c0 361
197 734 505 954 80 58 204 124 273 146 72 23 177 24 239 3z"/>
<path d="M3609 1773 c-39 -37 -99 -111 -134 -163 -103 -154 -117 -200 -61
-200 20 0 30 9 47 43 46 90 115 185 191 264 82 84 95 115 50 121 -16 3 -41
-14 -93 -65z"/>
<path d="M3213 1738 c-49 -52 -120 -165 -174 -274 -53 -110 -57 -125 -34 -144
26 -21 42 -4 93 103 48 102 104 192 166 270 24 30 28 42 20 55 -18 28 -38 25
-71 -10z"/>
<path d="M1973 759 c-45 -13 -63 -52 -63 -134 0 -60 3 -69 29 -96 l29 -29 592
0 592 0 29 29 c26 27 29 36 29 96 0 85 -18 121 -68 134 -47 14 -1123 13 -1169
0z m252 -93 c8 -18 26 -48 41 -65 l26 -32 -153 3 -154 3 -3 54 c-2 37 1 57 10
62 7 5 59 9 116 9 l103 0 14 -34z"/>
</g>
</svg>
