<?xml version="1.0" encoding="UTF-8"?>
<svg version="1.1" viewBox="0 0 1600 1600" width="1280" height="1280" xmlns="http://www.w3.org/2000/svg">
<path transform="translate(141 -.254)" d="m0 0c1.4-0.00477 1.4-0.00477 2.83-0.00963 3.15-0.00825 6.29-0.0022 9.44 0.00372 2.28-3e-3 4.56-0.00686 6.84-0.0115 6.31-0.0103 12.6-0.00811 18.9-0.00394 6.14 0.00309 12.3-0.00515 18.4-0.0121 12.7-0.0141 25.4-0.0187 38.2-0.018 12.9 6.21e-4 25.8-0.00305 38.7-0.012 0.814-5.6e-4 1.63-0.00112 2.47-0.0017 3.31-0.00229 6.63-0.00461 9.94-0.00696 34.6-0.0245 69.2-0.0347 104-0.0395 3.73-5.24e-4 7.45-0.00105 11.2-0.00158 1.39-1.94e-4 1.39-1.94e-4 2.8-3.91e-4 20.5-0.0029 40.9-0.00906 61.4-0.0157 8.43-0.00272 16.9-0.00535 25.3-0.00799 1.4-4.36e-4 1.4-4.36e-4 2.82-8.82e-4 53.4-0.0166 107-0.0285 160-0.0309 2-9.46e-5 4-1.9e-4 5.99-2.85e-4 9.02-4.28e-4 18-8.33e-4 27.1-0.00124 4.02-1.82e-4 8.04-3.66e-4 12.1-5.52e-4 2.01-9.2e-5 4.03-1.82e-4 6.04-2.71e-4 63.7-0.00281 127-0.0245 191-0.0614 47.5-0.0275 94.9-0.0534 142-0.0599 0.955-1.33e-4 1.91-2.67e-4 2.9-4.04e-4 21-0.00287 41.9-0.00429 62.9-0.00436 7.5-3.97e-5 15-1.97e-4 22.5-4.15e-4 1.87-5.36e-5 3.73-1.02e-4 5.6-1.44e-4 29.8-7.44e-4 59.5-0.0164 89.3-0.0396 30-0.0233 59.9-0.0305 89.9-0.0158 4.14 0.00203 8.28 0.00388 12.4 0.00563 1.22 5.25e-4 1.22 5.25e-4 2.46 0.00106 12.9 0.00509 25.7-0.00662 38.6-0.0253 12.6-0.018 25.3-0.0182 37.9 5.62e-4 6.76 0.00956 13.5 0.0106 20.3-0.00997 6.15-0.0186 12.3-0.0142 18.5 0.00859 2.21 0.00416 4.42-6.97e-5 6.64-0.0137 17.1-0.0982 29.9 1.84 43.2 13.6 11.3 11.4 14.2 24.1 14.1 39.6 0.00153 1.06 0.00305 2.12 0.00463 3.21 0.00391 3.57 6.79e-4 7.14-0.00249 10.7 0.00135 2.59 0.00313 5.18 0.00531 7.77 0.00405 5.66 0.00438 11.3 0.00229 17-0.0031 8.47-4.64e-4 16.9 0.0033 25.4 0.00624 14.4 0.00771 28.9 0.00658 43.3-0.00112 14.6-9.32e-5 29.3 0.00357 43.9 2.3e-4 0.923 4.59e-4 1.85 6.96e-4 2.8 9.42e-4 3.76 0.0019 7.52 0.00287 11.3 0.0102 39.2 0.0132 78.5 0.0138 118 6.47e-5 4.23 1.33e-4 8.45 2.03e-4 12.7 1.7e-5 1.05 3.4e-5 2.1 5.15e-5 3.18 4.08e-4 23.2 0.0026 46.4 0.0051 69.7 0.00103 9.56 0.00202 19.1 0.00302 28.7 1.66e-4 1.58 1.66e-4 1.58 3.35e-4 3.2 0.00633 60.5 0.0104 121 0.00999 182-1.58e-5 2.27-3.15e-5 4.53-4.72e-5 6.8-7.34e-5 10.2-1.62e-4 20.5-2.54e-4 30.7-4.11e-5 4.56-8.13e-5 9.12-1.21e-4 13.7-2.04e-5 2.28-4.14e-5 4.57-6.31e-5 6.85-6.8e-4 72.2 0.00664 144 0.0205 217 0.0035 18.2 0.00697 36.4 0.0103 54.6 3.04e-4 1.68 3.04e-4 1.68 6.15e-4 3.4 0.00621 34.5 0.00998 69 0.0112 104 4e-5 1.08 7.99e-5 2.17 1.21e-4 3.28 8.53e-4 23.8 0.00111 47.6 8.3e-4 71.4-9.65e-5 8.51-1.49e-4 17-1.79e-4 25.5-7.91e-6 2.12-1.81e-5 4.23-3.06e-5 6.35-1.76e-4 33.8 0.00553 67.5 0.0142 101 0.00864 34 0.0108 68 0.00424 102-9.12e-4 4.69-0.00176 9.39-0.00256 14.1-2.4e-4 1.38-2.4e-4 1.38-4.85e-4 2.79-0.00236 14.6 0.00201 29.2 0.00916 43.8 0.00688 14.3 0.00666 28.7-0.00119 43-0.00439 8.41-0.00329 16.8 0.00587 25.2 0.00618 6.24 0.00198 12.5-0.00633 18.7-0.00173 2.51-7.56e-5 5.02 0.0053 7.54 0.0068 3.41 0.00129 6.81-0.00727 10.2 0.0049 0.97 0.0098 1.94 0.0148 2.94-0.0706 13.5-3.02 26.5-12.5 36.5-10.7 9.73-23.4 14.7-37.8 14.7-0.928 0.00178-1.86 0.00355-2.81 0.00538-3.14 0.00477-6.28 0.00236-9.42 4.11e-5 -2.27 0.00195-4.54 0.00434-6.81 0.00713-6.29 0.00642-12.6 0.00656-18.9 0.00572-6.12-3.35e-4 -12.2 0.00498-18.4 0.00966-12.7 0.00952-25.3 0.0142-38 0.0163-12.9 0.00213-25.7 0.00638-38.6 0.0132-0.811 4.31e-4 -1.62 8.61e-4 -2.46 0.0013-3.3 0.00176-6.6 0.00353-9.91 0.00531-40 0.0216-80.1 0.0325-120 0.0415-13 0.00293-26 0.0063-39 0.00997-0.916 2.58e-4 -1.83 5.17e-4 -2.78 7.83e-4 -3.71 0.00105-7.41 0.00209-11.1 0.00315-63.4 0.018-127 0.0333-190 0.0408-4.98 5.84e-4 -9.96 0.00118-14.9 0.00178-0.988 1.18e-4 -1.98 2.36e-4 -2.99 3.58e-4 -10 0.0012-20 0.00241-30 0.00363-2.01 2.45e-4 -4.01 4.89e-4 -6.02 7.32e-4 -64.4 0.00779-129 0.0302-193 0.0627-46.3 0.0233-92.6 0.0449-139 0.052-0.952 1.47e-4 -1.9 2.94e-4 -2.88 4.46e-4 -20.9 0.00318-41.8 0.00524-62.7 0.00623-8.41 4.15e-4 -16.8 9.7e-4 -25.2 0.00156-0.92 6.07e-5 -1.84 1.21e-4 -2.79 1.84e-4 -29.7 0.00202-59.3 0.0163-89 0.0368-29.9 0.0206-59.7 0.0285-89.6 0.0189-4.13-0.00132-8.25-0.0025-12.4-0.00359-0.809-2.2e-4 -1.62-4.4e-4 -2.45-6.66e-4 -12.8-0.00312-25.6 0.00722-38.4 0.0231-12.6 0.0154-25.2 0.0165-37.8 0.00245-6.74-0.00713-13.5-0.00746-20.2 0.00956-6.13 0.0154-12.3 0.0123-18.4-0.00541-2.21-0.00315-4.41 4.18e-4 -6.62 0.0115-17.6 0.0824-32.6-2.1-46.1-14.4-7.51-8.16-12-18-13.1-29-0.0798-0.768-0.16-1.54-0.242-2.33-1.03-11.1-0.861-22.2-0.838-33.3-0.00209-2.57-0.00505-5.13-0.00881-7.7-0.00675-5.57-0.00615-11.1-6.33e-4 -16.7 0.00823-8.35 0.00482-16.7-7.65e-4 -25-0.00918-14.2-0.00891-28.5-0.00344-42.7 0.00551-14.4 0.00666-28.8 0.00253-43.2-2.58e-4 -0.911-5.17e-4 -1.82-7.83e-4 -2.76-0.00107-3.71-0.00216-7.42-0.0033-11.1-0.0106-34.5-0.0113-69.1-0.00571-104 1.66e-4 -1.02 3.31e-4 -2.05 5.02e-4 -3.1 1.66e-4 -1.02 3.32e-4 -2.05 5.03e-4 -3.11 0.00505-31.2 0.00635-62.4 0.00395-93.7-1.55e-4 -2.09-3.09e-4 -4.18-4.63e-4 -6.27-6.21e-4 -8.4-0.00126-16.8-0.00192-25.2-0.00183-23.5-0.00298-47-0.00357-70.5-2.73e-5 -1.07-5.46e-5 -2.14-8.27e-5 -3.24-8.18e-4 -34.1 0.00143-68.2 0.00578-102 1.4e-4 -1.11 2.81e-4 -2.21 4.26e-4 -3.35 0.00229-18 0.00473-35.9 0.00718-53.9 0.00971-71.2 0.00926-142-4.61e-4 -214-0.00244-17.9-0.00486-35.9-0.00714-53.8-1.41e-4 -1.1-2.82e-4 -2.21-4.27e-4 -3.35-0.00431-34-0.00614-68.1-0.00527-102 2.72e-5 -1.07 5.43e-5 -2.14 8.23e-5 -3.24 6.25e-4 -23.5 0.00189-46.9 0.00374-70.4 6.58e-4 -8.4 0.00128-16.8 0.0019-25.2 1.55e-4 -2.09 3.12e-4 -4.18 4.72e-4 -6.27 0.00239-31.2 3.55e-4 -62.4-0.0047-93.6-1.66e-4 -1.02-3.31e-4 -2.05-5.02e-4 -3.1-1.65e-4 -1.02-3.31e-4 -2.04-5.01e-4 -3.09-0.00552-34.4-0.00349-68.9 0.00706-103 0.0011-3.7 0.00218-7.4 0.00323-11.1 2.6e-4 -0.908 5.21e-4 -1.82 7.89e-4 -2.75 0.00394-14.4 0.0012-28.7-0.00433-43.1-0.00529-14.1-0.00343-28.3 0.00603-42.4 0.00533-8.28 0.00523-16.6-0.00296-24.9-0.00548-6.15-4.96e-4 -12.3 0.00851-18.5 0.00201-2.47 6.89e-4 -4.94-0.00441-7.41-0.0713-37.2-0.0713-37.2 6.26-47.8 0.41-0.732 0.82-1.46 1.24-2.22 6.15-10.2 14.7-16.7 25.8-20.8 0.853-0.345 1.71-0.69 2.58-1.04 4.32-1.21 8.25-1.23 12.7-1.21zm135 180c-0.825 0.887-1.65 1.77-2.5 2.69-0.727 0.754-0.727 0.754-1.47 1.52-8.37 9.1-11.9 19.9-11.8 32.1-0.00305 0.832-0.00611 1.66-0.00925 2.52-0.00779 2.79-0.00137 5.58 0.00498 8.37-0.00269 2.03-0.00626 4.06-0.0106 6.08-0.00947 5.59-0.00645 11.2-0.00144 16.8 0.00326 6.08-0.00501 12.2-0.0118 18.2-0.0103 10.7-0.0132 21.3-0.0111 32 0.00225 11.4 1.82e-4 22.9-0.00714 34.3-4.59e-4 0.722-9.19e-4 1.44-0.00139 2.19-0.00188 2.94-0.00379 5.88-0.00574 8.83-0.0203 30.7-0.0264 61.4-0.0276 92.1-1.29e-4 3.3-2.65e-4 6.61-4.07e-4 9.91-3.4e-5 0.82-6.8e-5 1.64-1.03e-4 2.48-8.17e-4 18.2-0.0052 36.3-0.0102 54.5-0.00206 7.48-0.00404 15-0.00603 22.4-2.21e-4 0.826-4.42e-4 1.65-6.7e-4 2.5-0.0126 47.4-0.0209 94.7-0.02 142 3.16e-5 1.77 6.3e-5 3.55 9.44e-5 5.32 1.47e-4 8 3.23e-4 16 5.08e-4 24 8.22e-5 3.57 1.63e-4 7.14 2.43e-4 10.7 4.08e-5 1.79 8.28e-5 3.57 1.26e-4 5.36 0.00136 56.5-0.0133 113-0.0411 169-7e-3 14.2-0.0139 28.5-0.0205 42.7-4.06e-4 0.876-8.11e-4 1.75-0.00123 2.66-0.0124 27-0.02 54-0.0225 81-7.99e-5 0.848-1.6e-4 1.7-2.42e-4 2.57-0.00171 18.6-0.00223 37.2-0.00166 55.8 1.93e-4 6.66 2.97e-4 13.3 3.57e-4 20 1.58e-5 1.66 3.62e-5 3.31 6.12e-5 4.97 3.53e-4 26.4-0.011 52.8-0.0283 79.2-0.0173 26.6-0.0217 53.2-0.00848 79.8 0.00182 3.67 0.00351 7.35 0.00512 11 3.2e-4 0.72 6.4e-4 1.44 9.7e-4 2.18 0.00471 11.4-0.00401 22.8-0.0183 34.2-0.0138 11.2-0.013 22.4 0.00238 33.6 0.00779 6 0.00923 12-0.00691 18-0.0146 5.46-0.0107 10.9 0.00785 16.4 0.00344 1.96 1.95e-4 3.92-0.0106 5.88-0.0906 17.6 2.48 30.6 14.9 44 13.3 12.6 30.4 13.3 47.6 13.3 1.65 0.00104 3.3 0.00253 4.94 0.0044 4.54 0.0039 9.08 0.00156 13.6-0.00178 4.94-0.00253 9.87 7.22e-4 14.8 0.00324 8.65 0.00362 17.3 0.0035 26 9.53e-4 12.9-0.00378 25.7-0.00185 38.6 0.00121 23 0.00527 46 0.00481 69 0.00192 20.1-0.00252 40.3-0.00317 60.4-0.00198 1.35 7.75e-5 2.7 1.55e-4 4.04 2.31e-4 5.42 3.1e-4 10.8 6.29e-4 16.3 9.6e-4 15.1 9.17e-4 30.3 0.00149 45.4 0.00179 0.69 1.36e-5 1.38 2.73e-5 2.09 4.14e-5 22 4.09e-4 44-7.18e-4 66-0.00289 0.713-7.02e-5 1.43-1.4e-4 2.16-2.13e-4 11.6-0.00114 23.2-0.00236 34.7-0.00359 45.9-0.00485 91.8-0.00464 138 2.31e-4 11.6 0.00122 23.1 0.00243 34.7 0.00357 1.07 1.06e-4 1.07 1.06e-4 2.16 2.13e-4 21.9 0.00216 43.9 0.00307 65.8 0.00264 0.69-1.36e-5 1.38-2.72e-5 2.09-4.12e-5 15.1-3.13e-4 30.3-9.46e-4 45.4-0.00187 5.42-3.29e-4 10.8-6.42e-4 16.3-9.51e-4 1.35-7.74e-5 2.7-1.56e-4 4.04-2.36e-4 20.8-0.00123 41.5-1.45e-5 62.3 0.0026 22.9 0.00286 45.8 0.00213 68.6-0.00328 12.8-0.00293 25.6-0.00314 38.4 6.46e-4 8.56 0.00225 17.1 8.25e-4 25.7-0.0035 4.87-0.00236 9.73-0.00323 14.6 4.06e-4 11.4 0.00769 22.9-0.018 34.3-0.131 0.703-0.00637 1.41-0.0127 2.13-0.0193 4.54-0.0443 9.08-0.13 13.6-0.239 1.08-0.0136 2.16-0.0272 3.28-0.0412 14.6-0.453 25.8-6.03 35.8-16.5 8.4-9.78 11.5-21.3 11.4-33.9 0.0028-0.832 0.00561-1.66 0.0085-2.52 0.00695-2.78-3.07e-4 -5.56-0.00751-8.35 0.00209-2.03 0.00505-4.05 0.00881-6.08 0.0078-5.58 0.00312-11.2-0.00356-16.7-0.00506-6.07 0.00144-12.1 0.00649-18.2 0.00723-10.6 0.00707-21.3 0.00191-31.9-0.0055-11.4-0.00666-22.8-0.00253-34.2 3.88e-4 -1.08 3.88e-4 -1.08 7.83e-4 -2.18 0.00107-2.94 0.00216-5.87 0.0033-8.81 0.0106-27.4 0.0113-54.7 0.00571-82.1-2.48e-4 -1.22-2.48e-4 -1.22-5.02e-4 -2.46-1.66e-4 -0.812-3.32e-4 -1.62-5.03e-4 -2.46-0.00504-24.7-0.00635-49.4-0.00395-74.2 1.55e-4 -1.65 3.09e-4 -3.31 4.63e-4 -4.96 6.21e-4 -6.65 0.00126-13.3 0.00192-19.9 0.00183-18.6 0.00298-37.2 0.00357-55.8 4.09e-5 -1.27 4.09e-5 -1.27 8.27e-5 -2.57 8.19e-4 -27-0.00144-54-0.00578-80.9-1.4e-4 -0.875-2.81e-4 -1.75-4.26e-4 -2.65-0.00229-14.2-0.00473-28.4-0.00718-42.6-0.00971-56.4-0.00926-113 4.61e-4 -169 0.00244-14.2 0.00486-28.4 0.00714-42.6 1.41e-4 -0.875 2.82e-4 -1.75 4.27e-4 -2.65 0.00431-27 0.00614-53.9 0.00527-80.9-2.72e-5 -0.846-5.43e-5 -1.69-8.23e-5 -2.56-6.25e-4 -18.6-0.00189-37.1-0.00374-55.7-6.58e-4 -6.64-0.00128-13.3-0.0019-19.9-1.55e-4 -1.65-3.12e-4 -3.31-4.72e-4 -4.96-0.00239-24.7-3.52e-4 -49.4 0.0047-74.1 1.66e-4 -0.811 3.31e-4 -1.62 5.02e-4 -2.46 1.65e-4 -0.809 3.31e-4 -1.62 5.01e-4 -2.45 0.00551-27.3 0.00349-54.5-0.00706-81.8-0.0011-2.93-0.00218-5.85-0.00323-8.78-3.91e-4 -1.08-3.91e-4 -1.08-7.89e-4 -2.18-0.00395-11.4-0.00119-22.8 0.00433-34.2 0.00528-11.2 0.00328-22.4-0.00603-33.6-0.00478-5.99-0.00634-12 8.12e-4 -18 0.00644-5.44 0.00375-10.9-0.00636-16.3-0.00202-1.96-6.63e-4 -3.92 0.00441-5.88 0.00639-2.66 4.95e-4 -5.31-0.00848-7.97 0.00478-0.759 0.00956-1.52 0.0145-2.3-0.0861-12.5-5.36-24.6-13.8-33.7-14.6-13.4-31.7-13.9-50.5-13.8-1.69-0.00179-3.38-0.00445-5.07-0.0079-4.62-0.00693-9.25-0.00148-13.9 0.00606-5.04 0.00599-10.1 3.35e-4 -15.1-0.00382-8.82-0.00568-17.6-0.00394-26.5 0.00269-13.1 0.00983-26.2 0.00818-39.4 0.00425-22.1-0.00627-44.2-0.00313-66.2 0.00559-21.9 0.00862-43.7 0.0135-65.6 0.0133-1.37-7.92e-6 -2.75-1.56e-5 -4.12-2.32e-5 -5.52-3.74e-5 -11-1.04e-4 -16.6-2.06e-4 -15.4-2.78e-4 -30.9 1.11e-4 -46.3 9.89e-4 -1.05 5.95e-5 -1.05 5.95e-5 -2.13 1.2e-4 -22.4 0.00131-44.8 0.00548-67.2 0.0117-1.09 3.04e-4 -1.09 3.04e-4 -2.2 6.15e-4 -11.8 0.00331-23.6 0.0068-35.4 0.0103-46.8 0.0139-93.5 0.0205-140 0.0198-1.48-2.04e-5 -2.96-4.06e-5 -4.43-6.06e-5 -2.95-4.02e-5 -5.91-8.1e-5 -8.86-1.22e-4 -6.62-9.14e-5 -13.2-1.76e-4 -19.9-2.47e-4 -1.47-1.58e-5 -2.93-3.22e-5 -4.4-4.93e-5 -39.2-4.45e-4 -78.4 0.00402-118 0.0104-0.684 1.1e-4 -1.37 2.2e-4 -2.07 3.34e-4 -9.28 0.0015-9.28 0.0015-18.6 0.00302-15 0.00249-30.1 0.00444-45.1 0.00481-0.678 1.75e-5 -1.36 3.51e-5 -2.05 5.31e-5 -2.73 6.92e-5 -5.46 1.34e-4 -8.19 1.97e-4 -25.3 5.86e-4 -50.7 0.00436-76 0.0145-13 0.00512-26.1 0.00752-39.1 6e-3 -8.71-7.34e-4 -17.4 0.00217-26.1 0.00804-4.96 0.00325-9.93 0.00493-14.9 0.00224-4.52-0.00242-9.04-2.2e-4 -13.6 0.00562-1.62 0.0013-3.24 9.35e-4 -4.87-0.00132-25.4-0.044-25.4-0.044-46.9 12.4z" fill="#000100"/>
<path transform="translate(355,262)" d="m0 0h889c0.33 340 0.66 680 1 1031-2.37-2.37-2.61-3.72-3.39-6.95-0.255-1.04-0.509-2.08-0.772-3.15-0.27-1.13-0.541-2.27-0.82-3.44-0.286-1.17-0.572-2.35-0.867-3.56-0.773-3.18-1.54-6.36-2.3-9.54-0.799-3.32-1.61-6.64-2.41-9.95-0.958-3.94-1.91-7.88-2.87-11.8-2.12-8.77-4.29-17.5-6.51-26.3-3.71-14.7-7.31-29.5-10.9-44.3-0.684-2.81-1.37-5.63-2.06-8.44-0.974-3.98-1.94-7.97-2.91-12-0.439-1.79-0.439-1.79-0.886-3.61-1.76-7.29-3.19-14.6-4.31-22-30.8 5.41-60.4 13.1-88 28-1 0.53-2.01 1.06-3.04 1.61-13.9 7.34-27 14.9-39.2 24.9-2.28 1.85-4.62 3.6-6.97 5.36-11.3 8.46-21 18.1-30.4 28.6-1.31 1.44-2.65 2.85-4 4.26-6.47 6.82-11.7 14.2-16.9 22-1.66 2.49-3.34 4.95-5.03 7.41-16.3 23.8-26.6 48.3-35.5 75.7-1.32 4.07-2.69 8.14-4.04 12.2h-95c9.68-53.3 30.3-106 62.7-149 1.86-2.51 3.65-5.06 5.46-7.6 6.07-8.29 12.7-16.1 19.6-23.7 1.42-1.56 2.83-3.14 4.23-4.73 4.83-5.49 9.9-10.7 15.1-15.9 0.661-0.665 1.32-1.33 2-2.02 21.2-21.1 46-38.7 71.8-53.6 1.95-1.13 3.88-2.28 5.81-3.44 35.1-20.8 74.7-32.3 114-40.8-1.64-4.25-3.53-8.37-5.48-12.5-0.33-0.703-0.66-1.41-1-2.13-1.05-2.23-2.1-4.46-3.15-6.69-0.714-1.52-1.43-3.04-2.14-4.56-1.74-3.71-3.49-7.42-5.23-11.1-24.8 2.7-49.2 7.41-73 15l-3 0.948c-17 5.42-33 12.2-49 20.1-0.997 0.489-1.99 0.977-3.02 1.48-20.6 10.2-40 22.2-58 36.5-0.683 0.54-1.37 1.08-2.07 1.64-11.1 8.82-21.7 17.9-31.6 28.1-2.32 2.26-2.32 2.26-4.85 4.23-2.69 2.21-4.65 4.55-6.79 7.29-2.66 3.4-5.42 6.5-8.52 9.51-4.34 4.29-7.95 8.95-11.5 13.9-0.651 0.882-1.3 1.76-1.97 2.67-1.3 1.76-2.59 3.53-3.89 5.29-1.5 2.05-3.01 4.09-4.53 6.12-6.57 8.88-12.2 18.3-17.8 27.8-0.911 1.57-1.83 3.13-2.75 4.69-25.7 43.4-39.4 92.8-45.5 143-0.146 1.2-0.292 2.39-0.443 3.62-0.186 1.59-0.186 1.59-0.376 3.21-0.385 2.39-0.385 2.39-1.39 3.39-2.86 0.0952-5.7 0.126-8.56 0.114-1.35 2.19e-4 -1.35 2.19e-4 -2.72 4.43e-4 -2.98-6.99e-4 -5.96-0.00849-8.94-0.0163-2.06-0.00186-4.12-0.00329-6.18-0.00429-5.44-0.00383-10.9-0.0137-16.3-0.0247-5.54-0.0102-11.1-0.0148-16.6-0.0198-10.9-0.0107-21.8-0.0278-32.7-0.0488-0.0103-1.58-0.0177-3.15-0.0237-4.73-0.0044-0.877-0.00881-1.75-0.0133-2.66 0.0545-3.85 0.473-7.61 0.955-11.4 0.149-1.22 0.149-1.22 0.3-2.46 0.211-1.71 0.426-3.43 0.643-5.14 0.318-2.52 0.621-5.04 0.922-7.57 1.23-9.98 2.88-19.8 4.82-29.7 0.231-1.19 0.463-2.38 0.701-3.61 0.564-2.9 1.13-5.81 1.7-8.71-1.06 0.00277-1.06 0.00277-2.15 0.00559-17.3 0.0444-34.7 0.0774-52 0.098-8.39 0.0103-16.8 0.0242-25.2 0.0473-7.32 0.0201-14.6 0.0329-22 0.0373-3.87 0.00258-7.73 0.00856-11.6 0.0233-20.4 0.0747-40.4 0.0971-60.3-5.34-1.06-0.277-2.12-0.554-3.21-0.84-2.54-0.666-5.07-1.34-7.6-2.04 0.162 0.503 0.325 1.01 0.492 1.53 0.689 3.36 0.647 6.66 0.637 10.1 0.00263 1.14 0.00263 1.14 0.00531 2.3 0.00439 2.51 0.00149 5.01-0.00189 7.52 6.74e-4 1.74 0.00164 3.48 0.0029 5.22 0.00147 3.64-6.67e-4 7.29-0.00534 10.9-0.00571 4.68-0.00241 9.36 0.00357 14 0.0036 3.59 0.00247 7.18-1.28e-4 10.8-6.69e-4 1.73 1.58e-4 3.45 0.00248 5.18 0.00253 2.41-0.00131 4.81-0.0069 7.22 0.00202 0.719 0.00405 1.44 0.00613 2.18-0.0213 4.92-0.0213 4.92-1.14 6.03-2.85 0.163-5.69 0.261-8.54 0.316-0.896 0.0209-1.79 0.0417-2.71 0.0632-2.98 0.0669-5.95 0.125-8.93 0.183-1.01 0.0208-2.03 0.0417-3.07 0.0632-16.2 0.33-32.4 0.48-48.6 0.499-1.01 0.00259-2.03 0.00518-3.07 0.00784-2.86 0.00579-5.71 0.00432-8.57-3.05e-5 -1.28 0.00297-1.28 0.00297-2.59 6e-3 -5.84-0.0234-5.84-0.0234-6.95-1.14-0.101-1.37-0.134-2.74-0.139-4.11-0.00547-0.89-0.0109-1.78-0.0166-2.7-9.78e-4 -0.989-0.00196-1.98-0.00296-3-0.00494-1.04-0.00988-2.08-0.015-3.16-0.0155-3.52-0.0238-7.04-0.0321-10.6-0.00957-2.51-0.0196-5.02-0.03-7.54-0.0215-5.42-0.0399-10.8-0.0556-16.3-0.0227-7.84-0.0508-15.7-0.0803-23.5-0.0477-12.7-0.091-25.4-0.131-38.2-0.0393-12.4-0.0808-24.7-0.125-37.1-0.00272-0.761-0.00545-1.52-0.00826-2.31-0.0137-3.82-0.0274-7.64-0.0411-11.5-0.114-31.7-0.221-63.4-0.323-95.1-3.81 0.925-7.61 1.86-11.4 2.8-1.07 0.259-2.13 0.518-3.23 0.785-23.3 5.76-42.4 16.5-60.4 32.4-0.545 0.482-1.09 0.963-1.65 1.46-17.7 15.9-29.1 36.5-37.3 58.5h-1v-916zm379 73c-0.77 0.163-1.54 0.327-2.33 0.495-19.3 4.2-37.3 11.2-54.7 20.5-0.995 0.528-0.995 0.528-2.01 1.07-17.3 9.22-32.4 20.9-47 33.9 4.06 1.35 5.43 0.162 9.31-1.56 24.2-10.2 49.9-13.7 75.9-13.7 1.19-0.00101 1.19-0.00101 2.41-0.00204 26.6 0.0357 51.6 4.54 76.3 14.3 0.665 0.26 1.33 0.52 2.01 0.788 24.6 9.82 46.4 25.5 65 44.2 0.537 0.54 1.07 1.08 1.63 1.64 46.7 47.5 55.7 108 55.7 171 0.00374 5.26 0.0189 10.5 0.0326 15.8 0.0221 9.09 0.0372 18.2 0.0474 27.3 0.0147 13.1 0.0402 26.3 0.0683 39.4 0.0453 21.3 0.082 42.6 0.113 64 0.0302 20.7 0.0646 41.4 0.104 62.1 0.00369 1.92 0.00369 1.92 0.00746 3.87 0.0124 6.41 0.0248 12.8 0.0373 19.2 0.103 53.1 0.193 106 0.273 159 1.42-0.773 2.83-1.55 4.25-2.33 0.788-0.432 1.58-0.864 2.39-1.31 3.67-2.11 7.07-4.57 10.5-7.05 1.5-1.07 3-2.14 4.5-3.2 1.11-0.79 1.11-0.79 2.24-1.6l2.13-1.51c0.916-0.653 0.916-0.653 1.85-1.32 10.9-7.69 22.5-13.9 34.3-20.1 2.57-1.37 5.12-2.76 7.67-4.16 9.19-5.04 18.6-9.41 28.2-13.6 1.1-0.475 2.2-0.95 3.34-1.44 16.6-7.03 33.5-12.7 50.8-17.8 1.84-0.546 3.68-1.09 5.52-1.64 4.43-1.31 8.86-2.62 13.3-3.92-0.927-1.1-1.86-2.21-2.79-3.31-0.518-0.614-1.04-1.23-1.57-1.86-2.64-2.95-5.62-5.47-8.64-8.02-0.649-0.555-1.3-1.11-1.97-1.68-1.35-1.15-2.69-2.3-4.04-3.44-1.91-1.62-3.8-3.25-5.69-4.88-5.29-4.57-10.6-9.09-16-13.5-3.51-2.85-6.91-5.77-10.2-8.81-3.36-3.06-6.78-6.01-10.3-8.88-0.855-0.725-1.71-1.45-2.59-2.2-3.03-2.5-3.03-2.5-6.44-4.3-4.93-2.93-8.81-6.1-10.4-11.8-1.15-7.74-0.966-15.6-0.834-23.4 0.0462-3.59 0.0166-7.17-0.00346-10.8-0.0246-6.21-0.00196-12.4 0.0531-18.6 0.0796-8.99 0.0858-18 0.0745-27-0.0165-14.6 0.0241-29.2 0.102-43.9 0.0749-14.2 0.126-28.3 0.142-42.5 9.94e-4 -0.871 0.00199-1.74 0.00301-2.64 0.00575-5.24 0.0105-10.5 0.0148-15.7 0.00642-7.66 0.014-15.3 0.0225-23 8.87e-4 -0.826 0.00177-1.65 0.00269-2.5 0.0128-11.4 0.044-22.7 0.0912-34.1 0.00942-2.32 0.0181-4.64 0.0266-6.96 0.00409-1.13 0.00409-1.13 0.00826-2.27 0.00538-1.49 0.0107-2.98 0.016-4.47 0.013-3.54 0.028-7.08 0.048-10.6 0.27-28.2 0.27-28.2-2.65-56.1-0.171-1.04-0.342-2.08-0.519-3.15-4.36-24.9-13-48.4-24.9-70.7-0.602-1.14-1.2-2.29-1.82-3.47-13.4-24.4-32.3-46.4-54.2-63.5-0.938-0.767-1.88-1.53-2.84-2.32-51.8-41.5-122-56.5-186-42.7zm-96 162c-0.947 0.842-1.89 1.68-2.87 2.55-17.2 16.1-27.1 38.5-31.1 61.4v3c1.47 0.42 1.47 0.42 2.96 0.848 8.3 2.49 14.5 5.26 21 11.2 1.23 0.911 1.23 0.911 2.48 1.84 8.66 7.44 12.7 18.9 13.8 30 0.402 10.9-2.97 19.4-8.65 28.6-1.63 2.5-1.63 2.5-2.59 4.85-1.34 2.3-2.62 2.72-5.04 3.78-1.43 0.963-2.84 1.94-4.25 2.94-3.45 2.33-6.69 4.05-10.6 5.35-2.14 0.719-4.25 1.49-6.36 2.29-1.06 0.4-1.06 0.4-2.14 0.808-0.532 0.201-1.06 0.403-1.61 0.61-1.35 57.4-1.35 57.4 23 108 0.776 1.02 1.55 2.05 2.35 3.1 17.3 22.3 42.8 34.5 70.3 38.5 5.38 0.641 10.7 0.918 16.1 1.08 1.21 0.0383 2.42 0.0767 3.66 0.116 10.3 0.26 20.6 0.201 30.9-0.0018 1.75-0.0342 3.49-0.0644 5.24-0.0904 12.9-0.208 24.7-1.27 36.4-7.27 0.674-0.344 1.35-0.689 2.04-1.04 14.5-7.75 24.1-20.8 28.9-36.4 2.22-9.82 2.29-19.5 2.27-29.6 0.00436-1.74 0.00954-3.48 0.0155-5.22 0.0133-4.7 0.014-9.4 0.0114-14.1-0.00108-3.94 0.00383-7.89 0.00861-11.8 0.0111-9.32 0.0115-18.6 0.00549-28-0.00602-9.56 0.00624-19.1 0.0276-28.7 0.0177-8.25 0.0236-16.5 0.0204-24.8-0.0018-4.91 6.71e-4 -9.82 0.0147-14.7 0.0976-37.3-1.1-72.9-27.4-102-0.437-0.539-0.874-1.08-1.32-1.63-3.76-4.6-7.88-8.23-12.6-11.8-0.744-0.562-1.49-1.12-2.25-1.7-11.4-8.45-23.2-13.9-36.8-17.9-0.793-0.235-1.59-0.469-2.4-0.711-36.7-10-76.2 1.58-104 26.7zm-74 341v118c4.57-0.915 8.44-2.31 12.7-4.14 1.13-0.478 1.13-0.478 2.27-0.966 1.62-0.687 3.23-1.38 4.84-2.07 4.26-1.82 8.53-3.63 12.8-5.44 0.866-0.367 1.73-0.734 2.62-1.11 10-4.24 20.1-8.32 30.2-12.4 0.641-0.258 1.28-0.516 1.94-0.781 1.72-0.691 3.43-1.38 5.15-2.07 2.35-0.832 2.35-0.832 3.45-2.05 0.0886-2.81 0.115-5.6 0.0977-8.41-0.00141-0.842-0.00283-1.68-0.00429-2.55-0.00562-2.7-0.0182-5.4-0.0309-8.1-0.00501-1.83-0.00958-3.65-0.0137-5.48-0.0111-4.49-0.0283-8.97-0.0488-13.5-0.658-0.301-1.32-0.601-1.99-0.911-25.5-11.8-50.5-25.8-69.7-46.9-1.43-1.52-1.43-1.52-4.36-1.19zm252 51.6c-28 8.44-54.3 9.97-83.4 10.4-0.0121 1.03-0.0121 1.03-0.0245 2.08-0.0785 6.53-0.166 13.1-0.263 19.6-0.0496 3.36-0.0949 6.71-0.134 10.1-0.0461 3.87-0.104 7.75-0.164 11.6-0.0116 1.18-0.0231 2.37-0.035 3.59-0.26 14.9-2.09 29.5-13 40.5-1.58 1.43-1.58 1.43-1.36 3.52-0.521 0.258-1.04 0.516-1.58 0.781-1.83 0.921-3.65 1.86-5.47 2.81-10.8 5.58-21.9 10.2-33.1 14.8-4.39 1.8-8.77 3.62-13.2 5.44-14.1 5.88-28.3 11.8-42.5 17.6-0.872 0.357-1.74 0.714-2.64 1.08-4.14 1.69-8.28 3.38-12.4 5.07-7.31 2.98-14.6 6.01-21.8 9.15-0.632 0.271-1.26 0.543-1.91 0.823-6.36 2.78-13.2 5.87-18.4 10.5-1.52 5.72-1.16 11.8-1.17 17.7-0.00333 1.13-0.00666 2.26-0.0101 3.43-0.00506 2.4-0.00741 4.79-0.00725 7.19-0.00217 3.62-0.0203 7.24-0.0393 10.9-0.245 30.9-0.245 30.9 15.2 56.9 15.6 13.6 33 15.3 52.9 15.2 1.54 0.00108 3.07 0.00302 4.61 0.00575 4.13 0.0048 8.25-0.00274 12.4-0.013 4.34-0.00886 8.68-0.00702 13-0.00664 7.27-9.33e-4 14.5-0.00957 21.8-0.0233 8.39-0.0158 16.8-0.021 25.2-0.0203 8.97 6.77e-4 17.9-0.00627 26.9-0.0154 2.57-0.00213 5.15-0.00284 7.72-0.00324 4.05-0.00101 8.09-0.00714 12.1-0.0172 1.48-0.00291 2.96-0.00415 4.44-0.00357 12.1 0.923 12.1 0.923 22.7-2.87 0.374-0.744 0.749-1.49 1.13-2.25 0.434-0.827 0.869-1.65 1.32-2.51 0.43-0.891 0.861-1.78 1.3-2.7l1.42-2.76c1.37-2.67 2.7-5.36 4.01-8.05 0.635-1.29 1.27-2.59 1.91-3.88 0.547-1.11 1.09-2.22 1.66-3.37 5.63-11.4 12.8-22 20-32.5 0.751-1.11 1.5-2.23 2.23-3.35 0.826-1.23 1.68-2.45 2.55-3.65 3.55-5.12 4.42-8.91 4.3-15.1 0.00427-0.856 0.00854-1.71 0.0129-2.59 0.00819-2.85-0.0192-5.7-0.0466-8.55-0.00141-2.05-6.17e-4 -4.1 0.00221-6.15 0.00143-5.55-0.0279-11.1-0.0629-16.7-0.0313-5.81-0.0342-11.6-0.0401-17.4-0.0155-11-0.0565-22-0.107-33-0.0559-12.5-0.0834-25-0.108-37.6-0.0522-25.7-0.14-51.5-0.252-77.2-2.73 0-4.97 0.841-7.58 1.64z" fill="#000100"/>
<path transform="translate(734 564)" d="m0 0c0.779-0.00666 1.56-0.0133 2.36-0.0202 1.64-0.0101 3.28-0.0148 4.92-0.0145 2.47-0.00435 4.93-0.0407 7.4-0.0786 15.8-0.114 27.6 3.22 39.7 13.9 9.79 11.1 13.8 21.7 13.5 36.6-0.835 11.8-6.65 23.3-15.3 31.3-16.6 13.4-39.1 13.2-59.4 11.4-12.6-1.67-21.9-7.59-30.5-16.8-8.29-11.3-11.2-23.2-10-37 1.9-11.3 7.9-22.3 16.9-29.5 9.57-6.32 19-9.8 30.5-9.84z" fill="#000100"/>
</svg>
