<?xml version="1.0" standalone="no"?>
<!DOCTYPE svg PUBLIC "-//W3C//DTD SVG 20010904//EN"
 "http://www.w3.org/TR/2001/REC-SVG-20010904/DTD/svg10.dtd">
<svg version="1.0" xmlns="http://www.w3.org/2000/svg"
 width="512.000000pt" height="512.000000pt" viewBox="0 0 512.000000 512.000000"
 preserveAspectRatio="xMidYMid meet">

<g transform="translate(0.000000,512.000000) scale(0.100000,-0.100000)"
fill="#000000" stroke="none">
<path d="M925 4920 l200 -200 1435 0 1435 0 200 200 200 200 -1835 0 -1835 0
200 -200z"/>
<path d="M620 3710 l0 -1315 200 200 200 200 0 915 0 915 -200 200 -200 200 0
-1315z"/>
<path d="M4287 4812 l-197 -197 0 -905 0 -905 200 -200 200 -200 0 1303 c0
716 -1 1302 -3 1302 -1 0 -91 -89 -200 -198z"/>
<path d="M1170 3918 c0 -636 0 -652 19 -633 10 11 130 160 266 330 136 171
255 316 263 323 23 18 56 15 85 -8 14 -11 143 -171 287 -355 144 -184 265
-335 270 -335 4 0 51 53 103 118 580 712 677 829 701 841 63 30 66 26 422
-417 182 -227 336 -418 342 -424 9 -9 12 136 12 600 l0 612 -1385 0 -1385 0 0
-652z m1316 552 c80 -28 137 -78 175 -155 85 -172 22 -353 -149 -433 -78 -37
-193 -38 -266 -3 -217 106 -248 413 -56 546 92 64 198 80 296 45z"/>
<path d="M2308 4330 c-129 -68 -127 -244 3 -310 156 -80 320 117 214 256 -52
68 -146 91 -217 54z"/>
<path d="M2787 3528 c-217 -266 -432 -527 -476 -580 l-81 -98 855 0 855 0 0
130 0 130 -371 450 c-204 248 -375 450 -379 450 -4 0 -186 -217 -403 -482z"/>
<path d="M1461 3380 l-291 -360 0 -85 0 -85 439 0 440 0 111 135 111 134 -252
311 c-138 170 -255 310 -259 310 -4 0 -139 -162 -299 -360z"/>
<path d="M930 2505 l-195 -195 1825 0 1825 0 -195 195 -195 195 -1435 0 -1435
0 -195 -195z"/>
<path d="M350 2111 c-71 -23 -131 -74 -166 -141 -27 -52 -26 -172 3 -226 26
-48 85 -104 131 -123 l32 -13 0 -782 0 -783 23 -21 c32 -30 72 -28 102 4 l25
27 0 533 0 534 79 -59 c262 -194 638 -305 978 -288 300 15 616 126 848 296
l80 59 3 -541 c2 -539 2 -541 24 -564 28 -30 68 -29 96 0 l22 23 0 542 0 542
88 -65 c165 -123 410 -228 637 -272 138 -27 426 -24 564 6 229 49 429 133 609
257 l92 64 0 -535 0 -536 25 -24 c31 -32 74 -33 103 -2 l22 23 0 781 0 781 32
13 c46 19 105 75 131 123 29 54 30 174 3 226 -63 120 -189 174 -318 136 -178
-51 -238 -291 -107 -426 22 -23 56 -48 75 -56 l34 -14 0 -149 0 -149 -47 -42
c-364 -322 -909 -433 -1383 -280 -186 60 -382 172 -520 296 l-40 36 0 143 0
143 32 13 c46 19 106 75 130 122 29 57 34 132 14 201 -52 178 -292 235 -430
102 -101 -98 -101 -269 -1 -370 25 -24 61 -50 80 -56 l36 -12 -3 -146 -3 -146
-70 -59 c-188 -158 -425 -269 -670 -314 -109 -20 -386 -23 -491 -5 -264 44
-526 169 -716 341 l-38 33 0 149 0 149 38 19 c44 23 93 72 118 121 26 49 26
171 0 220 -26 49 -74 98 -121 122 -43 22 -144 33 -185 19z"/>
</g>
</svg>
