<?xml version="1.0" encoding="UTF-8"?>
<!DOCTYPE svg PUBLIC "-//W3C//DTD SVG 1.1//EN" "http://www.w3.org/Graphics/SVG/1.1/DTD/svg11.dtd">
<svg xmlns="http://www.w3.org/2000/svg" version="1.1" viewBox="0 0 700 700" style="shape-rendering:geometricPrecision; text-rendering:geometricPrecision; image-rendering:optimizeQuality; fill-rule:evenodd; clip-rule:evenodd" xmlns:xlink="http://www.w3.org/1999/xlink">
<g><path style="opacity:0.896" fill="#000000" d="M 458.5,165.5 C 459.833,165.5 461.167,165.5 462.5,165.5C 466.08,180.712 469.247,196.045 472,211.5C 477.769,229.704 484.102,247.704 491,265.5C 494.537,279.719 497.537,294.052 500,308.5C 505.428,318.363 511.095,328.03 517,337.5C 517.767,341.594 517.434,345.594 516,349.5C 511.761,358.984 506.761,367.984 501,376.5C 500.067,367.633 496.233,360.299 489.5,354.5C 492.437,350.686 493.771,346.353 493.5,341.5C 491.488,331.449 489.154,321.449 486.5,311.5C 489.122,302.669 489.955,293.669 489,284.5C 488.428,277.829 485.261,272.996 479.5,270C 477.866,269.506 476.199,269.34 474.5,269.5C 474.499,251.304 472.666,233.304 469,215.5C 465.689,205.186 461.023,195.52 455,186.5C 449.346,196.778 446.013,207.778 445,219.5C 444.134,240.215 442.634,260.881 440.5,281.5C 440.038,291.648 443.705,299.814 451.5,306C 453.345,307.128 455.345,307.628 457.5,307.5C 455.93,315.732 455.097,324.065 455,332.5C 450.382,319.973 445.382,307.639 440,295.5C 433.082,288.578 425.582,282.411 417.5,277C 413.313,274.6 412.646,271.6 415.5,268C 428.064,260.058 434.897,248.558 436,233.5C 437.101,219.692 439.101,206.025 442,192.5C 445.52,182.096 451.02,173.096 458.5,165.5 Z"/></g>
<g><path style="opacity:0.873" fill="#000000" d="M 326.5,193.5 C 334.502,196.316 341.336,200.982 347,207.5C 355.755,220.011 364.755,232.344 374,244.5C 379.338,252.506 384.172,260.839 388.5,269.5C 378.208,270.944 367.875,272.277 357.5,273.5C 356.833,273.167 356.167,272.833 355.5,272.5C 357.029,270.812 358.863,269.479 361,268.5C 363.242,251.27 359.909,235.27 351,220.5C 347.18,216.519 342.68,213.519 337.5,211.5C 336.029,212.381 335.196,213.714 335,215.5C 332.792,236.795 336.626,256.962 346.5,276C 342.743,277.962 338.91,279.795 335,281.5C 335.781,274.822 335.448,268.155 334,261.5C 329.347,244.57 325.847,227.403 323.5,210C 324.018,204.392 325.018,198.892 326.5,193.5 Z"/></g>
<g><path style="opacity:0.929" fill="#000000" d="M 455.5,202.5 C 457.64,204.7 459.14,207.367 460,210.5C 461.489,215.457 462.822,220.457 464,225.5C 466.257,246.778 467.257,268.111 467,289.5C 466.369,295.78 463.369,300.447 458,303.5C 451.459,301.623 447.792,297.29 447,290.5C 446.833,287.5 446.667,284.5 446.5,281.5C 448.685,262.895 450.185,244.228 451,225.5C 451.645,217.62 453.145,209.953 455.5,202.5 Z"/></g>
<g><path style="opacity:0.864" fill="#000000" d="M 340.5,221.5 C 343.428,222.591 345.594,224.591 347,227.5C 352.781,239.185 354.781,251.519 353,264.5C 351.333,266.167 349.667,267.833 348,269.5C 342.793,253.927 340.293,237.927 340.5,221.5 Z"/></g>
<g><path style="opacity:0.962" fill="#000000" d="M 404.5,276.5 C 407.187,276.336 409.854,276.503 412.5,277C 420.988,283.008 428.822,289.841 436,297.5C 438,300.833 440,304.167 442,307.5C 445.532,325.892 452.865,342.558 464,357.5C 466.725,364.616 469.725,371.616 473,378.5C 485.765,395.951 498.098,395.618 510,377.5C 514,370.167 518,362.833 522,355.5C 528.414,367.329 535.08,378.996 542,390.5C 551.292,402.127 560.959,413.461 571,424.5C 594.256,453.403 594.256,482.403 571,511.5C 550.218,533.486 525.385,549.32 496.5,559C 481.155,564.449 465.655,569.282 450,573.5C 450.249,565.786 448.749,558.453 445.5,551.5C 446,551.167 446.5,550.833 447,550.5C 462.586,556.551 477.753,555.717 492.5,548C 496.752,544.419 500.252,540.252 503,535.5C 505.635,523.988 507.302,512.321 508,500.5C 508.786,497.417 510.619,495.251 513.5,494C 530.633,494.697 539.633,486.531 540.5,469.5C 537.746,451.573 529.579,436.573 516,424.5C 515.333,425.167 515.333,425.833 516,426.5C 526.388,438.446 532.888,452.279 535.5,468C 535.004,473.151 533.504,477.985 531,482.5C 529.421,484.041 527.587,485.208 525.5,486C 519.675,486.149 514.008,487.149 508.5,489C 504.619,491.928 502.119,495.761 501,500.5C 499.945,509.493 498.945,518.493 498,527.5C 493.137,541.201 483.304,547.868 468.5,547.5C 458.765,546.538 449.098,545.204 439.5,543.5C 439.598,551.462 440.598,559.462 442.5,567.5C 442.046,570.222 441.38,572.889 440.5,575.5C 436.299,577.124 431.966,578.124 427.5,578.5C 426.236,570.337 422.569,568.837 416.5,574C 411.632,575.186 407.298,574.186 403.5,571C 394.951,560.081 387.785,548.248 382,535.5C 377.329,530.498 371.829,526.665 365.5,524C 363.012,520.552 363.678,517.552 367.5,515C 370.339,513.08 373.339,511.413 376.5,510C 386.495,507.334 396.495,504.667 406.5,502C 409.661,500.587 412.661,498.92 415.5,497C 431.734,495.111 447.067,490.444 461.5,483C 464.04,480.795 466.207,478.295 468,475.5C 469.919,462.819 476.419,453.319 487.5,447C 499.431,435.438 502.265,421.938 496,406.5C 499.504,419.13 497.504,430.797 490,441.5C 483.045,446.454 476.712,452.121 471,458.5C 468.863,464.579 466.529,470.579 464,476.5C 456.701,482.943 448.201,487.11 438.5,489C 431.191,490.695 423.857,492.195 416.5,493.5C 409.352,487.519 402.352,481.353 395.5,475C 389.491,472.584 383.324,470.75 377,469.5C 376.83,467.155 377.163,464.821 378,462.5C 381.996,456.176 385.163,449.509 387.5,442.5C 386.416,436.243 383.416,431.076 378.5,427C 369.319,418.828 358.652,415.495 346.5,417C 338.685,420.242 330.685,422.909 322.5,425C 310.448,426.089 299.114,423.755 288.5,418C 286.641,416.442 285.141,414.609 284,412.5C 285.241,400.257 281.407,390.09 272.5,382C 267.961,379.231 263.294,376.731 258.5,374.5C 263.785,371.049 268.285,366.716 272,361.5C 275.074,354.054 277.407,346.387 279,338.5C 286.014,324.485 296.181,313.318 309.5,305C 325.144,293.346 342.477,285.179 361.5,280.5C 362.696,280.846 362.696,281.346 361.5,282C 347.126,286.101 334.293,292.935 323,302.5C 320.955,305.423 318.788,308.257 316.5,311C 316.833,311.167 317.167,311.333 317.5,311.5C 325.669,302.193 335.669,295.36 347.5,291C 365.955,283.47 384.955,278.637 404.5,276.5 Z M 327.5,318.5 C 333.514,317.001 339.514,317.501 345.5,320C 352.671,323.416 359.338,327.582 365.5,332.5C 366.795,329.988 367.461,327.321 367.5,324.5C 368.552,324.351 369.552,324.517 370.5,325C 376.491,329.664 382.824,333.83 389.5,337.5C 391.829,336.229 392.995,334.229 393,331.5C 394.48,333.337 394.48,335.337 393,337.5C 392.044,338.894 390.711,339.561 389,339.5C 382.528,337.031 376.528,333.698 371,329.5C 370.82,332.956 370.153,336.289 369,339.5C 359.617,331.785 349.45,325.285 338.5,320C 334.914,318.892 331.247,318.392 327.5,318.5 Z M 291.5,379.5 C 292.793,377.704 294.293,376.037 296,374.5C 296.164,369.821 296.164,365.155 296,360.5C 296.93,357.638 298.597,355.305 301,353.5C 301.667,350.833 301.667,348.167 301,345.5C 297.176,338.981 297.176,332.314 301,325.5C 305.516,321.264 310.683,320.098 316.5,322C 323.724,324.279 330.391,327.612 336.5,332C 348.466,334.306 357.299,340.806 363,351.5C 363.825,353.701 363.325,355.534 361.5,357C 353.194,363.319 343.861,367.153 333.5,368.5C 327.844,367.755 322.677,365.755 318,362.5C 316.225,363.27 314.725,364.437 313.5,366C 310.186,367.165 308.186,365.998 307.5,362.5C 310.35,360.135 312.184,357.135 313,353.5C 311.469,340.205 317.302,332.871 330.5,331.5C 323.831,326.998 316.498,324.832 308.5,325C 303.417,327.291 301.084,331.291 301.5,337C 302.935,341.139 304.269,345.306 305.5,349.5C 304.416,353.763 302.249,357.43 299,360.5C 298.814,364.516 298.814,368.516 299,372.5C 297.838,376.321 295.338,378.654 291.5,379.5 Z M 334.5,341.5 C 338.347,340.494 341.847,341.494 345,344.5C 344.106,353.044 339.272,356.878 330.5,356C 325.076,353.983 323.242,350.15 325,344.5C 326.154,343.257 327.488,342.257 329,341.5C 327.254,348.087 329.754,350.92 336.5,350C 340.928,345.879 340.261,343.045 334.5,341.5 Z M 386.5,361.5 C 384.407,360.955 382.407,360.122 380.5,359C 378.5,358.333 376.5,358.333 374.5,359C 375.972,363.034 375.472,366.867 373,370.5C 369.906,373.625 366.406,376.125 362.5,378C 365.601,387.635 362.268,394.302 352.5,398C 350.833,398.667 349.167,398.667 347.5,398C 356.855,395.673 361.021,389.84 360,380.5C 359.215,378.714 358.049,377.214 356.5,376C 361.5,374.416 366,371.916 370,368.5C 371.751,364.57 371.918,360.57 370.5,356.5C 376.936,354.722 382.269,356.388 386.5,361.5 Z M 303.5,396.5 C 308.159,376.886 319.159,372.386 336.5,383C 329.843,382.573 323.176,382.24 316.5,382C 311.945,384.566 308.778,388.4 307,393.5C 305.961,394.71 304.794,395.71 303.5,396.5 Z M 470.5,395.5 C 475.06,400.606 476.56,406.606 475,413.5C 473.236,417.095 470.402,419.428 466.5,420.5C 466.144,432.386 460.477,440.552 449.5,445C 453.282,450.713 453.448,456.546 450,462.5C 446.122,468.045 441.289,472.545 435.5,476C 430.572,477.418 425.572,477.751 420.5,477C 436.098,476.712 445.765,469.045 449.5,454C 448.616,450.232 446.95,446.899 444.5,444C 450.26,441.03 455.426,437.196 460,432.5C 463.091,427.733 463.258,422.9 460.5,418C 468.354,418.632 472.688,415.132 473.5,407.5C 473.121,403.317 472.121,399.317 470.5,395.5 Z M 484.5,488.5 C 482.067,492.768 478.734,496.268 474.5,499C 466,504.611 456.667,507.611 446.5,508C 444.044,510.408 442.211,513.241 441,516.5C 437.304,520.264 432.804,522.264 427.5,522.5C 421.141,521.438 414.808,520.605 408.5,520C 411.226,523.299 413.559,526.799 415.5,530.5C 410.291,526.458 405.958,521.624 402.5,516C 410.055,516.041 417.555,516.875 425,518.5C 429.68,518.385 433.847,516.885 437.5,514C 439.35,510.638 441.683,507.638 444.5,505C 459.794,504.073 473.128,498.573 484.5,488.5 Z"/></g>
<g><path style="opacity:0.88" fill="#000000" d="M 474.5,277.5 C 477.238,276.965 479.072,277.965 480,280.5C 481.361,286.407 481.861,292.407 481.5,298.5C 476.933,299.967 472.267,300.467 467.5,300C 469.996,292.432 472.329,284.932 474.5,277.5 Z"/></g>
<g><path style="opacity:0.921" fill="#000000" d="M 477.5,306.5 C 478.978,306.238 480.311,306.571 481.5,307.5C 480.415,310.773 480.248,314.106 481,317.5C 483.073,325.292 484.907,333.126 486.5,341C 485.858,347.16 483.191,352.327 478.5,356.5C 481.756,358.711 484.922,361.045 488,363.5C 491.982,367.796 493.315,372.796 492,378.5C 491.027,380.64 489.527,382.307 487.5,383.5C 483.859,381.693 481.026,379.026 479,375.5C 474.781,365.394 469.781,355.727 464,346.5C 463.333,335.5 463.333,324.5 464,313.5C 464.707,311.919 465.54,310.419 466.5,309C 470.465,308.892 474.132,308.059 477.5,306.5 Z"/></g>
<g><path style="opacity:0.784" fill="#000000" d="M 330.5,337.5 C 339.366,336.518 346.533,339.518 352,346.5C 353.874,348.569 354.874,350.902 355,353.5C 343.602,362.394 331.769,363.227 319.5,356C 317.477,352.817 316.977,349.317 318,345.5C 321.671,341.923 325.838,339.256 330.5,337.5 Z M 334.5,341.5 C 340.261,343.045 340.928,345.879 336.5,350C 329.754,350.92 327.254,348.087 329,341.5C 327.488,342.257 326.154,343.257 325,344.5C 323.242,350.15 325.076,353.983 330.5,356C 339.272,356.878 344.106,353.044 345,344.5C 341.847,341.494 338.347,340.494 334.5,341.5 Z"/></g>
<g><path style="opacity:0.947" fill="#000000" d="M 247.5,378.5 C 257.632,379.708 266.466,383.708 274,390.5C 275.275,392.717 276.275,395.051 277,397.5C 274.498,416.336 282.665,427.169 301.5,430C 309.167,430.667 316.833,430.667 324.5,430C 334.026,427.489 343.526,424.989 353,422.5C 364.382,423.355 373.382,428.355 380,437.5C 380.667,440.833 380.667,444.167 380,447.5C 376.555,452.055 373.888,457.055 372,462.5C 371.163,466.295 371.496,469.961 373,473.5C 373.903,474.701 375.069,475.535 376.5,476C 383.007,476.501 389.007,478.501 394.5,482C 399.341,486.01 404.008,490.177 408.5,494.5C 407.335,495.584 406.002,496.417 404.5,497C 397.254,499.311 389.921,501.311 382.5,503C 372.246,505.034 364.079,510.201 358,518.5C 357.333,520.5 357.333,522.5 358,524.5C 364.13,530.23 370.797,535.23 378,539.5C 382,546.833 386,554.167 390,561.5C 393.327,567.307 397.494,572.474 402.5,577C 408.028,580.92 413.862,581.42 420,578.5C 421.826,579.01 421.993,579.844 420.5,581C 405.37,585.456 390.037,586.456 374.5,584C 366.01,582.342 360.176,577.509 357,569.5C 354.778,560.615 353.111,551.615 352,542.5C 347.761,528.595 338.594,519.762 324.5,516C 331.779,514.884 339.112,513.551 346.5,512C 362.663,502.837 366.83,489.67 359,472.5C 356.346,467.367 352.846,462.867 348.5,459C 351.583,457.861 354.583,456.528 357.5,455C 359.377,452.769 360.21,450.269 360,447.5C 358.833,450 357,451.833 354.5,453C 348.551,454.073 342.551,454.74 336.5,455C 349.94,464.413 356.107,477.246 355,493.5C 352.42,500.873 347.254,505.04 339.5,506C 321.114,508.277 302.78,510.944 284.5,514C 266.284,516.57 248.284,515.57 230.5,511C 217.677,506.85 207.01,499.517 198.5,489C 202.519,486.662 206.853,485.996 211.5,487C 220.024,489.064 228.358,491.73 236.5,495C 253.734,499.929 271.067,500.596 288.5,497C 299.528,496.749 310.528,496.082 321.5,495C 327.998,493.503 333.498,490.337 338,485.5C 339.138,477.465 335.638,472.799 327.5,471.5C 313.281,475.776 299.948,481.943 287.5,490C 272.809,493.281 258.142,492.948 243.5,489C 231.623,484.485 219.457,480.985 207,478.5C 201.794,478.801 197.128,480.468 193,483.5C 183.687,473.858 175.52,463.358 168.5,452C 172.566,449.107 175.232,445.274 176.5,440.5C 180.72,445.11 185.386,445.61 190.5,442C 195.981,438.201 199.314,433.034 200.5,426.5C 199.794,419.621 196.127,416.121 189.5,416C 197.212,425.111 195.545,432.278 184.5,437.5C 179.82,433.162 174.486,431.996 168.5,434C 167.22,436.132 167.22,438.298 168.5,440.5C 167.974,442.23 166.974,443.564 165.5,444.5C 157.55,428.513 161.883,417.346 178.5,411C 203.396,403.882 226.396,393.049 247.5,378.5 Z M 268.5,429.5 C 280.687,440.592 295.021,447.425 311.5,450C 320.974,452.134 325.141,457.967 324,467.5C 313.803,468.505 303.637,470.005 293.5,472C 288.546,475.285 283.88,478.952 279.5,483C 272.824,486.815 265.824,487.482 258.5,485C 250.696,482.236 243.03,479.402 235.5,476.5C 242.977,477.703 250.31,479.536 257.5,482C 264.834,484.541 271.834,483.874 278.5,480C 284.637,471.431 292.97,466.765 303.5,466C 309.171,465.469 314.838,464.969 320.5,464.5C 321.178,460.727 319.844,457.894 316.5,456C 310.424,453.23 304.091,451.23 297.5,450C 290.058,447.113 283.058,443.446 276.5,439C 273.223,436.234 270.557,433.067 268.5,429.5 Z"/></g>
<g><path style="opacity:0.851" fill="#000000" d="M 323.5,477.5 C 328.315,476.52 331.982,478.02 334.5,482C 333.167,484.667 331.167,486.667 328.5,488C 318.51,492.07 308.177,493.57 297.5,492.5C 299.431,490.196 301.764,488.362 304.5,487C 310.925,483.787 317.259,480.621 323.5,477.5 Z"/></g>
</svg>
