<svg xmlns="http://www.w3.org/2000/svg" enable-background="new 0 0 231.504 168.811" viewBox="0 0 231.504 168.811" id="playing-with-pet"><path d="M214.442 91.883c-2.109-1.03-4.657-.157-5.688 1.957-5.089 10.513-12.955 16.207-19.79 19.301-18.653-6.843-21.595 10.189-42.352 6.78-2.894 4.042-5.847 7.141-8.591 9.502-1.371 1.708-2.951 3.512-4.773 5.372l-28.54 24.743c-2.085 1.809-2.311 4.968-.501 7.055.988 1.139 2.38 1.723 3.778 1.723 1.161 0 2.327-.402 3.273-1.222l.009-.008c.126-.065.254-.124.376-.2l27.582-17.316c2.737 1.973 10.659 5.244 15.337 5.31 11.75.161 28.131-15.633 28.838-15.796-.57 3.812.254 15.511-2.307 21.649-1.13 2.707.146 5.824 2.86 6.956.867.36 1.772.477 2.643.378 1.854-.21 3.544-1.393 4.313-3.235 4.212-10.073 5.565-17.798 5.599-23.588.053-.029.104-.064.155-.098 1.68 5.389 1.549 12.226 2.835 20.348.454 2.816 3.043 4.77 5.852 4.452.08-.011.16-.022.241-.035 2.901-.46 4.88-3.191 4.418-6.087-1.954-12.325-5.643-30.087-5.874-30.77-1.601-4.679-3.533-8.087-5.735-10.568-.115-.187-.233-.382-.34-.544 6.666-4.1 13.488-10.463 18.342-20.369C217.438 95.457 216.558 92.91 214.442 91.883zM144.254 116.306c-1.748-5.817-6.44-13.676-13.572-16.035.279-4.183-.534-7.576-5.271-9.809-3.981-1.875-8.48-.525-6.563 1.1 5.487 4.653 2.677 9.469 2.481 9.646-.24.215-2.973 5.447-7.547 7.149-3.223 1.198-12.25 3.383-12.149 7.492.103 4.159.61 5.012 2.473 7.157 2.669 3.071 9.135.507 13.606 1.229 2.055.329 6.764 4.789 9.366 7.6 1.008-.452 2.276-1.101 3.738-2.022C134.547 127.458 139.485 123.348 144.254 116.306zM121.736 114.068c-1.795 0-3.25-1.455-3.25-3.25 0-1.795 1.455-3.25 3.25-3.25s3.25 1.455 3.25 3.25C124.986 112.613 123.531 114.068 121.736 114.068zM207.917 86.538c.125 0 .249.002.374.011.552.035 1.027-.381 1.063-.933.035-.551-.384-1.027-.933-1.063-.178-.013-.346-.016-.504-.016-2.95-.006-5.014 1.525-6.243 2.978-1.243 1.459-1.753 2.87-1.776 2.938-.19.518.079 1.091.6 1.281.111.04.226.06.338.06.409 0 .794-.253.942-.661h-.002c.002 0 .093-.254.324-.697C202.825 89.075 204.611 86.52 207.917 86.538zM208.14 79.913c-.521-.045-1.019-.064-1.495-.064-5.067-.024-8.076 2.418-9.605 4.825-1.55 2.402-1.786 4.721-1.799 4.808-.06.549.342 1.042.891 1.1.035.004.07.005.104.005.505 0 .939-.382.995-.896h-.002c0-.002.044-.447.258-1.194.712-2.284 2.588-6.62 9.158-6.649.422 0 .86.018 1.323.058.551.048 1.033-.359 1.082-.911C209.096 80.446 208.691 79.961 208.14 79.913zM224.206 90.165c-.413-.367-1.047-.327-1.411.086-.364.415-.327 1.047.088 1.411h-.002c.002 0 .102.088.298.305.599.658 1.787 2.281 1.776 4.349-.005 1.354-.466 2.962-2.05 4.846-.358.422-.305 1.054.119 1.409.188.159.416.236.643.236.284 0 .566-.121.766-.355 1.836-2.165 2.527-4.294 2.522-6.136C226.925 92.529 224.277 90.247 224.206 90.165z"></path><path d="M227.574,87.351c-0.465,0.303-0.595,0.922-0.292,1.384c0,0,0.119,0.181,0.327,0.572c0.625,1.173,1.898,4.031,1.896,7.553
		c-0.004,2.515-0.63,5.366-2.609,8.31c-0.31,0.457-0.188,1.078,0.27,1.388c0.171,0.116,0.365,0.171,0.558,0.171
		c0.322,0,0.639-0.155,0.832-0.443c2.213-3.282,2.953-6.574,2.95-9.425c-0.011-5.337-2.499-9.131-2.548-9.22
		C228.654,87.179,228.035,87.048,227.574,87.351z"></path><ellipse cx="48.863" cy="22.499" rx="22.494" ry="22.495" transform="rotate(-76.891 48.866 22.5)"></ellipse><path d="M6.881,63.83C0.076,84.004-1.386,97.134,1.2,119.35c3.129,16.101,14.164,17.753,23.328,17.637
		c2.932-0.037,5.342-0.165,7.239-0.776l6.14-1.071l-11.966,12.542c-4.767,4.995-4.582,12.907,0.413,17.673
		c2.42,2.31,5.526,3.456,8.627,3.456c3.299,0.001,6.592-1.297,9.048-3.872l38.166-39.998c3.726-3.906,4.525-9.759,1.98-14.52
		c-2.543-4.762-7.851-7.353-13.17-6.425l-34.611,6.031c0.232-9.487,1.857-19.212,3.551-27.878
		c-8.53-3.928-14.037-7.664-16.005-9.086l-0.022-0.015l-0.097-0.07c-2.141-1.602-3.525-3.94-3.903-6.586
		c-0.377-2.645,0.297-5.278,1.9-7.417c1.879-2.505,4.873-4,8.006-4c2.178,0,4.248,0.692,5.994,2.001l0.092,0.068
		c0.135,0.094,0.357,0.25,0.667,0.46c0.901,0.604,1.89,1.229,2.936,1.851c0.953,0.568,2.151,1.25,3.562,2.001
		c-0.693-6.991-4.313-13.199-10.246-14.679C24.291,44.551,11.916,49.187,6.881,63.83z"></path><path d="M35.46,59.164c-0.327-0.22-0.563-0.386-0.704-0.486c-0.068-0.047-0.113-0.081-0.138-0.1v0
		c-3.535-2.651-8.55-1.934-11.2,1.6c-2.65,3.536-1.935,8.55,1.601,11.201c0.769,0.539,27.497,20.548,69.593,20.609
		c3.185,0,6.452-0.118,9.799-0.366c4.405-0.327,7.712-4.164,7.386-8.57c-0.327-4.405-4.164-7.712-8.569-7.385
		c-2.952,0.218-5.823,0.32-8.615,0.322c-18.43,0-33.576-4.445-44.081-8.876c-5.25-2.215-9.326-4.419-12.042-6.037
		C37.13,60.267,36.113,59.604,35.46,59.164z"></path></svg>