<?xml version="1.0" standalone="no"?>
<!DOCTYPE svg PUBLIC "-//W3C//DTD SVG 20010904//EN"
 "http://www.w3.org/TR/2001/REC-SVG-20010904/DTD/svg10.dtd">
<svg version="1.0" xmlns="http://www.w3.org/2000/svg"
 width="512.000000pt" height="512.000000pt" viewBox="0 0 512.000000 512.000000"
 preserveAspectRatio="xMidYMid meet">

<g transform="translate(0.000000,512.000000) scale(0.100000,-0.100000)"
fill="#000000" stroke="none">
<path d="M1371 4654 c-175 -47 -316 -184 -372 -364 -28 -89 -28 -221 1 -312
l21 -67 462 -4 c254 -3 473 -6 487 -8 22 -4 27 2 47 59 70 195 21 406 -129
556 -112 111 -222 156 -378 155 -47 0 -109 -7 -139 -15z"/>
<path d="M2440 3860 l0 -670 1135 0 1135 0 0 670 0 670 -1135 0 -1135 0 0
-670z m2170 0 l0 -580 -1040 0 -1040 0 0 580 0 580 1040 0 1040 0 0 -580z"/>
<path d="M2610 4105 l0 -255 55 0 55 0 0 -105 0 -105 55 0 c51 0 69 -10 45
-25 -17 -11 -11 -24 20 -40 29 -15 30 -15 55 25 14 22 32 40 40 40 9 0 15 9
15 24 0 31 129 154 196 186 83 41 150 39 295 -8 171 -55 227 -66 354 -66 136
-1 222 23 321 89 l67 45 98 0 99 0 0 115 0 115 -115 0 -115 0 0 -79 c0 -76 -1
-80 -31 -105 -88 -75 -192 -110 -324 -110 -106 0 -166 12 -335 66 -111 35
-134 39 -205 36 -94 -4 -162 -32 -247 -103 l-53 -44 -3 34 c-3 33 -5 35 -43
35 l-39 0 0 245 0 245 -130 0 -130 0 0 -255z m1700 -80 l0 -45 -45 0 -45 0 0
45 0 45 45 0 45 0 0 -45z m-1430 -270 l0 -45 -45 0 -45 0 0 45 0 45 45 0 45 0
0 -45z"/>
<path d="M2960 4310 l0 -50 523 2 522 3 0 45 0 45 -522 3 -523 2 0 -50z"/>
<path d="M799 3826 c-58 -23 -106 -54 -129 -81 -11 -13 26 -15 366 -15 424 0
457 -4 575 -66 117 -61 213 -172 261 -299 23 -59 23 -65 28 -700 l5 -640 155
-5 c181 -6 208 -16 284 -100 103 -115 101 -268 -5 -384 -52 -57 -128 -96 -189
-96 -16 0 -31 -3 -33 -7 -3 -5 -31 -155 -62 -335 l-58 -327 33 -37 c39 -45 60
-92 60 -136 0 -27 8 -38 38 -59 167 -117 407 -26 451 171 39 178 225 1257 225
1310 1 113 -58 206 -162 257 l-57 28 -272 3 -273 3 0 371 c0 333 2 370 16 364
9 -3 20 -6 25 -6 5 0 10 -103 11 -232 l3 -232 70 -28 c132 -50 468 -99 546
-78 148 40 187 242 65 335 -36 28 -52 31 -269 59 -59 7 -110 16 -112 18 -3 2
-16 74 -31 158 -73 432 -205 701 -388 786 l-51 24 -535 0 -535 0 -56 -24z"/>
<path d="M381 3649 c-169 -33 -320 -180 -366 -354 -23 -88 -23 -1332 0 -1420
46 -175 191 -317 363 -354 31 -6 152 -11 292 -11 l240 0 0 -395 0 -395 -283 0
c-254 0 -286 -2 -316 -18 -66 -35 -90 -125 -51 -189 40 -66 -3 -63 872 -63
769 0 794 1 825 20 88 53 81 190 -11 234 -29 14 -78 16 -315 16 l-281 0 0 395
0 395 413 0 c467 0 461 0 529 80 72 84 72 196 0 280 -60 71 -91 80 -289 80
l-172 0 -3 668 c-3 654 -3 668 -24 724 -59 154 -205 279 -363 308 -66 12 -997
12 -1060 -1z"/>
<path d="M3188 2998 l-3 -143 -93 -3 -93 -3 3 -47 3 -47 565 0 565 0 3 48 3
47 -85 0 -86 0 0 145 0 145 -390 0 -389 0 -3 -142z"/>
<path d="M2957 2619 c-4 -28 -19 -75 -36 -105 l-29 -54 909 0 909 0 0 -995 0
-995 135 0 135 0 0 995 0 995 70 0 70 0 0 105 0 105 -1079 0 -1078 0 -6 -51z"/>
</g>
</svg>
