<svg width="94" height="77" viewBox="0 0 94 77" fill="none" xmlns="http://www.w3.org/2000/svg">
<path d="M37.1094 11.5536C33.6934 11.5536 30.9144 14.4805 30.9144 18.0781C30.9144 18.9345 31.5737 19.6287 32.3866 19.6287C33.1998 19.6287 33.8589 18.9343 33.8589 18.0781C33.8589 16.1906 35.317 14.6547 37.1094 14.6547C38.9016 14.6547 40.3599 16.1904 40.3599 18.0781C40.3599 18.9345 41.0192 19.6287 41.8322 19.6287C42.6451 19.6287 43.3044 18.9343 43.3044 18.0781C43.3044 14.4807 40.5253 11.5536 37.1094 11.5536Z" fill="black"/>
<path d="M56.8901 11.5536C53.4742 11.5536 50.695 14.4805 50.695 18.0781C50.695 18.9345 51.3539 19.6287 52.1672 19.6287C52.9805 19.6287 53.6394 18.9343 53.6394 18.0781C53.6394 16.1906 55.0975 14.6547 56.8901 14.6547C58.6824 14.6547 60.1407 16.1904 60.1407 18.0781C60.1407 18.9345 60.7996 19.6287 61.6129 19.6287C62.4262 19.6287 63.0851 18.9343 63.0851 18.0781C63.0853 14.4807 60.3063 11.5536 56.8901 11.5536Z" fill="black"/>
<path d="M46.9998 22.2122C43.5838 22.2122 40.8048 25.139 40.8048 28.7367C40.8048 29.5931 41.4641 30.2872 42.277 30.2872C43.09 30.2872 43.7492 29.5929 43.7492 28.7367C43.7492 26.8491 45.2073 25.3133 46.9998 25.3133C48.792 25.3133 50.2503 26.8489 50.2503 28.7367C50.2503 29.5931 50.9092 30.2872 51.7225 30.2872C52.5359 30.2872 53.1948 29.5929 53.1948 28.7367C53.1948 25.139 50.4159 22.2122 46.9998 22.2122Z" fill="black"/>
<path d="M24.5966 22.2122C21.1806 22.2122 18.4016 25.139 18.4016 28.7367C18.4016 29.5931 19.0608 30.2872 19.8738 30.2872C20.6867 30.2872 21.346 29.5929 21.346 28.7367C21.346 26.8491 22.8041 25.3133 24.5966 25.3133C26.3888 25.3133 27.8471 26.8489 27.8471 28.7367C27.8471 29.5931 28.5064 30.2872 29.3193 30.2872C30.1325 30.2872 30.7916 29.5929 30.7916 28.7367C30.7916 25.1388 28.0125 22.2122 24.5966 22.2122Z" fill="black"/>
<path d="M69.4028 22.2122C65.9868 22.2122 63.2076 25.139 63.2076 28.7367C63.2076 29.5931 63.8665 30.2872 64.6798 30.2872C65.4932 30.2872 66.1521 29.5929 66.1521 28.7367C66.1521 26.8491 67.6102 25.3133 69.4028 25.3133C71.195 25.3133 72.6533 26.8489 72.6533 28.7367C72.6533 29.5931 73.3122 30.2872 74.1256 30.2872C74.9387 30.2872 75.5978 29.5929 75.5978 28.7367C75.5978 25.139 72.8189 22.2122 69.4028 22.2122Z" fill="black"/>
<path d="M54.535 64.8355C53.8186 61.4351 50.7326 56.5157 47.0262 56.5157H46.9735C43.2675 56.5157 40.1813 61.4351 39.4649 64.8353C38.7814 68.0789 40.2797 69.2024 40.9559 69.5345C42.21 70.151 43.6701 70.2606 45.1949 69.854C45.7737 69.6995 46.3721 69.6214 46.9731 69.6214H47.0264C47.6275 69.6214 48.2258 69.6995 48.8045 69.854C49.4076 70.0149 50.0043 70.0963 50.5784 70.0963C51.456 70.0963 52.2854 69.9073 53.0437 69.5345C53.7197 69.2024 55.2183 68.0793 54.535 64.8355ZM51.7236 66.7596C51.3743 66.9182 50.9986 66.9953 50.5784 66.9953C50.2477 66.9953 49.8943 66.9457 49.5273 66.848C48.7123 66.6307 47.8707 66.5205 47.0262 66.5205H46.973C46.1282 66.5205 45.2868 66.6307 44.4719 66.848C43.6453 67.0686 42.8985 67.0412 42.2753 66.7596C42.1454 66.3631 42.2689 64.8566 43.3641 62.8822C44.4474 60.9293 45.8978 59.6171 46.9731 59.6171H47.0255C48.101 59.617 49.5515 60.9291 50.6349 62.8822C51.7302 64.8568 51.8536 66.3633 51.7236 66.7596Z" fill="black"/>
<path d="M46.3183 48.2758C45.5228 46.4142 43.756 45.2117 41.8173 45.2117C41.1169 45.2117 40.4361 45.3662 39.7937 45.6707C37.3128 46.8469 36.203 49.9294 37.32 52.5425C38.2231 54.6551 40.5744 56.3101 42.6728 56.3103C43.2534 56.3103 43.8019 56.1898 44.3031 55.9522C46.8239 54.7569 47.4459 50.9136 46.3183 48.2758ZM43.0947 53.1237C42.9761 53.18 42.8342 53.2084 42.6734 53.2084C41.7282 53.2084 40.4313 52.2658 40.0052 51.2688C39.7871 50.7584 39.7706 50.1891 39.9591 49.6659C40.1473 49.1427 40.518 48.7279 41.0025 48.4982C41.2623 48.375 41.5362 48.3128 41.8171 48.3128C42.5994 48.3128 43.3121 48.7979 43.6332 49.5487C44.1739 50.8127 43.8818 52.7506 43.0947 53.1237Z" fill="black"/>
<path d="M37.9728 54.3286C37.243 53.8183 36.3954 53.5486 35.5217 53.5486C34.0298 53.5486 32.647 54.3295 31.8224 55.6372C30.4695 57.7837 31.0266 60.6895 33.0648 62.1146C34.0123 62.7772 35.3557 63.1726 36.6576 63.1726C38.2576 63.1726 39.5168 62.5736 40.2026 61.4858C41.6752 59.1502 39.8358 55.6312 37.9728 54.3286ZM37.7499 59.7705C37.6765 59.8869 37.3154 60.0715 36.6581 60.0715C35.957 60.0715 35.1488 59.8494 34.6937 59.5309C34.0081 59.0516 33.8207 58.0743 34.2758 57.3523C34.5532 56.9124 35.019 56.6497 35.5217 56.6497C35.8141 56.6497 36.0983 56.7403 36.3442 56.9122C37.3231 57.5967 38.0141 59.3515 37.7499 59.7705Z" fill="black"/>
<path d="M54.2055 45.6703C53.5631 45.3658 52.8823 45.2113 52.1819 45.2113C50.2431 45.2113 48.4764 46.414 47.6805 48.2755C47.1663 49.4787 47.0121 51.021 47.2686 52.4012C47.5836 54.0981 48.4456 55.3592 49.6955 55.9516C50.1969 56.1893 50.7453 56.3097 51.3258 56.3097C53.4243 56.3097 55.7757 54.655 56.6788 52.5419C57.796 49.9293 56.6865 46.8465 54.2055 45.6703ZM53.9941 51.269C53.568 52.266 52.2715 53.2086 51.3262 53.2086C51.1651 53.2086 51.0232 53.18 50.9048 53.1239C50.4087 52.8886 50.2178 52.1239 50.1587 51.806C50.0171 51.044 50.0966 50.1791 50.366 49.5489C50.6869 48.7981 51.4 48.313 52.1823 48.313C52.4632 48.313 52.7373 48.3754 52.9967 48.4984C53.4814 48.7281 53.852 49.1429 54.0402 49.6661C54.2286 50.1893 54.2122 50.7586 53.9941 51.269Z" fill="black"/>
<path d="M62.1765 55.637C61.352 54.3293 59.9692 53.5487 58.4775 53.5487C57.604 53.5486 56.7563 53.8185 56.0262 54.3288C55.1008 54.9759 54.2433 56.0941 53.7323 57.3204C53.0747 58.8982 53.0975 60.3778 53.7962 61.4862C54.482 62.5738 55.7409 63.1728 57.3414 63.1728C58.6435 63.1728 59.9866 62.7774 60.9343 62.1146C62.9726 60.6893 63.53 57.7835 62.1765 55.637ZM59.3055 59.5309C58.8502 59.8494 58.0424 60.0715 57.3412 60.0715C56.6838 60.0715 56.3228 59.8869 56.2492 59.7707C56.1743 59.6516 56.1565 59.2194 56.4286 58.5666C56.7521 57.7899 57.2777 57.1762 57.6548 56.9124C57.9005 56.7407 58.1849 56.6498 58.4773 56.6498C58.9802 56.6496 59.4461 56.9124 59.7235 57.3523C60.1785 58.0743 59.9911 59.0516 59.3055 59.5309Z" fill="black"/>
<path d="M93.6909 52.7103C92.3455 44.6241 87.3692 33.9145 84.8676 28.8838C84.9349 28.7775 85.0031 28.6717 85.0664 28.5644C86.718 25.7725 86.6488 23.3044 86.2996 21.7259C85.5918 18.5231 83.0331 16.1078 80.3484 16.1078C79.7398 16.1078 79.1378 16.1685 78.547 16.289C77.1766 12.4738 73.67 9.84644 69.6895 9.84644C69.1303 9.84644 68.5771 9.89749 68.0329 9.99861C66.806 5.93478 63.1785 3.04522 59.0086 3.04522C57.4833 3.04522 56.0145 3.42053 54.6864 4.14137C52.9259 1.5519 50.1037 0 47.0001 0C43.8961 0 41.074 1.55171 39.3137 4.14137C37.9858 3.42072 36.5169 3.04522 34.9916 3.04522C30.8216 3.04522 27.1938 5.93478 25.9672 9.99861C25.4232 9.89749 24.8701 9.84644 24.3108 9.84644C20.3303 9.84644 16.8237 12.4738 15.4534 16.289C14.8625 16.1687 14.2604 16.1078 13.6517 16.1078C10.9669 16.1078 8.40831 18.5231 7.70055 21.7257C7.35154 23.3044 7.28215 25.7725 8.93394 28.5646C8.99728 28.6717 9.06521 28.7773 9.1324 28.8834C7.71616 31.732 5.4317 36.5548 3.49864 41.6825C3.19865 42.4785 3.56823 43.38 4.32372 43.6957C4.50198 43.7702 4.68576 43.8056 4.86679 43.8056C5.45245 43.8056 6.00635 43.4349 6.23566 42.8268C7.89498 38.425 9.82492 34.2437 11.2085 31.4045C11.3739 31.5651 11.545 31.7241 11.7211 31.8813C11.7269 31.8867 11.7328 31.8921 11.7387 31.8971C11.742 31.9 11.7455 31.9031 11.7488 31.906C11.8733 32.0166 12.0003 32.1265 12.1298 32.2351C12.136 32.2405 12.1421 32.2458 12.1485 32.251C12.1578 32.2589 12.1676 32.2667 12.1769 32.2744C12.4901 32.5358 12.8184 32.7922 13.1615 33.0436C13.1889 33.0637 13.2159 33.0838 13.2436 33.1039C13.2519 33.1099 13.2603 33.1157 13.2686 33.1217C13.3863 33.2066 13.5054 33.2911 13.6264 33.3748C13.6589 33.3976 13.6914 33.4204 13.7246 33.4432C13.75 33.4606 13.776 33.4775 13.8016 33.4949C13.9121 33.5699 14.0237 33.6447 14.137 33.7188C14.1671 33.7387 14.1963 33.7582 14.2271 33.7781C14.2886 33.8178 14.3522 33.8582 14.4177 33.8994C14.5045 33.9543 14.5914 34.0092 14.6795 34.0635C14.7032 34.0784 14.7263 34.0931 14.7507 34.108C14.8181 34.1492 14.8879 34.1904 14.9575 34.2316C15.0518 34.288 15.1456 34.3449 15.2417 34.401C15.2598 34.4118 15.2775 34.4222 15.2964 34.4332C15.4069 34.4972 15.5218 34.5614 15.647 34.6312C15.7091 34.666 15.7699 34.7009 15.8328 34.7355C15.8439 34.7415 15.8543 34.7476 15.8653 34.7536C16.0416 34.8501 16.2219 34.9464 16.4051 35.0417C16.4163 35.0475 16.4271 35.0537 16.4383 35.0595L16.4422 35.0617C16.6078 35.1535 16.7881 35.25 16.99 35.355C21.9265 37.9354 29.1775 39.7518 37.4236 40.549L37.4249 40.5492C39.4188 40.775 41.4056 40.9309 43.3306 41.0125C47.4558 41.1879 51.6329 41.0575 55.7463 40.6254C55.9099 40.6111 56.0681 40.5952 56.2293 40.5803C56.5793 40.5477 56.9286 40.514 57.276 40.4777C57.6043 40.4436 57.93 40.4082 58.2516 40.3711C58.3895 40.3553 58.5272 40.339 58.6647 40.3226C59.1272 40.2669 59.5867 40.2095 60.0422 40.147C60.1874 40.1271 60.3246 40.0847 60.452 40.025C60.4571 40.0225 60.4626 40.0209 60.4678 40.0184C60.4953 40.0053 60.5212 39.9896 60.5475 39.9747C60.5634 39.9656 60.58 39.9579 60.5956 39.9482C60.6257 39.9299 60.6539 39.9092 60.6826 39.8885C60.6934 39.8806 60.7048 39.874 60.7151 39.8659C60.7437 39.844 60.7707 39.8202 60.7977 39.7963C60.8069 39.7879 60.817 39.7808 60.826 39.7723C60.8495 39.7504 60.8713 39.7267 60.8933 39.7033C60.9045 39.6915 60.9167 39.6804 60.9275 39.6683C60.9471 39.6462 60.965 39.6222 60.9835 39.599C60.9952 39.5841 61.0079 39.5702 61.0191 39.5549C61.0402 39.5259 61.0593 39.4956 61.0786 39.465C61.0854 39.454 61.0933 39.444 61.0997 39.4327C61.1217 39.396 61.1414 39.3579 61.1603 39.3194C61.1631 39.3138 61.1664 39.3086 61.1691 39.3028C61.2102 39.2162 61.2436 39.1253 61.269 39.0309C61.2697 39.0282 61.2708 39.0259 61.2714 39.0232C61.3226 38.8291 61.3386 38.621 61.3123 38.4085C61.3077 38.3727 61.3007 38.3381 61.2941 38.3035C61.291 38.2865 61.289 38.2693 61.2853 38.2525C61.2846 38.249 61.2833 38.2459 61.2826 38.2424C61.1199 37.5338 60.5056 37.0384 59.8123 37.0587C59.7626 37.06 59.7127 37.0643 59.6622 37.0711C59.6568 37.0716 59.6517 37.0722 59.6464 37.0732C59.2111 37.1325 58.7723 37.1875 58.3317 37.2406C58.1947 37.2573 58.0572 37.2733 57.9189 37.2892C57.6129 37.3245 57.305 37.3576 56.9969 37.3899C56.6406 37.4268 56.2791 37.4622 55.9123 37.4963C53.021 37.7637 50.0386 37.9019 47.0001 37.9019C43.9803 37.9019 41.0285 37.7685 38.2002 37.5137C38.0425 37.4966 37.8856 37.4819 37.7279 37.4642C37.7201 37.4634 37.7126 37.4624 37.7049 37.4616C29.9049 36.7075 23.0993 35.0168 18.5368 32.6986L18.4573 32.659C18.3877 32.6232 18.3194 32.5872 18.2508 32.5515C18.0997 32.4718 17.9486 32.3923 17.8024 32.3109C17.7995 32.3092 17.7966 32.3078 17.7936 32.3061C17.7874 32.3026 17.7811 32.2993 17.7745 32.296C17.7687 32.2928 17.7626 32.2895 17.7567 32.2864C17.7406 32.2781 17.7253 32.2694 17.7092 32.2612C17.5544 32.1806 17.4024 32.0996 17.2533 32.0182C17.1198 31.9453 16.9887 31.8712 16.8589 31.797C16.8369 31.7846 16.8145 31.7722 16.793 31.7599C12.1694 29.0948 9.85503 25.6563 10.5683 22.4287C11.0078 20.44 12.5109 19.2091 13.6517 19.2091C14.4399 19.2091 15.2116 19.3562 15.9456 19.6469C16.3508 19.8073 16.8029 19.7716 17.1812 19.5492C17.5594 19.3267 17.8254 18.9403 17.9086 18.4927C18.5049 15.2796 21.1974 12.9475 24.3108 12.9475C25.0841 12.9475 25.8404 13.0883 26.5582 13.3658C26.9783 13.528 27.4453 13.4806 27.8276 13.2368C28.2102 12.993 28.4668 12.5794 28.5252 12.1124C28.9501 8.71123 31.7302 6.14651 34.9918 6.14651C36.4218 6.14651 37.7796 6.62507 38.9185 7.53057C39.2697 7.80959 39.7208 7.90879 40.1493 7.80089C40.5772 7.6928 40.9369 7.38846 41.1295 6.97157C42.2325 4.58436 44.4823 3.10148 47.0004 3.10148C49.5186 3.10148 51.7684 4.58455 52.8712 6.97157C53.0638 7.38846 53.4235 7.69261 53.8514 7.80089C54.2798 7.90879 54.7312 7.80998 55.0824 7.53038C56.2211 6.62507 57.5789 6.14632 59.0089 6.14632C62.2707 6.14632 65.0505 8.71123 65.4755 12.1122C65.5339 12.579 65.7905 12.9928 66.173 13.2366C66.5556 13.4804 67.0226 13.5276 67.4425 13.3656C68.1604 13.0881 68.9168 12.9473 69.6899 12.9473C72.8033 12.9473 75.496 15.2795 76.0922 18.4925C76.1751 18.9401 76.4412 19.3267 76.8194 19.549C77.1976 19.7716 77.6498 19.8072 78.055 19.6467C78.789 19.3562 79.5608 19.2089 80.349 19.2089C81.4896 19.2089 82.9929 20.4398 83.4324 22.4287C84.194 25.8732 81.5065 29.5583 76.244 32.2868C76.2317 32.2931 76.2196 32.2997 76.2075 32.3065C75.3315 32.793 74.3475 33.2567 73.2711 33.6946C73.2213 33.7149 73.1725 33.7356 73.1225 33.7555C70.6532 34.7467 67.6994 35.6011 64.4022 36.2707C63.6037 36.4328 63.0812 37.246 63.2353 38.087C63.3807 38.8821 64.08 39.4155 64.8296 39.3351C64.8814 39.3306 64.9335 39.3233 64.9857 39.3129C68.6298 38.5767 71.8807 37.6163 74.6487 36.4575C75.2948 36.2156 75.8851 35.9764 76.4527 35.7266C78.1317 34.9874 79.7587 33.8437 80.839 33.0459C80.8412 33.0445 80.8564 33.0333 80.8586 33.0318C80.8621 33.0293 80.8788 33.0171 80.8821 33.0144L80.9135 32.9914C80.9337 32.9765 80.9635 32.9542 80.9994 32.9266C81.2421 32.7454 81.4764 32.5615 81.7035 32.3751C81.7274 32.3554 81.7522 32.3357 81.7755 32.3162C82.0711 32.0775 82.4456 31.7684 82.8128 31.4462C85.3662 36.6859 89.6293 46.1744 90.8 53.3018C90.8072 53.3446 90.816 53.3875 90.8263 53.4294C90.9785 54.0424 91.0556 54.6586 91.055 55.2677C91.0539 55.2996 91.0527 55.3313 91.0523 55.3632C91.0519 55.3843 91.0521 55.4054 91.0527 55.4263C91.0536 55.4692 91.0528 55.5069 91.0499 55.538C91.0479 55.5608 91.0464 55.5837 91.0453 55.6065C90.8323 60.199 86.1929 64.7943 78.3173 68.2143C69.93 71.8562 58.8094 73.8619 47.0032 73.8619C35.2326 73.8619 24.1357 71.8668 15.7559 68.2439C7.88525 64.8409 3.22234 60.2626 2.9631 55.6829C2.9609 55.6448 2.95741 55.6071 2.95264 55.5692C2.94419 55.5028 2.94217 55.44 2.94676 55.377C2.94952 55.3383 2.9508 55.2996 2.9508 55.2608C2.9508 54.6778 3.0224 54.0826 3.16377 53.4923C3.17295 53.4532 3.18103 53.4138 3.18745 53.3738C3.46284 51.671 5.56444 45.0028 6.23566 42.8268C6.48682 42.0124 5.09683 43.9603 4.32372 43.6957C3.55005 43.431 3.7498 40.8681 3.49864 41.6825C2.79107 43.9767 0.594927 50.9581 0.294384 52.7947C0.107485 53.5952 0.0107313 54.4063 0.00650864 55.207C-0.00671011 55.4431 0.000266455 55.6821 0.0268875 55.9197C0.388751 61.8004 5.57491 67.1943 14.6376 71.1124C23.3639 74.8852 34.8581 76.9626 47.0032 76.9626C59.1854 76.9626 70.7048 74.8738 79.4394 71.081C88.5297 67.1338 93.6935 61.7041 93.9848 55.7882C93.9949 55.6608 93.999 55.528 93.997 55.3922C93.9988 55.3482 94.0001 55.3045 94.0001 55.2602C93.9999 54.416 93.896 53.5582 93.6909 52.7103Z" fill="black"/>
</svg>
