<?xml version="1.0" encoding="UTF-8"?>
<!DOCTYPE svg PUBLIC "-//W3C//DTD SVG 1.1//EN" "http://www.w3.org/Graphics/SVG/1.1/DTD/svg11.dtd">
<svg xmlns="http://www.w3.org/2000/svg" viewBox="0 0 700 700" version="1.1" style="shape-rendering:geometricPrecision; text-rendering:geometricPrecision; image-rendering:optimizeQuality; fill-rule:evenodd; clip-rule:evenodd" xmlns:xlink="http://www.w3.org/1999/xlink">
<g><path style="opacity:0.958" fill="#000000" d="M 459.5,268.5 C 459.158,267.662 458.492,267.328 457.5,267.5C 449.814,262.428 447.48,255.428 450.5,246.5C 445.023,239.375 444.19,231.709 448,223.5C 450.264,220.567 453.098,218.4 456.5,217C 452.197,211.034 451.364,204.534 454,197.5C 457.14,192.429 461.473,188.762 467,186.5C 468.251,182.918 469.251,179.251 470,175.5C 472.435,169.068 477.101,165.735 484,165.5C 487.471,166.455 490.971,166.622 494.5,166C 497.167,164 499.833,162 502.5,160C 512.784,157.809 520.117,161.475 524.5,171C 528.921,172.016 533.255,173.349 537.5,175C 541.493,177.819 543.16,181.653 542.5,186.5C 554.497,188.666 558.997,195.666 556,207.5C 555.117,210.102 553.617,212.269 551.5,214C 557.886,222.104 558.053,230.271 552,238.5C 550.667,246.5 549.333,254.5 548,262.5C 539.974,270.6 532.141,270.433 524.5,262C 516.881,261.865 511.547,258.365 508.5,251.5C 502.747,250.486 497.081,249.153 491.5,247.5C 489.49,253.842 485.157,257.175 478.5,257.5C 477.764,261.791 475.431,264.958 471.5,267C 467.605,268.266 463.605,268.766 459.5,268.5 Z M 514.5,187.5 C 516.666,190.61 518.999,193.777 521.5,197C 523.025,198.009 524.692,198.509 526.5,198.5C 526.351,201.607 526.851,204.607 528,207.5C 529.922,210.722 531.755,213.888 533.5,217C 527.426,238.207 513.759,245.54 492.5,239C 500.414,230.162 499.747,221.828 490.5,214C 495.401,208.766 495.734,203.266 491.5,197.5C 493.204,195.959 495.037,194.625 497,193.5C 502.068,195.122 506.902,194.622 511.5,192C 513.141,190.871 514.141,189.371 514.5,187.5 Z"/></g>
<g><path style="opacity:0.923" fill="#000000" d="M 260.5,175.5 C 283.61,173.471 298.443,183.471 305,205.5C 306.548,231.95 294.214,246.95 268,250.5C 243.221,247.391 230.888,233.391 231,208.5C 233.704,190.97 243.538,179.97 260.5,175.5 Z M 276.5,202.5 C 278.857,202.337 281.19,202.503 283.5,203C 286.8,208.15 291.466,210.317 297.5,209.5C 297.636,223.734 291.303,233.9 278.5,240C 253.897,244.557 240.897,234.39 239.5,209.5C 249.506,209.666 259.506,209.5 269.5,209C 272.331,207.334 274.664,205.168 276.5,202.5 Z"/></g>
<g><path style="opacity:0.766" fill="#000000" d="M 317.5,215.5 C 320.32,215.248 322.986,215.748 325.5,217C 327.69,221.73 326.19,224.23 321,224.5C 314.166,223.488 312.999,220.488 317.5,215.5 Z"/></g>
<g><path style="opacity:0.782" fill="#000000" d="M 336.5,215.5 C 340.639,214.903 343.639,216.403 345.5,220C 345.223,221.892 344.223,223.225 342.5,224C 340.167,224.667 337.833,224.667 335.5,224C 332.665,220.695 332.999,217.862 336.5,215.5 Z"/></g>
<g><path style="opacity:0.765" fill="#000000" d="M 354.5,215.5 C 357.32,215.248 359.986,215.748 362.5,217C 364.69,221.73 363.19,224.23 358,224.5C 351.166,223.488 349.999,220.488 354.5,215.5 Z"/></g>
<g><path style="opacity:0.782" fill="#000000" d="M 373.5,215.5 C 377.639,214.903 380.639,216.403 382.5,220C 382.223,221.892 381.223,223.225 379.5,224C 377.167,224.667 374.833,224.667 372.5,224C 369.665,220.695 369.999,217.862 373.5,215.5 Z"/></g>
<g><path style="opacity:0.764" fill="#000000" d="M 391.5,215.5 C 394.32,215.248 396.986,215.748 399.5,217C 401.69,221.73 400.19,224.23 395,224.5C 388.166,223.488 386.999,220.488 391.5,215.5 Z"/></g>
<g><path style="opacity:0.782" fill="#000000" d="M 410.5,215.5 C 414.639,214.903 417.639,216.403 419.5,220C 419.223,221.892 418.223,223.225 416.5,224C 414.167,224.667 411.833,224.667 409.5,224C 406.665,220.695 406.999,217.862 410.5,215.5 Z"/></g>
<g><path style="opacity:0.765" fill="#000000" d="M 428.5,215.5 C 431.32,215.248 433.986,215.748 436.5,217C 438.69,221.73 437.19,224.23 432,224.5C 425.166,223.488 423.999,220.488 428.5,215.5 Z"/></g>
<g><path style="opacity:0.819" fill="#000000" d="M 291.5,250.5 C 297.653,250.484 300.486,253.484 300,259.5C 294.666,262.25 291.499,260.417 290.5,254C 290.648,252.744 290.982,251.577 291.5,250.5 Z"/></g>
<g><path style="opacity:0.801" fill="#000000" d="M 263.5,260.5 C 271.218,261.117 272.551,264.617 267.5,271C 262.502,272.33 260.336,270.496 261,265.5C 261.847,263.807 262.68,262.14 263.5,260.5 Z"/></g>
<g><path style="opacity:0.81" fill="#000000" d="M 506.5,261.5 C 513.417,261.819 515.751,265.319 513.5,272C 511.421,272.808 509.421,272.641 507.5,271.5C 504.486,268.251 504.153,264.918 506.5,261.5 Z"/></g>
<g><path style="opacity:0.809" fill="#000000" d="M 304.5,264.5 C 308.564,265.393 311.23,267.893 312.5,272C 309.703,276.483 306.536,276.649 303,272.5C 300.899,269.312 301.399,266.645 304.5,264.5 Z"/></g>
<g><path style="opacity:0.754" fill="#000000" d="M 457.5,267.5 C 457.842,268.338 458.508,268.672 459.5,268.5C 461.885,273.831 460.219,276.331 454.5,276C 451.21,271.6 452.21,268.767 457.5,267.5 Z"/></g>
<g><path style="opacity:0.792" fill="#000000" d="M 256.5,276.5 C 262.884,277.814 264.051,281.147 260,286.5C 256.187,289.589 253.687,288.755 252.5,284C 252.927,280.977 254.261,278.477 256.5,276.5 Z"/></g>
<g><path style="opacity:0.793" fill="#000000" d="M 515.5,277.5 C 516.93,277.421 518.264,277.754 519.5,278.5C 522.949,281.759 523.615,285.259 521.5,289C 516.366,290.042 513.699,287.876 513.5,282.5C 513.437,280.486 514.103,278.819 515.5,277.5 Z"/></g>
<g><path style="opacity:0.81" fill="#000000" d="M 314.5,279.5 C 320.653,279.484 323.486,282.484 323,288.5C 319.4,291.354 316.4,290.687 314,286.5C 313.297,284.071 313.463,281.738 314.5,279.5 Z"/></g>
<g><path style="opacity:0.801" fill="#000000" d="M 445.5,280.5 C 451.934,280.093 453.767,282.759 451,288.5C 447.199,292.83 444.366,292.497 442.5,287.5C 443.025,284.971 444.025,282.638 445.5,280.5 Z"/></g>
<g><path style="opacity:0.811" fill="#000000" d="M 247.5,293.5 C 251.145,292.68 253.478,294.013 254.5,297.5C 253.63,300.968 251.63,303.302 248.5,304.5C 245.5,304.833 244.167,303.5 244.5,300.5C 244.695,297.782 245.695,295.449 247.5,293.5 Z"/></g>
<g><path style="opacity:0.81" fill="#000000" d="M 327.5,293.5 C 331.564,294.393 334.23,296.893 335.5,301C 332.703,305.483 329.536,305.649 326,301.5C 323.899,298.312 324.399,295.645 327.5,293.5 Z"/></g>
<g><path style="opacity:0.945" fill="#000000" d="M 374.5,293.5 C 419.105,292.631 449.271,312.964 465,354.5C 474.512,395.314 462.346,427.814 428.5,452C 395.301,469.788 362.967,468.455 331.5,448C 299.014,420.232 289.848,386.066 304,345.5C 318.32,315.675 341.82,298.342 374.5,293.5 Z M 407.5,306.5 C 417.21,309.52 425.877,314.354 433.5,321C 426.167,321.333 418.833,321.667 411.5,322C 409.946,323.892 408.112,325.392 406,326.5C 403.667,325.5 401.333,324.5 399,323.5C 392.522,325.411 386.022,327.244 379.5,329C 378.069,329.465 376.903,330.299 376,331.5C 374.5,334.5 373,337.5 371.5,340.5C 368.163,343.171 364.496,345.337 360.5,347C 358.987,349.916 359.32,352.582 361.5,355C 367.167,355.333 372.833,355.667 378.5,356C 379.833,358 381.167,360 382.5,362C 388.016,363.925 391.349,362.091 392.5,356.5C 396.244,358.121 399.744,360.121 403,362.5C 404.169,367.211 403.336,368.044 400.5,365C 385.379,362.31 371.379,364.977 358.5,373C 349.896,381.971 350.896,389.637 361.5,396C 365.5,396.333 369.5,396.667 373.5,397C 376.349,399.559 377.183,402.726 376,406.5C 372.766,413.184 371.432,420.184 372,427.5C 374.208,432.105 377.875,434.105 383,433.5C 390.035,433.148 395.702,430.148 400,424.5C 407.437,410.419 411.27,395.419 411.5,379.5C 416.677,379.477 418.844,376.81 418,371.5C 420,370.167 422,368.833 424,367.5C 424.333,364.5 424.667,361.5 425,358.5C 431.833,365.333 438.667,372.167 445.5,379C 449.286,382.226 453.619,384.393 458.5,385.5C 458.249,400.692 453.415,414.359 444,426.5C 434.612,437.565 423.279,445.898 410,451.5C 405.735,448.118 400.902,445.952 395.5,445C 381.525,442.725 368.358,444.892 356,451.5C 352.455,449.978 348.955,448.311 345.5,446.5C 344.675,442.878 344.175,439.211 344,435.5C 340.333,428.833 336.667,422.167 333,415.5C 332.852,409.751 332.186,404.085 331,398.5C 328.635,395.131 325.468,392.964 321.5,392C 316.467,391.829 311.467,391.329 306.5,390.5C 310.852,385.982 315.019,381.316 319,376.5C 321.17,368.981 323.836,361.648 327,354.5C 331.865,348.984 337.698,344.817 344.5,342C 351.589,334.54 350.923,327.873 342.5,322C 339.167,321.667 335.833,321.333 332.5,321C 338.998,315.246 346.331,310.746 354.5,307.5C 368.13,314.888 382.463,316.388 397.5,312C 401.346,310.914 404.68,309.081 407.5,306.5 Z"/></g>
<g><path style="opacity:0.801" fill="#000000" d="M 523.5,294.5 C 527.575,294.399 530.075,296.399 531,300.5C 531.666,303.496 530.499,305.496 527.5,306.5C 521.524,303.905 520.191,299.905 523.5,294.5 Z"/></g>
<g><path style="opacity:0.757" fill="#000000" d="M 436.5,295.5 C 443.105,296.987 444.105,300.32 439.5,305.5C 435.751,308.418 433.085,307.585 431.5,303C 432.623,300.061 434.289,297.561 436.5,295.5 Z"/></g>
<g><path style="opacity:0.811" fill="#000000" d="M 241.5,309.5 C 246.494,312.635 246.827,316.469 242.5,321C 238.535,322.417 236.201,321.084 235.5,317C 236.705,313.7 238.705,311.2 241.5,309.5 Z"/></g>
<g><path style="opacity:0.801" fill="#000000" d="M 530.5,311.5 C 536.09,310.418 539.09,312.751 539.5,318.5C 538.233,322.395 535.733,323.395 532,321.5C 529.554,318.403 529.054,315.069 530.5,311.5 Z"/></g>
<g><path style="opacity:0.937" fill="#000000" d="M 567.5,319.5 C 578.761,318.281 586.261,322.948 590,333.5C 591.878,342.535 589.044,349.701 581.5,355C 593.32,371.027 593.486,387.194 582,403.5C 569.018,416.869 553.852,420.035 536.5,413C 518.251,401.986 512.085,386.152 518,365.5C 524.753,350.704 536.253,342.704 552.5,341.5C 552.069,330.337 557.069,323.003 567.5,319.5 Z M 552.5,361.5 C 557.355,375.109 567.022,382.776 581.5,384.5C 575.211,404.481 561.877,411.648 541.5,406C 531.334,400.994 525.667,392.827 524.5,381.5C 538.032,380.625 547.365,373.958 552.5,361.5 Z"/></g>
<g><path style="opacity:0.792" fill="#000000" d="M 231.5,326.5 C 237.527,327.004 239.027,330.004 236,335.5C 232.404,339.638 229.571,339.138 227.5,334C 228.457,331.251 229.79,328.751 231.5,326.5 Z"/></g>
<g><path style="opacity:0.784" fill="#000000" d="M 539.5,327.5 C 545.773,328.041 548.106,331.374 546.5,337.5C 541.18,339.703 538.18,337.87 537.5,332C 538.044,330.415 538.711,328.915 539.5,327.5 Z"/></g>
<g><path style="opacity:0.937" fill="#000000" d="M 201.5,331.5 C 211.503,329.667 219.836,332.5 226.5,340C 236.692,343.502 245.192,349.335 252,357.5C 254.819,363.147 257.486,368.813 260,374.5C 263.437,377.2 267.103,379.534 271,381.5C 272.247,389.92 268.747,393.087 260.5,391C 261.721,395.544 262.387,400.211 262.5,405C 263.708,410.774 261.541,414.274 256,415.5C 254.018,415.01 252.351,414.01 251,412.5C 249.785,407.949 249.119,403.282 249,398.5C 233.331,418.525 214.665,421.859 193,408.5C 188.369,415.564 181.869,419.064 173.5,419C 168.209,413.496 169.209,409.162 176.5,406C 173.132,405.949 169.798,406.449 166.5,407.5C 158.958,405.279 157.625,401.112 162.5,395C 167.642,394.552 172.308,392.885 176.5,390C 168.66,390.495 165.993,386.995 168.5,379.5C 170.22,378.066 172.22,377.233 174.5,377C 168.213,376.047 166.046,372.547 168,366.5C 169.887,364.114 172.387,362.947 175.5,363C 166.971,361.275 165.304,356.942 170.5,350C 174.435,349.916 178.102,348.916 181.5,347C 186.969,340 193.636,334.833 201.5,331.5 Z M 214.5,356.5 C 215.74,359.024 216.907,361.691 218,364.5C 221.563,367.275 224.896,370.275 228,373.5C 230.095,381.927 235.261,387.427 243.5,390C 232.977,408.285 218.311,412.618 199.5,403C 190.712,396.601 187.045,388.101 188.5,377.5C 202.001,376.319 210.668,369.319 214.5,356.5 Z"/></g>
<g><path style="opacity:0.838" fill="#000000" d="M 266.5,367.5 C 269.249,367.274 271.916,367.607 274.5,368.5C 276.911,370.319 277.078,372.319 275,374.5C 271.927,375.617 268.76,375.784 265.5,375C 264.083,372.257 264.416,369.757 266.5,367.5 Z"/></g>
<g><path style="opacity:0.81" fill="#000000" d="M 284.5,367.5 C 287.187,367.336 289.854,367.503 292.5,368C 294.673,369.865 295.007,372.031 293.5,374.5C 290.167,375.833 286.833,375.833 283.5,374.5C 282.073,371.884 282.406,369.551 284.5,367.5 Z"/></g>
<g><path style="opacity:0.849" fill="#000000" d="M 477.5,367.5 C 483.986,365.835 486.819,368.168 486,374.5C 482.927,375.617 479.76,375.784 476.5,375C 474.315,372.322 474.649,369.822 477.5,367.5 Z"/></g>
<g><path style="opacity:0.809" fill="#000000" d="M 495.5,367.5 C 498.187,367.336 500.854,367.503 503.5,368C 505.673,369.865 506.007,372.031 504.5,374.5C 501.167,375.833 497.833,375.833 494.5,374.5C 493.073,371.884 493.406,369.551 495.5,367.5 Z"/></g>
<g><path style="opacity:0.783" fill="#000000" d="M 538.5,416.5 C 544.884,417.814 546.051,421.147 542,426.5C 538.187,429.589 535.687,428.755 534.5,424C 534.944,420.941 536.277,418.441 538.5,416.5 Z"/></g>
<g><path style="opacity:0.819" fill="#000000" d="M 224.5,423.5 C 229.477,423.131 232.477,425.465 233.5,430.5C 231.584,434.917 228.751,435.584 225,432.5C 223.281,429.546 223.115,426.546 224.5,423.5 Z"/></g>
<g><path style="opacity:0.809" fill="#000000" d="M 529.5,433.5 C 533.145,432.68 535.478,434.013 536.5,437.5C 535.63,440.968 533.63,443.302 530.5,444.5C 527.5,444.833 526.167,443.5 526.5,440.5C 526.695,437.782 527.695,435.449 529.5,433.5 Z"/></g>
<g><path style="opacity:0.773" fill="#000000" d="M 233.5,439.5 C 238.175,439.67 240.842,442.17 241.5,447C 240.112,451.848 237.445,452.681 233.5,449.5C 230.929,446.061 230.929,442.727 233.5,439.5 Z"/></g>
<g><path style="opacity:0.8" fill="#000000" d="M 523.5,449.5 C 528.494,452.635 528.827,456.469 524.5,461C 520.872,462.316 518.539,461.149 517.5,457.5C 518.576,453.959 520.576,451.292 523.5,449.5 Z"/></g>
<g><path style="opacity:0.809" fill="#000000" d="M 326.5,450.5 C 328.199,450.34 329.866,450.506 331.5,451C 333.636,456.164 332.136,459.664 327,461.5C 324.399,461.399 322.899,460.065 322.5,457.5C 323.576,455.014 324.909,452.681 326.5,450.5 Z"/></g>
<g><path style="opacity:0.8" fill="#000000" d="M 436.5,450.5 C 441.508,450.168 444.508,452.502 445.5,457.5C 444.233,461.395 441.733,462.395 438,460.5C 435.437,457.456 434.937,454.123 436.5,450.5 Z"/></g>
<g><path style="opacity:0.8" fill="#000000" d="M 241.5,456.5 C 246.461,456.018 249.128,458.351 249.5,463.5C 249.32,464.554 248.987,465.554 248.5,466.5C 242.94,468.631 239.94,466.631 239.5,460.5C 239.752,458.927 240.418,457.594 241.5,456.5 Z"/></g>
<g><path style="opacity:0.79" fill="#000000" d="M 317.5,465.5 C 322.66,466.68 323.827,469.68 321,474.5C 317.21,478.671 314.377,478.171 312.5,473C 313.313,469.858 314.98,467.358 317.5,465.5 Z"/></g>
<g><path style="opacity:0.782" fill="#000000" d="M 447.5,465.5 C 453.568,466.076 456.068,469.409 455,475.5C 451.039,478.04 448.039,477.04 446,472.5C 445.167,469.829 445.667,467.496 447.5,465.5 Z"/></g>
<g><path style="opacity:0.791" fill="#000000" d="M 513.5,466.5 C 519.527,467.004 521.027,470.004 518,475.5C 514.404,479.638 511.571,479.138 509.5,474C 510.457,471.251 511.79,468.751 513.5,466.5 Z"/></g>
<g><path style="opacity:0.809" fill="#000000" d="M 251.5,472.5 C 257.302,474.915 258.635,478.748 255.5,484C 251.412,484.604 248.912,482.77 248,478.5C 247.372,475.42 248.538,473.42 251.5,472.5 Z"/></g>
<g><path style="opacity:0.8" fill="#000000" d="M 305.5,481.5 C 312.425,480.572 314.259,483.239 311,489.5C 307.16,493.828 304.326,493.328 302.5,488C 303.259,485.735 304.259,483.568 305.5,481.5 Z"/></g>
<g><path style="opacity:0.81" fill="#000000" d="M 457.5,481.5 C 462.479,481.087 465.146,483.42 465.5,488.5C 465.202,492.226 463.202,493.393 459.5,492C 455.364,488.985 454.697,485.485 457.5,481.5 Z"/></g>
<g><path style="opacity:0.791" fill="#000000" d="M 504.5,483.5 C 512.053,483.836 513.387,487.003 508.5,493C 506.299,493.825 504.466,493.325 503,491.5C 502.282,488.593 502.782,485.926 504.5,483.5 Z"/></g>
<g><path style="opacity:0.952" fill="#000000" d="M 263.5,492.5 C 283.332,490.83 298.165,498.497 308,515.5C 309.202,518.774 310.202,522.107 311,525.5C 310.921,542.919 313.421,559.919 318.5,576.5C 318.563,578.481 317.896,580.148 316.5,581.5C 314.111,582.18 311.778,583.014 309.5,584C 307.129,586.706 304.463,589.039 301.5,591C 299.365,591.635 297.365,591.301 295.5,590C 291.66,583.678 287.66,583.344 283.5,589C 282.127,589.875 280.627,590.375 279,590.5C 275.48,589.393 272.313,587.727 269.5,585.5C 267.102,586.389 265.102,587.889 263.5,590C 261.5,590.667 259.5,590.667 257.5,590C 255.597,587.595 253.264,585.761 250.5,584.5C 247.077,587.264 243.41,589.598 239.5,591.5C 235.146,589.656 231.479,586.823 228.5,583C 222.718,582.892 220.218,580.059 221,574.5C 226.11,559.626 228.444,544.293 228,528.5C 232.005,508.663 243.838,496.663 263.5,492.5 Z M 272.5,523.5 C 274.655,523.372 276.655,523.872 278.5,525C 283.039,530.961 289.039,533.128 296.5,531.5C 298.72,552.711 289.22,564.711 268,567.5C 253.945,566.105 244.611,558.772 240,545.5C 239.501,540.845 239.334,536.179 239.5,531.5C 247.507,531.666 255.507,531.5 263.5,531C 266.69,528.636 269.69,526.136 272.5,523.5 Z"/></g>
<g><path style="opacity:0.773" fill="#000000" d="M 468.5,496.5 C 472.489,496.489 474.489,498.489 474.5,502.5C 471.875,507.822 469.042,507.822 466,502.5C 465.458,499.918 466.292,497.918 468.5,496.5 Z"/></g>
<g><path style="opacity:0.934" fill="#000000" d="M 493.5,500.5 C 523.384,502.209 536.884,517.875 534,547.5C 526.601,568.546 511.768,577.713 489.5,575C 464.464,566.271 455.631,549.104 463,523.5C 469.328,510.663 479.495,502.997 493.5,500.5 Z M 507.5,526.5 C 512.202,532.687 518.535,536.02 526.5,536.5C 526.866,548.602 521.866,557.769 511.5,564C 492.126,571.148 478.126,565.315 469.5,546.5C 484.001,546.285 496.167,540.952 506,530.5C 506.791,529.255 507.291,527.922 507.5,526.5 Z"/></g>
<g><path style="opacity:0.757" fill="#000000" d="M 322.5,526.5 C 328.986,524.835 331.819,527.168 331,533.5C 328.029,535.634 324.862,535.967 321.5,534.5C 318.638,531.313 318.971,528.646 322.5,526.5 Z"/></g>
<g><path style="opacity:0.8" fill="#000000" d="M 340.5,526.5 C 343.249,526.274 345.916,526.607 348.5,527.5C 351.049,532.058 349.549,534.724 344,535.5C 338.2,534.356 337.034,531.356 340.5,526.5 Z"/></g>
<g><path style="opacity:0.757" fill="#000000" d="M 359.5,526.5 C 365.986,524.835 368.819,527.168 368,533.5C 365.029,535.634 361.862,535.967 358.5,534.5C 355.638,531.313 355.971,528.646 359.5,526.5 Z"/></g>
<g><path style="opacity:0.8" fill="#000000" d="M 377.5,526.5 C 380.249,526.274 382.916,526.607 385.5,527.5C 388.049,532.058 386.549,534.724 381,535.5C 375.2,534.356 374.034,531.356 377.5,526.5 Z"/></g>
<g><path style="opacity:0.757" fill="#000000" d="M 396.5,526.5 C 402.986,524.835 405.819,527.168 405,533.5C 402.029,535.634 398.862,535.967 395.5,534.5C 392.638,531.313 392.971,528.646 396.5,526.5 Z"/></g>
<g><path style="opacity:0.8" fill="#000000" d="M 414.5,526.5 C 417.249,526.274 419.916,526.607 422.5,527.5C 425.049,532.058 423.549,534.724 418,535.5C 412.2,534.356 411.034,531.356 414.5,526.5 Z"/></g>
<g><path style="opacity:0.757" fill="#000000" d="M 433.5,526.5 C 439.986,524.835 442.819,527.168 442,533.5C 439.029,535.634 435.862,535.967 432.5,534.5C 429.638,531.313 429.971,528.646 433.5,526.5 Z"/></g>
</svg>
