<svg width="291" height="377" viewBox="0 0 291 377" fill="none" xmlns="http://www.w3.org/2000/svg">
<path d="M70.96 223.448L20.177 356.657L58.3966 346.924L81.0107 376.984L133.088 240.34L70.96 223.448Z" fill="#BCBCBC"/>
<path d="M219.805 223.448L270.848 356.571L232.604 346.901L210.057 377L157.702 240.449L219.805 223.448Z" fill="#BCBCBC"/>
<path d="M287 134.892C287 139.696 278 143.987 277.437 148.651C276.865 153.408 284.613 159.433 283.479 164.019C282.336 168.676 272.529 171.008 270.84 175.462C269.134 179.963 275.227 187.441 273.008 191.693C270.773 195.984 260.646 196.225 257.923 200.229C255.184 204.248 259.319 212.799 256.125 216.499C252.923 220.207 242.999 218.364 239.368 221.723C235.746 225.073 237.73 234.261 233.721 237.223C229.721 240.177 220.477 236.353 216.132 238.887C211.804 241.405 211.544 250.773 206.905 252.84C202.308 254.893 194.224 249.257 189.358 250.835C184.552 252.389 182.03 261.461 176.988 262.526C172.03 263.568 165.517 256.401 160.374 256.937C155.332 257.458 150.693 265.783 145.5 265.783C140.307 265.783 135.668 257.458 130.626 256.937C125.483 256.408 118.97 263.576 114.012 262.526C108.978 261.469 106.457 252.397 101.642 250.835C96.7759 249.257 88.6916 254.893 84.0948 252.84C79.456 250.773 79.1955 241.405 74.8676 238.887C70.523 236.353 61.279 240.177 57.2789 237.223C53.2704 234.261 55.262 225.081 51.6317 221.723C48.0097 218.372 38.0766 220.207 34.8749 216.499C31.6815 212.799 35.8161 204.248 33.0765 200.229C30.3537 196.225 20.2274 195.984 17.992 191.693C15.7735 187.441 21.8661 179.963 20.1601 175.462C18.4794 171.016 8.6724 168.683 7.52111 164.019C6.39502 159.433 14.1432 153.408 13.5633 148.651C13.0003 143.987 4 139.696 4 134.892C4 130.088 13.0003 125.797 13.5633 121.132C14.1348 116.375 6.38662 110.35 7.52111 105.764C8.664 101.108 18.471 98.7756 20.1601 94.3213C21.8661 89.8204 15.7735 82.3422 17.992 78.0901C20.2274 73.799 30.3537 73.5581 33.0765 69.5547C35.8161 65.5357 31.6815 56.9848 34.8749 53.2845C38.0766 49.5765 48.0013 51.4189 51.6317 48.0607C55.2536 44.7103 53.2704 35.5219 57.2789 32.5602C61.279 29.6062 70.523 33.4308 74.8676 30.8966C79.1955 28.378 79.456 19.0108 84.0948 16.943C88.6916 14.8908 96.7759 20.5266 101.642 18.9486C106.448 17.3939 108.97 8.32211 114.012 7.25713C118.97 6.21547 125.483 13.3827 130.626 12.8463C135.668 12.3255 140.307 4 145.5 4C150.693 4 155.332 12.3255 160.374 12.8463C165.517 13.3749 172.03 6.2077 176.988 7.25713C182.022 8.31434 184.543 17.3861 189.358 18.9486C194.224 20.5266 202.308 14.8908 206.905 16.943C211.544 19.0108 211.804 28.378 216.132 30.8966C220.477 33.4308 229.721 29.6062 233.721 32.5602C237.73 35.5219 235.738 44.7025 239.368 48.0607C242.99 51.4111 252.923 49.5765 256.125 53.2845C259.319 56.9848 255.184 65.5357 257.923 69.5547C260.646 73.5581 270.773 73.799 273.008 78.0901C275.227 82.3422 269.134 89.8204 270.84 94.3213C272.521 98.7678 282.328 101.1 283.479 105.764C284.605 110.35 276.857 116.375 277.437 121.132C278 125.797 287 130.095 287 134.892Z" fill="#BCBCBC"/>
<path d="M287 134.892C287 139.696 278 143.987 277.437 148.651C276.865 153.408 284.613 159.433 283.479 164.019C282.336 168.676 272.529 171.008 270.84 175.462C269.134 179.963 275.227 187.441 273.008 191.693C270.773 195.984 260.646 196.225 257.923 200.229C255.184 204.248 259.319 212.799 256.125 216.499C252.923 220.207 242.999 218.364 239.368 221.723C235.746 225.073 237.73 234.261 233.721 237.223C229.721 240.177 220.477 236.353 216.132 238.887C211.804 241.405 211.544 250.773 206.905 252.84C202.308 254.893 194.224 249.257 189.358 250.835C184.552 252.389 182.03 261.461 176.988 262.526C172.03 263.568 165.517 256.401 160.374 256.937C155.332 257.458 150.693 265.783 145.5 265.783C140.307 265.783 135.668 257.458 130.626 256.937C125.483 256.408 118.97 263.576 114.012 262.526C108.978 261.469 106.457 252.397 101.642 250.835C96.7759 249.257 88.6916 254.893 84.0948 252.84C79.456 250.773 79.1955 241.405 74.8676 238.887C70.523 236.353 61.279 240.177 57.2789 237.223C53.2704 234.261 55.262 225.081 51.6317 221.723C48.0097 218.372 38.0766 220.207 34.8749 216.499C31.6815 212.799 35.8161 204.248 33.0765 200.229C30.3537 196.225 20.2274 195.984 17.992 191.693C15.7735 187.441 21.8661 179.963 20.1601 175.462C18.4794 171.016 8.6724 168.683 7.52111 164.019C6.39502 159.433 14.1432 153.408 13.5633 148.651C13.0003 143.987 4 139.696 4 134.892C4 130.088 13.0003 125.797 13.5633 121.132C14.1348 116.375 6.38662 110.35 7.52111 105.764C8.664 101.108 18.471 98.7756 20.1601 94.3213C21.8661 89.8204 15.7735 82.3422 17.992 78.0901C20.2274 73.799 30.3537 73.5581 33.0765 69.5547C35.8161 65.5357 31.6815 56.9848 34.8749 53.2845C38.0766 49.5765 48.0013 51.4189 51.6317 48.0607C55.2536 44.7103 53.2704 35.5219 57.2789 32.5602C61.279 29.6062 70.523 33.4308 74.8676 30.8966C79.1955 28.378 79.456 19.0108 84.0948 16.943C88.6916 14.8908 96.7759 20.5266 101.642 18.9486C106.448 17.3939 108.97 8.32211 114.012 7.25713C118.97 6.21547 125.483 13.3827 130.626 12.8463C135.668 12.3255 140.307 4 145.5 4C150.693 4 155.332 12.3255 160.374 12.8463C165.517 13.3749 172.03 6.2077 176.988 7.25713C182.022 8.31434 184.543 17.3861 189.358 18.9486C194.224 20.5266 202.308 14.8908 206.905 16.943C211.544 19.0108 211.804 28.378 216.132 30.8966C220.477 33.4308 229.721 29.6062 233.721 32.5602C237.73 35.5219 235.738 44.7025 239.368 48.0607C242.99 51.4111 252.923 49.5765 256.125 53.2845C259.319 56.9848 255.184 65.5357 257.923 69.5547C260.646 73.5581 270.773 73.799 273.008 78.0901C275.227 82.3422 269.134 89.8204 270.84 94.3213C272.521 98.7678 282.328 101.1 283.479 105.764C284.605 110.35 276.857 116.375 277.437 121.132C278 125.797 287 130.095 287 134.892Z" stroke="#A8A8A8" stroke-width="6.5" stroke-miterlimit="10"/>
<path d="M145.525 240.371C82.6494 240.371 31.4966 193.054 31.4966 134.892C31.4966 76.7297 82.6494 29.4118 145.525 29.4118C208.401 29.4118 259.554 76.7297 259.554 134.892C259.554 193.054 208.401 240.371 145.525 240.371ZM145.525 38.5069C88.0697 38.5069 41.3288 81.7436 41.3288 134.892C41.3288 188.04 88.0697 231.276 145.525 231.276C202.981 231.276 249.722 188.04 249.722 134.892C249.722 81.7436 202.981 38.5069 145.525 38.5069Z" fill="#FDFDFD"/>
</svg>
