<svg width="300" height="300" viewBox="0 0 300 300" fill="none" xmlns="http://www.w3.org/2000/svg">
<g clip-path="url(#clip0_102_85)">
<rect width="300" height="300" fill="white"/>
<path d="M330 -30H-30V330H330V-30Z" fill="white"/>
<path d="M330 -30H-30V330H330V-30Z" fill="white"/>
<path d="M330 -30H-30V330H330V-30Z" fill="#24242C"/>
<mask id="mask0_102_85" style="mask-type:luminance" maskUnits="userSpaceOnUse" x="48" y="33" width="206" height="151">
<path d="M48 33.6H253.6V183.578H48V33.6Z" fill="white"/>
</mask>
<g mask="url(#mask0_102_85)">
<path fill-rule="evenodd" clip-rule="evenodd" d="M114.125 78.3688C123.066 79.5313 167.059 83.775 175.369 73.0063C178.15 69.4156 185.641 60.8281 185.641 60.8281C185.641 60.8281 190.081 48.65 193.272 46.1625C196.466 43.675 198.959 43.125 198.959 43.125C198.959 43.125 207.147 34.9656 213.388 34.2719C219.628 33.5781 229.347 35.5156 230.453 38.9844C231.556 42.45 232.253 44.7969 232.253 44.7969C232.253 44.7969 242.381 49.3656 245.984 49.7719C249.584 50.1813 253.903 51.7094 253.063 54.6063C252.225 57.5031 249.319 66.0906 241.4 68.5781C233.481 71.0688 227.547 71.2719 226.728 74.475C225.888 77.6563 230.309 88.2406 227.259 91.1375C224.213 94.0344 219.341 97.2156 218.931 101.091C218.522 104.969 215.741 111.741 212.403 113.269C209.069 114.8 208.516 117.981 207.963 120.041C207.413 122.122 206.572 135.806 199.922 139.825C193.253 143.844 189.241 148.963 189.506 152.553C189.794 156.144 186.397 176.478 187.094 178.153C187.787 179.803 193.619 179.131 194.172 180.497C194.725 181.884 194.172 183.556 194.172 183.556H181.569C181.569 183.556 177.781 182.641 176.616 178.05C175.45 173.459 172.481 145.659 164.747 145.822C156.994 145.984 149.175 145.822 145.616 145.822C144.163 145.822 143.713 145.822 143.65 145.822H143.691C143.794 145.781 143.875 145.763 143.978 145.781C144.306 145.803 143.631 145.822 143.65 145.822C131.641 143.866 122.494 146.15 122.494 146.15C122.494 146.15 117.05 157.491 110.134 161.916C99.6375 167.669 89.5281 166.219 89.5281 166.219L88.8719 176.744C88.8719 176.744 93.9875 183.578 91.6781 183.578H82.4687C82.4687 183.578 79.4187 179.988 79.1344 177.766C78.8469 175.541 78.2937 161.672 79.6844 160.569C81.0781 159.469 83.8406 154.756 83.8406 154.756C83.8406 154.756 79.6656 149.494 77.4562 149.781C75.225 150.066 70.2312 152.269 65.7906 153.656C61.35 155.041 54.9656 153.656 54.9656 153.656C54.9656 153.656 52.225 151.413 50.8344 148.922C49.4437 146.434 46.3937 143.947 51.1187 141.172C55.8469 138.397 58.0562 137.297 62.4969 136.194C66.9375 135.094 73.875 130.097 75.2656 128.444C76.6562 126.794 74.9781 125.956 78.6 122.916C82.2031 119.878 82.7562 112.413 83.0406 108.538C83.3281 104.663 90.8187 90.2625 96.65 85C102.481 79.7563 105.203 77.2063 114.125 78.3688Z" fill="#FF6100"/>
</g>
<mask id="mask1_102_85" style="mask-type:luminance" maskUnits="userSpaceOnUse" x="68" y="71" width="148" height="113">
<path d="M68.8 71.2H216V183.578H68.8V71.2Z" fill="white"/>
</mask>
<g mask="url(#mask1_102_85)">
<path fill-rule="evenodd" clip-rule="evenodd" d="M180.606 144.966C180.625 144.988 181.528 145.006 180.606 145.006V144.966ZM112.731 144.416C111.688 139.559 108.784 138.05 104.138 130.628C99.4938 123.222 103.669 114.759 98.3281 105.844C92.9875 96.9312 89.8563 100.522 85.4344 102.253C81.0156 103.988 74.6313 102.478 71.1531 98.4406C67.675 94.3813 67.9 93.1156 74.8781 88.9344C81.8563 84.775 80.0938 81.7562 81.9563 77.8187C83.7375 74.025 92.3938 70.4562 99.0438 72.0469C99.0438 72.0469 103.075 71.6781 105.428 72.8406C107.781 74.025 114.288 79.3687 112.856 82.4094C120.65 89.5875 129.859 98.2969 136.55 100.744C147.928 104.906 177.434 105.15 185.353 103.519C193.253 101.909 194.294 88.5875 194.294 88.5875C194.294 88.5875 198.531 88.1187 199.575 95.9938C200.619 103.866 196.097 107.334 194.928 109.313C193.763 111.291 195.053 110.822 199.575 116.959C204.097 123.1 202.603 136.072 201.784 142.213C201.294 145.944 204.3 149.453 207.247 152.084L210.725 154.919C211.197 155.288 211.606 155.613 211.894 155.878C212.897 156.694 214.409 159.122 215.291 160.631L215.228 161.447C215.25 165.934 215.25 175.072 215.391 175.928C215.475 176.397 214.247 178.722 213.163 180.703C212.997 181.353 212.609 181.966 212.178 182.456C211.791 183.128 211.525 183.578 211.525 183.578H200.903C200.903 183.578 201.109 182.844 201.438 181.947C201.253 181.294 201.128 180.681 201.213 180.334C201.294 179.928 202.481 179.009 203.709 178.153C204.894 176.888 206.469 175.419 206.469 175.419V166.341C206.469 166.341 199.228 159.794 192.659 157.103C186.091 154.409 182.55 144.803 180.709 144.966C180.647 144.966 180.625 144.966 180.625 144.966C180.606 144.947 175.594 135.806 172.566 134.603C164.584 134.359 152.203 137.766 146.678 140.947C139.006 145.353 124.6 145.353 124.375 147.903C124.15 150.453 126.116 167.138 126.116 172.563C126.116 177.113 122.472 182.047 121.266 183.556H109.663C109.541 182.741 109.294 181.006 109.397 179.969C109.519 178.581 112.078 178.113 115.331 175.094C118.544 172.094 113.775 149.269 112.731 144.416Z" fill="white"/>
</g>
<path fill-rule="evenodd" clip-rule="evenodd" d="M180.606 144.966C180.625 144.988 181.528 145.006 180.606 145.006V144.966ZM112.731 144.416C111.687 139.559 108.784 138.05 104.137 130.628C99.4937 123.222 103.669 114.759 98.3281 105.844C92.9875 96.9313 89.8562 100.522 85.4344 102.253L85.1906 102.356C87.8906 96.5031 92.6594 88.6094 96.65 85C101.887 80.2875 104.609 77.7375 111.587 78.125C112.753 79.6531 113.428 81.2063 112.856 82.4094C120.65 89.5875 129.859 98.2969 136.55 100.744C147.928 104.906 177.434 105.15 185.353 103.519C193.253 101.909 194.294 88.5875 194.294 88.5875C194.294 88.5875 198.531 88.1188 199.575 95.9938C200.619 103.866 196.097 107.334 194.928 109.313C193.762 111.291 195.053 110.822 199.575 116.959C203.197 121.856 202.95 131.097 202.316 137.747C201.622 138.581 200.844 139.297 199.944 139.825C193.272 143.844 189.262 148.963 189.528 152.553C189.569 153.084 189.528 153.981 189.425 155.125C184.862 151.331 182.203 144.844 180.687 144.966C180.625 144.966 180.606 144.966 180.606 144.966C180.584 144.947 175.572 135.806 172.544 134.603C164.562 134.359 152.184 137.766 146.659 140.928C142.975 143.05 137.756 144.131 133.275 144.988C126.75 145.047 122.512 146.109 122.512 146.109C122.512 146.109 119.525 152.328 115.169 157.369C114.287 151.738 113.181 146.475 112.731 144.416Z" fill="#24242C"/>
<path d="M122.041 261.956H118.266V249.719H122.203C123.384 249.719 124.397 249.966 125.241 250.456C126.091 250.941 126.741 251.641 127.191 252.556C127.641 253.466 127.866 254.553 127.866 255.819C127.866 257.094 127.634 258.191 127.178 259.106C126.728 260.025 126.069 260.728 125.203 261.219C124.334 261.712 123.281 261.956 122.041 261.956ZM119.741 260.644H121.941C123.456 260.644 124.581 260.216 125.316 259.356C126.056 258.491 126.428 257.312 126.428 255.819C126.428 254.337 126.066 253.169 125.341 252.319C124.616 251.462 123.534 251.031 122.103 251.031H119.741V260.644Z" fill="white"/>
<path d="M146.776 255.844C146.776 257.128 146.541 258.241 146.076 259.181C145.616 260.125 144.979 260.85 144.163 261.356C143.354 261.866 142.426 262.119 141.376 262.119C140.332 262.119 139.404 261.866 138.588 261.356C137.779 260.85 137.141 260.125 136.676 259.181C136.207 258.241 135.976 257.128 135.976 255.844C135.976 254.553 136.207 253.437 136.676 252.494C137.141 251.553 137.779 250.828 138.588 250.319C139.404 249.812 140.332 249.556 141.376 249.556C142.426 249.556 143.354 249.812 144.163 250.319C144.979 250.828 145.616 251.553 146.076 252.494C146.541 253.437 146.776 254.553 146.776 255.844ZM145.351 255.844C145.351 254.778 145.169 253.881 144.813 253.156C144.463 252.425 143.988 251.875 143.388 251.506C142.788 251.131 142.116 250.944 141.376 250.944C140.632 250.944 139.963 251.131 139.363 251.506C138.769 251.875 138.294 252.425 137.938 253.156C137.588 253.881 137.413 254.778 137.413 255.844C137.413 256.903 137.588 257.8 137.938 258.531C138.294 259.256 138.769 259.806 139.363 260.181C139.963 260.55 140.632 260.731 141.376 260.731C142.116 260.731 142.788 260.55 143.388 260.181C143.988 259.806 144.463 259.256 144.813 258.531C145.169 257.8 145.351 256.903 145.351 255.844Z" fill="white"/>
<path d="M163.74 253.544C163.48 252.737 163.055 252.103 162.465 251.644C161.871 251.178 161.133 250.944 160.252 250.944C159.527 250.944 158.865 251.131 158.265 251.506C157.671 251.875 157.202 252.425 156.852 253.156C156.502 253.881 156.327 254.778 156.327 255.844C156.327 256.903 156.502 257.8 156.852 258.531C157.208 259.256 157.69 259.806 158.29 260.181C158.896 260.55 159.58 260.731 160.34 260.731C161.03 260.731 161.643 260.587 162.177 260.294C162.708 260.003 163.127 259.591 163.427 259.056C163.727 258.525 163.883 257.891 163.902 257.156H160.677V255.844H165.34V257.156C165.34 258.166 165.121 259.041 164.69 259.781C164.265 260.525 163.677 261.1 162.927 261.506C162.177 261.916 161.315 262.119 160.34 262.119C159.255 262.119 158.305 261.866 157.49 261.356C156.671 260.85 156.033 260.125 155.577 259.181C155.118 258.241 154.89 257.128 154.89 255.844C154.89 254.553 155.118 253.437 155.577 252.494C156.033 251.553 156.665 250.828 157.465 250.319C158.271 249.812 159.202 249.556 160.252 249.556C161.108 249.556 161.89 249.725 162.59 250.056C163.29 250.391 163.871 250.856 164.34 251.456C164.805 252.056 165.115 252.753 165.265 253.544H163.74Z" fill="white"/>
<path d="M180.668 252.781C180.593 252.175 180.299 251.703 179.793 251.369C179.284 251.037 178.659 250.869 177.918 250.869C177.099 250.869 176.446 251.062 175.956 251.444C175.462 251.828 175.218 252.312 175.218 252.894C175.218 253.337 175.349 253.691 175.618 253.956C175.884 254.225 176.199 254.431 176.568 254.581C176.943 254.731 177.281 254.85 177.581 254.931L178.831 255.269C179.146 255.353 179.499 255.469 179.893 255.619C180.284 255.762 180.659 255.962 181.018 256.219C181.384 256.469 181.684 256.791 181.918 257.181C182.149 257.575 182.268 258.056 182.268 258.631C182.268 259.3 182.093 259.9 181.743 260.431C181.399 260.966 180.899 261.391 180.243 261.706C179.584 262.012 178.784 262.169 177.843 262.169C176.534 262.169 175.493 261.862 174.718 261.244C173.943 260.619 173.518 259.806 173.443 258.806H174.981C175.021 259.266 175.174 259.644 175.443 259.944C175.718 260.244 176.062 260.469 176.481 260.619C176.906 260.762 177.359 260.831 177.843 260.831C178.409 260.831 178.918 260.741 179.368 260.556C179.818 260.375 180.171 260.116 180.431 259.781C180.696 259.45 180.831 259.056 180.831 258.606C180.831 258.206 180.718 257.878 180.493 257.619C180.268 257.362 179.968 257.153 179.593 256.994C179.224 256.837 178.824 256.7 178.393 256.581L176.893 256.144C175.934 255.869 175.174 255.478 174.618 254.969C174.059 254.462 173.781 253.794 173.781 252.969C173.781 252.287 173.968 251.691 174.343 251.181C174.718 250.666 175.218 250.266 175.843 249.981C176.474 249.7 177.184 249.556 177.968 249.556C178.749 249.556 179.449 249.7 180.068 249.981C180.684 250.256 181.171 250.641 181.531 251.131C181.887 251.616 182.081 252.166 182.106 252.781H180.668Z" fill="white"/>
<path d="M46.3469 255.653H105.756" stroke="#FF6100" stroke-width="3.9959"/>
<path d="M194.122 254.413H253.531" stroke="#FF6100" stroke-width="3.9959"/>
<path d="M29.1165 224.934H34.1571V212.625H52.9509V224.934H58.0321V196.019H52.9509V208.287H34.1571V196.019H29.1165V224.934Z" fill="#FF6100"/>
<path d="M96.2414 210.475C96.2414 200.231 87.4414 195.231 79.882 195.231C72.3633 195.231 63.5664 200.231 63.5664 210.475C63.5664 220.722 72.3633 225.719 79.882 225.719C87.4414 225.719 96.2414 220.722 96.2414 210.475ZM91.0789 210.475C91.0789 217.5 85.0476 220.969 79.882 220.969C74.7601 220.969 68.7289 217.5 68.7289 210.475C68.7289 203.453 74.7601 199.984 79.882 199.984C85.0476 199.984 91.0789 203.453 91.0789 210.475Z" fill="#FF6100"/>
<path d="M101.403 213.49C101.403 221.794 108.506 225.965 115.612 225.965C122.719 225.965 129.822 221.794 129.822 213.49V196.019H124.784V213.49C124.784 218.531 120.197 221.009 115.612 221.009C111.028 221.009 106.441 218.531 106.441 213.49V196.019H101.403V213.49Z" fill="#FF6100"/>
<path d="M162.744 199.447C159.688 196.884 154.11 195.275 148.863 195.275C142.297 195.275 136.222 197.794 136.222 204.115C136.222 215.556 157.582 210.309 157.582 217.084C157.582 219.978 153.944 221.215 149.732 221.215C145.188 221.215 139.982 219.772 137.751 217.415L134.901 221.34C137.835 224.19 143.741 225.844 149.36 225.844C156.341 225.844 162.991 223.24 162.991 217.044C162.991 205.437 141.594 210.6 141.594 204.197C141.594 201.181 144.982 199.9 148.988 199.9C153.079 199.9 157.788 201.262 160.019 203.372L162.744 199.447Z" fill="#FF6100"/>
<path d="M173.566 220.597V212.625H191.244V208.287H173.566V200.356H194.053V196.019H168.525V224.934H194.303V220.597H173.566Z" fill="#FF6100"/>
<path d="M241.433 210.475C241.433 200.231 232.633 195.231 225.074 195.231C217.555 195.231 208.758 200.231 208.758 210.475C208.758 220.722 217.555 225.719 225.074 225.719C232.633 225.719 241.433 220.722 241.433 210.475ZM236.271 210.475C236.271 217.5 230.239 220.969 225.074 220.969C219.952 220.969 213.921 217.5 213.921 210.475C213.921 203.453 219.952 199.984 225.074 199.984C230.239 199.984 236.271 203.453 236.271 210.475Z" fill="#FF6100"/>
<path d="M247.007 196.019V224.934H252.048V214.112H269.685V209.775H252.048V200.356H272.454V196.019H247.007Z" fill="#FF6100"/>
<path d="M29.1125 224.934H34.1562V212.619H52.9531V224.934H58.0375V196.019H52.9531V208.284H34.1562V196.019H29.1125V224.934ZM96.2375 210.472C96.2375 200.234 87.4406 195.231 79.8781 195.231C72.3656 195.231 63.5687 200.234 63.5687 210.472C63.5687 220.719 72.3656 225.722 79.8781 225.722C87.4406 225.722 96.2375 220.719 96.2375 210.472ZM91.0719 210.472C91.0719 217.5 85.0406 220.972 79.8781 220.972C74.7656 220.972 68.7344 217.5 68.7344 210.472C68.7344 203.453 74.7656 199.981 79.8781 199.981C85.0406 199.981 91.0719 203.453 91.0719 210.472ZM101.397 213.488C101.397 221.797 108.509 225.963 115.609 225.963C122.719 225.963 129.819 221.797 129.819 213.488V196.019H124.784V213.488C124.784 218.531 120.197 221.009 115.609 221.009C111.028 221.009 106.441 218.531 106.441 213.488V196.019H101.397V213.488ZM162.744 199.447C159.688 196.888 154.109 195.272 148.866 195.272C142.3 195.272 136.219 197.794 136.219 204.119C136.219 215.556 157.581 210.309 157.581 217.088C157.581 219.972 153.95 221.213 149.734 221.213C145.184 221.213 139.981 219.772 137.753 217.422L134.897 221.344C137.831 224.188 143.744 225.841 149.359 225.841C156.341 225.841 162.997 223.241 162.997 217.047C162.997 205.438 141.594 210.603 141.594 204.2C141.594 201.184 144.984 199.903 148.987 199.903C153.081 199.903 157.791 201.263 160.022 203.372L162.744 199.447ZM173.563 220.597V212.619H191.244V208.284H173.563V200.356H194.056V196.019H168.522V224.934H194.3V220.597H173.563ZM241.428 210.472C241.428 200.234 232.634 195.231 225.069 195.231C217.556 195.231 208.763 200.234 208.763 210.472C208.763 220.719 217.556 225.722 225.069 225.722C232.634 225.722 241.428 220.719 241.428 210.472ZM236.266 210.472C236.266 217.5 230.234 220.972 225.069 220.972C219.956 220.972 213.925 217.5 213.925 210.472C213.925 203.453 219.956 199.981 225.069 199.981C230.234 199.981 236.266 203.453 236.266 210.472ZM247.003 196.019V224.934H252.047V214.113H269.684V209.775H252.047V200.356H272.459V196.019H247.003Z" stroke="white" stroke-width="2.15177"/>
<mask id="mask2_102_85" style="mask-type:luminance" maskUnits="userSpaceOnUse" x="71" y="206" width="5" height="6">
<path d="M71.3781 206.4H76V212H71.3781V206.4Z" fill="white"/>
</mask>
<g mask="url(#mask2_102_85)">
<path d="M73.1188 211.147C73.2938 211.225 73.4781 211.278 73.6719 211.291C74.6375 211.356 75.3063 210.441 75.2938 209.55C75.2875 208.947 75.1594 208.356 74.7594 207.884C74.1531 207.175 73.1906 206.875 72.4406 207.559C71.3781 208.525 71.8781 210.569 73.1188 211.147Z" fill="white"/>
</g>
<path d="M75.775 207.309C76.7031 208.434 78.4656 208.263 79.0031 206.875C79.4344 205.722 79.4219 204.181 78.6281 203.191C78.0344 202.513 76.9531 202.313 76.1531 202.731C74.55 203.569 74.7406 206.125 75.775 207.309Z" fill="white"/>
<path d="M80.0719 206.469C80.225 207.363 80.7375 208.119 81.7219 208.303C84.1062 208.756 85.175 204.959 83.7125 203.516C83.0187 202.831 81.7781 202.575 81 203.297C80.1812 204.056 79.8937 205.406 80.0719 206.469Z" fill="white"/>
<path d="M84.8406 211.281C86.5406 212.313 88.1719 210.031 87.5094 208.5C87.0906 207.534 86.0437 207.009 85.1406 207.706C84.525 208.181 84.1187 209.016 84.0875 209.784C84.0562 210.475 84.375 210.997 84.8406 211.281Z" fill="white"/>
<path d="M83.9844 211.594C82.7438 210.025 80.7094 209 78.6781 209.356C76.0969 209.853 74.0781 212.506 73.7688 215.013C73.6406 216.413 74.725 217.525 76.0438 217.872C78.2906 218.513 82.0438 218.394 84.1688 217.419C86.5094 216.138 85.2313 213.172 83.9844 211.594ZM83.4031 213.759C83.2406 214.422 82.7156 214.947 82.1813 215.347C81.6 215.778 80.9469 216.122 80.4094 216.609C80.1156 216.875 79.8531 217.197 79.6875 217.556C78.8719 216.603 77.5531 216.197 76.6625 215.309C76.2219 214.875 75.8969 214.316 75.7969 213.706C75.6344 212.675 76.2469 211.478 77.3875 211.381C77.9 211.338 78.4188 211.525 78.8125 211.85C79.1313 212.113 79.3688 212.456 79.5281 212.834C79.575 212.747 79.6219 212.659 79.675 212.575C79.9781 212.097 80.4063 211.678 80.9406 211.494C81.6094 211.259 82.4031 211.438 82.9063 211.931C83.3906 212.403 83.5625 213.116 83.4031 213.759Z" fill="white"/>
<mask id="mask3_102_85" style="mask-type:luminance" maskUnits="userSpaceOnUse" x="217" y="206" width="5" height="6">
<path d="M217.016 206.4H221.6V212H217.016V206.4Z" fill="white"/>
</mask>
<g mask="url(#mask3_102_85)">
<path d="M218.759 211.147C218.931 211.225 219.119 211.278 219.309 211.291C220.275 211.356 220.947 210.441 220.934 209.55C220.925 208.947 220.797 208.356 220.397 207.884C219.794 207.175 218.831 206.875 218.078 207.559C217.019 208.525 217.516 210.569 218.759 211.147Z" fill="white"/>
</g>
<path d="M221.412 207.309C222.341 208.434 224.103 208.263 224.641 206.875C225.075 205.722 225.059 204.181 224.269 203.191C223.675 202.513 222.594 202.313 221.791 202.731C220.187 203.569 220.381 206.125 221.412 207.309Z" fill="white"/>
<path d="M225.712 206.469C225.862 207.363 226.378 208.119 227.359 208.303C229.747 208.756 230.816 204.959 229.35 203.516C228.656 202.831 227.416 202.575 226.637 203.297C225.822 204.056 225.531 205.406 225.712 206.469Z" fill="white"/>
<path d="M230.481 211.281C232.178 212.313 233.813 210.031 233.147 208.5C232.728 207.534 231.684 207.009 230.781 207.706C230.163 208.181 229.759 209.016 229.725 209.784C229.694 210.475 230.013 210.997 230.481 211.281Z" fill="white"/>
<path d="M229.622 211.594C228.384 210.025 226.347 209 224.316 209.356C221.734 209.853 219.719 212.506 219.406 215.013C219.281 216.413 220.362 217.525 221.681 217.872C223.928 218.513 227.681 218.394 229.809 217.419C232.147 216.138 230.872 213.172 229.622 211.594ZM229.041 213.759C228.878 214.422 228.353 214.947 227.819 215.347C227.237 215.778 226.584 216.122 226.047 216.609C225.753 216.875 225.491 217.197 225.328 217.556C224.512 216.603 223.194 216.197 222.3 215.309C221.859 214.875 221.534 214.316 221.437 213.706C221.275 212.675 221.884 211.478 223.025 211.381C223.537 211.338 224.056 211.525 224.453 211.85C224.769 212.113 225.006 212.456 225.166 212.834C225.212 212.747 225.262 212.659 225.316 212.575C225.616 212.097 226.044 211.678 226.581 211.494C227.247 211.259 228.041 211.438 228.544 211.931C229.028 212.403 229.203 213.116 229.041 213.759Z" fill="white"/>
</g>
<defs>
<clipPath id="clip0_102_85">
<rect width="300" height="300" fill="white"/>
</clipPath>
</defs>
</svg>
